G04 #@! TF.GenerationSoftware,KiCad,Pcbnew,(5.1.0)-1*
G04 #@! TF.CreationDate,2019-04-04T19:18:29+02:00*
G04 #@! TF.ProjectId,YAPSCO,59415053-434f-42e6-9b69-6361645f7063,rev?*
G04 #@! TF.SameCoordinates,PX6a95280PY86ae840*
G04 #@! TF.FileFunction,Paste,Top*
G04 #@! TF.FilePolarity,Positive*
%FSLAX46Y46*%
G04 Gerber Fmt 4.6, Leading zero omitted, Abs format (unit mm)*
G04 Created by KiCad (PCBNEW (5.1.0)-1) date 2019-04-04 19:18:29*
%MOMM*%
%LPD*%
G04 APERTURE LIST*
%ADD10R,0.600000X1.500000*%
%ADD11C,0.100000*%
%ADD12C,1.150000*%
%ADD13R,3.000000X2.800000*%
%ADD14R,0.800000X0.900000*%
%ADD15C,1.425000*%
%ADD16R,2.000000X0.600000*%
%ADD17R,1.500000X0.600000*%
%ADD18R,1.550000X0.600000*%
G04 APERTURE END LIST*
D10*
X27686000Y19210000D03*
X28956000Y19210000D03*
X30226000Y19210000D03*
X31496000Y19210000D03*
X32766000Y19210000D03*
X34036000Y19210000D03*
X35306000Y19210000D03*
X35306000Y13810000D03*
X34036000Y13810000D03*
X32766000Y13810000D03*
X31496000Y13810000D03*
X30226000Y13810000D03*
X28956000Y13810000D03*
X27686000Y13810000D03*
D11*
G36*
X64482505Y43254796D02*
G01*
X64506773Y43251196D01*
X64530572Y43245235D01*
X64553671Y43236970D01*
X64575850Y43226480D01*
X64596893Y43213868D01*
X64616599Y43199253D01*
X64634777Y43182777D01*
X64651253Y43164599D01*
X64665868Y43144893D01*
X64678480Y43123850D01*
X64688970Y43101671D01*
X64697235Y43078572D01*
X64703196Y43054773D01*
X64706796Y43030505D01*
X64708000Y43006001D01*
X64708000Y42355999D01*
X64706796Y42331495D01*
X64703196Y42307227D01*
X64697235Y42283428D01*
X64688970Y42260329D01*
X64678480Y42238150D01*
X64665868Y42217107D01*
X64651253Y42197401D01*
X64634777Y42179223D01*
X64616599Y42162747D01*
X64596893Y42148132D01*
X64575850Y42135520D01*
X64553671Y42125030D01*
X64530572Y42116765D01*
X64506773Y42110804D01*
X64482505Y42107204D01*
X64458001Y42106000D01*
X63557999Y42106000D01*
X63533495Y42107204D01*
X63509227Y42110804D01*
X63485428Y42116765D01*
X63462329Y42125030D01*
X63440150Y42135520D01*
X63419107Y42148132D01*
X63399401Y42162747D01*
X63381223Y42179223D01*
X63364747Y42197401D01*
X63350132Y42217107D01*
X63337520Y42238150D01*
X63327030Y42260329D01*
X63318765Y42283428D01*
X63312804Y42307227D01*
X63309204Y42331495D01*
X63308000Y42355999D01*
X63308000Y43006001D01*
X63309204Y43030505D01*
X63312804Y43054773D01*
X63318765Y43078572D01*
X63327030Y43101671D01*
X63337520Y43123850D01*
X63350132Y43144893D01*
X63364747Y43164599D01*
X63381223Y43182777D01*
X63399401Y43199253D01*
X63419107Y43213868D01*
X63440150Y43226480D01*
X63462329Y43236970D01*
X63485428Y43245235D01*
X63509227Y43251196D01*
X63533495Y43254796D01*
X63557999Y43256000D01*
X64458001Y43256000D01*
X64482505Y43254796D01*
X64482505Y43254796D01*
G37*
D12*
X64008000Y42681000D03*
D11*
G36*
X64482505Y41204796D02*
G01*
X64506773Y41201196D01*
X64530572Y41195235D01*
X64553671Y41186970D01*
X64575850Y41176480D01*
X64596893Y41163868D01*
X64616599Y41149253D01*
X64634777Y41132777D01*
X64651253Y41114599D01*
X64665868Y41094893D01*
X64678480Y41073850D01*
X64688970Y41051671D01*
X64697235Y41028572D01*
X64703196Y41004773D01*
X64706796Y40980505D01*
X64708000Y40956001D01*
X64708000Y40305999D01*
X64706796Y40281495D01*
X64703196Y40257227D01*
X64697235Y40233428D01*
X64688970Y40210329D01*
X64678480Y40188150D01*
X64665868Y40167107D01*
X64651253Y40147401D01*
X64634777Y40129223D01*
X64616599Y40112747D01*
X64596893Y40098132D01*
X64575850Y40085520D01*
X64553671Y40075030D01*
X64530572Y40066765D01*
X64506773Y40060804D01*
X64482505Y40057204D01*
X64458001Y40056000D01*
X63557999Y40056000D01*
X63533495Y40057204D01*
X63509227Y40060804D01*
X63485428Y40066765D01*
X63462329Y40075030D01*
X63440150Y40085520D01*
X63419107Y40098132D01*
X63399401Y40112747D01*
X63381223Y40129223D01*
X63364747Y40147401D01*
X63350132Y40167107D01*
X63337520Y40188150D01*
X63327030Y40210329D01*
X63318765Y40233428D01*
X63312804Y40257227D01*
X63309204Y40281495D01*
X63308000Y40305999D01*
X63308000Y40956001D01*
X63309204Y40980505D01*
X63312804Y41004773D01*
X63318765Y41028572D01*
X63327030Y41051671D01*
X63337520Y41073850D01*
X63350132Y41094893D01*
X63364747Y41114599D01*
X63381223Y41132777D01*
X63399401Y41149253D01*
X63419107Y41163868D01*
X63440150Y41176480D01*
X63462329Y41186970D01*
X63485428Y41195235D01*
X63509227Y41201196D01*
X63533495Y41204796D01*
X63557999Y41206000D01*
X64458001Y41206000D01*
X64482505Y41204796D01*
X64482505Y41204796D01*
G37*
D12*
X64008000Y40631000D03*
D11*
G36*
X73746505Y59499796D02*
G01*
X73770773Y59496196D01*
X73794572Y59490235D01*
X73817671Y59481970D01*
X73839850Y59471480D01*
X73860893Y59458868D01*
X73880599Y59444253D01*
X73898777Y59427777D01*
X73915253Y59409599D01*
X73929868Y59389893D01*
X73942480Y59368850D01*
X73952970Y59346671D01*
X73961235Y59323572D01*
X73967196Y59299773D01*
X73970796Y59275505D01*
X73972000Y59251001D01*
X73972000Y58350999D01*
X73970796Y58326495D01*
X73967196Y58302227D01*
X73961235Y58278428D01*
X73952970Y58255329D01*
X73942480Y58233150D01*
X73929868Y58212107D01*
X73915253Y58192401D01*
X73898777Y58174223D01*
X73880599Y58157747D01*
X73860893Y58143132D01*
X73839850Y58130520D01*
X73817671Y58120030D01*
X73794572Y58111765D01*
X73770773Y58105804D01*
X73746505Y58102204D01*
X73722001Y58101000D01*
X73071999Y58101000D01*
X73047495Y58102204D01*
X73023227Y58105804D01*
X72999428Y58111765D01*
X72976329Y58120030D01*
X72954150Y58130520D01*
X72933107Y58143132D01*
X72913401Y58157747D01*
X72895223Y58174223D01*
X72878747Y58192401D01*
X72864132Y58212107D01*
X72851520Y58233150D01*
X72841030Y58255329D01*
X72832765Y58278428D01*
X72826804Y58302227D01*
X72823204Y58326495D01*
X72822000Y58350999D01*
X72822000Y59251001D01*
X72823204Y59275505D01*
X72826804Y59299773D01*
X72832765Y59323572D01*
X72841030Y59346671D01*
X72851520Y59368850D01*
X72864132Y59389893D01*
X72878747Y59409599D01*
X72895223Y59427777D01*
X72913401Y59444253D01*
X72933107Y59458868D01*
X72954150Y59471480D01*
X72976329Y59481970D01*
X72999428Y59490235D01*
X73023227Y59496196D01*
X73047495Y59499796D01*
X73071999Y59501000D01*
X73722001Y59501000D01*
X73746505Y59499796D01*
X73746505Y59499796D01*
G37*
D12*
X73397000Y58801000D03*
D11*
G36*
X75796505Y59499796D02*
G01*
X75820773Y59496196D01*
X75844572Y59490235D01*
X75867671Y59481970D01*
X75889850Y59471480D01*
X75910893Y59458868D01*
X75930599Y59444253D01*
X75948777Y59427777D01*
X75965253Y59409599D01*
X75979868Y59389893D01*
X75992480Y59368850D01*
X76002970Y59346671D01*
X76011235Y59323572D01*
X76017196Y59299773D01*
X76020796Y59275505D01*
X76022000Y59251001D01*
X76022000Y58350999D01*
X76020796Y58326495D01*
X76017196Y58302227D01*
X76011235Y58278428D01*
X76002970Y58255329D01*
X75992480Y58233150D01*
X75979868Y58212107D01*
X75965253Y58192401D01*
X75948777Y58174223D01*
X75930599Y58157747D01*
X75910893Y58143132D01*
X75889850Y58130520D01*
X75867671Y58120030D01*
X75844572Y58111765D01*
X75820773Y58105804D01*
X75796505Y58102204D01*
X75772001Y58101000D01*
X75121999Y58101000D01*
X75097495Y58102204D01*
X75073227Y58105804D01*
X75049428Y58111765D01*
X75026329Y58120030D01*
X75004150Y58130520D01*
X74983107Y58143132D01*
X74963401Y58157747D01*
X74945223Y58174223D01*
X74928747Y58192401D01*
X74914132Y58212107D01*
X74901520Y58233150D01*
X74891030Y58255329D01*
X74882765Y58278428D01*
X74876804Y58302227D01*
X74873204Y58326495D01*
X74872000Y58350999D01*
X74872000Y59251001D01*
X74873204Y59275505D01*
X74876804Y59299773D01*
X74882765Y59323572D01*
X74891030Y59346671D01*
X74901520Y59368850D01*
X74914132Y59389893D01*
X74928747Y59409599D01*
X74945223Y59427777D01*
X74963401Y59444253D01*
X74983107Y59458868D01*
X75004150Y59471480D01*
X75026329Y59481970D01*
X75049428Y59490235D01*
X75073227Y59496196D01*
X75097495Y59499796D01*
X75121999Y59501000D01*
X75772001Y59501000D01*
X75796505Y59499796D01*
X75796505Y59499796D01*
G37*
D12*
X75447000Y58801000D03*
D11*
G36*
X73746505Y57086796D02*
G01*
X73770773Y57083196D01*
X73794572Y57077235D01*
X73817671Y57068970D01*
X73839850Y57058480D01*
X73860893Y57045868D01*
X73880599Y57031253D01*
X73898777Y57014777D01*
X73915253Y56996599D01*
X73929868Y56976893D01*
X73942480Y56955850D01*
X73952970Y56933671D01*
X73961235Y56910572D01*
X73967196Y56886773D01*
X73970796Y56862505D01*
X73972000Y56838001D01*
X73972000Y55937999D01*
X73970796Y55913495D01*
X73967196Y55889227D01*
X73961235Y55865428D01*
X73952970Y55842329D01*
X73942480Y55820150D01*
X73929868Y55799107D01*
X73915253Y55779401D01*
X73898777Y55761223D01*
X73880599Y55744747D01*
X73860893Y55730132D01*
X73839850Y55717520D01*
X73817671Y55707030D01*
X73794572Y55698765D01*
X73770773Y55692804D01*
X73746505Y55689204D01*
X73722001Y55688000D01*
X73071999Y55688000D01*
X73047495Y55689204D01*
X73023227Y55692804D01*
X72999428Y55698765D01*
X72976329Y55707030D01*
X72954150Y55717520D01*
X72933107Y55730132D01*
X72913401Y55744747D01*
X72895223Y55761223D01*
X72878747Y55779401D01*
X72864132Y55799107D01*
X72851520Y55820150D01*
X72841030Y55842329D01*
X72832765Y55865428D01*
X72826804Y55889227D01*
X72823204Y55913495D01*
X72822000Y55937999D01*
X72822000Y56838001D01*
X72823204Y56862505D01*
X72826804Y56886773D01*
X72832765Y56910572D01*
X72841030Y56933671D01*
X72851520Y56955850D01*
X72864132Y56976893D01*
X72878747Y56996599D01*
X72895223Y57014777D01*
X72913401Y57031253D01*
X72933107Y57045868D01*
X72954150Y57058480D01*
X72976329Y57068970D01*
X72999428Y57077235D01*
X73023227Y57083196D01*
X73047495Y57086796D01*
X73071999Y57088000D01*
X73722001Y57088000D01*
X73746505Y57086796D01*
X73746505Y57086796D01*
G37*
D12*
X73397000Y56388000D03*
D11*
G36*
X75796505Y57086796D02*
G01*
X75820773Y57083196D01*
X75844572Y57077235D01*
X75867671Y57068970D01*
X75889850Y57058480D01*
X75910893Y57045868D01*
X75930599Y57031253D01*
X75948777Y57014777D01*
X75965253Y56996599D01*
X75979868Y56976893D01*
X75992480Y56955850D01*
X76002970Y56933671D01*
X76011235Y56910572D01*
X76017196Y56886773D01*
X76020796Y56862505D01*
X76022000Y56838001D01*
X76022000Y55937999D01*
X76020796Y55913495D01*
X76017196Y55889227D01*
X76011235Y55865428D01*
X76002970Y55842329D01*
X75992480Y55820150D01*
X75979868Y55799107D01*
X75965253Y55779401D01*
X75948777Y55761223D01*
X75930599Y55744747D01*
X75910893Y55730132D01*
X75889850Y55717520D01*
X75867671Y55707030D01*
X75844572Y55698765D01*
X75820773Y55692804D01*
X75796505Y55689204D01*
X75772001Y55688000D01*
X75121999Y55688000D01*
X75097495Y55689204D01*
X75073227Y55692804D01*
X75049428Y55698765D01*
X75026329Y55707030D01*
X75004150Y55717520D01*
X74983107Y55730132D01*
X74963401Y55744747D01*
X74945223Y55761223D01*
X74928747Y55779401D01*
X74914132Y55799107D01*
X74901520Y55820150D01*
X74891030Y55842329D01*
X74882765Y55865428D01*
X74876804Y55889227D01*
X74873204Y55913495D01*
X74872000Y55937999D01*
X74872000Y56838001D01*
X74873204Y56862505D01*
X74876804Y56886773D01*
X74882765Y56910572D01*
X74891030Y56933671D01*
X74901520Y56955850D01*
X74914132Y56976893D01*
X74928747Y56996599D01*
X74945223Y57014777D01*
X74963401Y57031253D01*
X74983107Y57045868D01*
X75004150Y57058480D01*
X75026329Y57068970D01*
X75049428Y57077235D01*
X75073227Y57083196D01*
X75097495Y57086796D01*
X75121999Y57088000D01*
X75772001Y57088000D01*
X75796505Y57086796D01*
X75796505Y57086796D01*
G37*
D12*
X75447000Y56388000D03*
D11*
G36*
X73746505Y54546796D02*
G01*
X73770773Y54543196D01*
X73794572Y54537235D01*
X73817671Y54528970D01*
X73839850Y54518480D01*
X73860893Y54505868D01*
X73880599Y54491253D01*
X73898777Y54474777D01*
X73915253Y54456599D01*
X73929868Y54436893D01*
X73942480Y54415850D01*
X73952970Y54393671D01*
X73961235Y54370572D01*
X73967196Y54346773D01*
X73970796Y54322505D01*
X73972000Y54298001D01*
X73972000Y53397999D01*
X73970796Y53373495D01*
X73967196Y53349227D01*
X73961235Y53325428D01*
X73952970Y53302329D01*
X73942480Y53280150D01*
X73929868Y53259107D01*
X73915253Y53239401D01*
X73898777Y53221223D01*
X73880599Y53204747D01*
X73860893Y53190132D01*
X73839850Y53177520D01*
X73817671Y53167030D01*
X73794572Y53158765D01*
X73770773Y53152804D01*
X73746505Y53149204D01*
X73722001Y53148000D01*
X73071999Y53148000D01*
X73047495Y53149204D01*
X73023227Y53152804D01*
X72999428Y53158765D01*
X72976329Y53167030D01*
X72954150Y53177520D01*
X72933107Y53190132D01*
X72913401Y53204747D01*
X72895223Y53221223D01*
X72878747Y53239401D01*
X72864132Y53259107D01*
X72851520Y53280150D01*
X72841030Y53302329D01*
X72832765Y53325428D01*
X72826804Y53349227D01*
X72823204Y53373495D01*
X72822000Y53397999D01*
X72822000Y54298001D01*
X72823204Y54322505D01*
X72826804Y54346773D01*
X72832765Y54370572D01*
X72841030Y54393671D01*
X72851520Y54415850D01*
X72864132Y54436893D01*
X72878747Y54456599D01*
X72895223Y54474777D01*
X72913401Y54491253D01*
X72933107Y54505868D01*
X72954150Y54518480D01*
X72976329Y54528970D01*
X72999428Y54537235D01*
X73023227Y54543196D01*
X73047495Y54546796D01*
X73071999Y54548000D01*
X73722001Y54548000D01*
X73746505Y54546796D01*
X73746505Y54546796D01*
G37*
D12*
X73397000Y53848000D03*
D11*
G36*
X75796505Y54546796D02*
G01*
X75820773Y54543196D01*
X75844572Y54537235D01*
X75867671Y54528970D01*
X75889850Y54518480D01*
X75910893Y54505868D01*
X75930599Y54491253D01*
X75948777Y54474777D01*
X75965253Y54456599D01*
X75979868Y54436893D01*
X75992480Y54415850D01*
X76002970Y54393671D01*
X76011235Y54370572D01*
X76017196Y54346773D01*
X76020796Y54322505D01*
X76022000Y54298001D01*
X76022000Y53397999D01*
X76020796Y53373495D01*
X76017196Y53349227D01*
X76011235Y53325428D01*
X76002970Y53302329D01*
X75992480Y53280150D01*
X75979868Y53259107D01*
X75965253Y53239401D01*
X75948777Y53221223D01*
X75930599Y53204747D01*
X75910893Y53190132D01*
X75889850Y53177520D01*
X75867671Y53167030D01*
X75844572Y53158765D01*
X75820773Y53152804D01*
X75796505Y53149204D01*
X75772001Y53148000D01*
X75121999Y53148000D01*
X75097495Y53149204D01*
X75073227Y53152804D01*
X75049428Y53158765D01*
X75026329Y53167030D01*
X75004150Y53177520D01*
X74983107Y53190132D01*
X74963401Y53204747D01*
X74945223Y53221223D01*
X74928747Y53239401D01*
X74914132Y53259107D01*
X74901520Y53280150D01*
X74891030Y53302329D01*
X74882765Y53325428D01*
X74876804Y53349227D01*
X74873204Y53373495D01*
X74872000Y53397999D01*
X74872000Y54298001D01*
X74873204Y54322505D01*
X74876804Y54346773D01*
X74882765Y54370572D01*
X74891030Y54393671D01*
X74901520Y54415850D01*
X74914132Y54436893D01*
X74928747Y54456599D01*
X74945223Y54474777D01*
X74963401Y54491253D01*
X74983107Y54505868D01*
X75004150Y54518480D01*
X75026329Y54528970D01*
X75049428Y54537235D01*
X75073227Y54543196D01*
X75097495Y54546796D01*
X75121999Y54548000D01*
X75772001Y54548000D01*
X75796505Y54546796D01*
X75796505Y54546796D01*
G37*
D12*
X75447000Y53848000D03*
D11*
G36*
X73746505Y50990796D02*
G01*
X73770773Y50987196D01*
X73794572Y50981235D01*
X73817671Y50972970D01*
X73839850Y50962480D01*
X73860893Y50949868D01*
X73880599Y50935253D01*
X73898777Y50918777D01*
X73915253Y50900599D01*
X73929868Y50880893D01*
X73942480Y50859850D01*
X73952970Y50837671D01*
X73961235Y50814572D01*
X73967196Y50790773D01*
X73970796Y50766505D01*
X73972000Y50742001D01*
X73972000Y49841999D01*
X73970796Y49817495D01*
X73967196Y49793227D01*
X73961235Y49769428D01*
X73952970Y49746329D01*
X73942480Y49724150D01*
X73929868Y49703107D01*
X73915253Y49683401D01*
X73898777Y49665223D01*
X73880599Y49648747D01*
X73860893Y49634132D01*
X73839850Y49621520D01*
X73817671Y49611030D01*
X73794572Y49602765D01*
X73770773Y49596804D01*
X73746505Y49593204D01*
X73722001Y49592000D01*
X73071999Y49592000D01*
X73047495Y49593204D01*
X73023227Y49596804D01*
X72999428Y49602765D01*
X72976329Y49611030D01*
X72954150Y49621520D01*
X72933107Y49634132D01*
X72913401Y49648747D01*
X72895223Y49665223D01*
X72878747Y49683401D01*
X72864132Y49703107D01*
X72851520Y49724150D01*
X72841030Y49746329D01*
X72832765Y49769428D01*
X72826804Y49793227D01*
X72823204Y49817495D01*
X72822000Y49841999D01*
X72822000Y50742001D01*
X72823204Y50766505D01*
X72826804Y50790773D01*
X72832765Y50814572D01*
X72841030Y50837671D01*
X72851520Y50859850D01*
X72864132Y50880893D01*
X72878747Y50900599D01*
X72895223Y50918777D01*
X72913401Y50935253D01*
X72933107Y50949868D01*
X72954150Y50962480D01*
X72976329Y50972970D01*
X72999428Y50981235D01*
X73023227Y50987196D01*
X73047495Y50990796D01*
X73071999Y50992000D01*
X73722001Y50992000D01*
X73746505Y50990796D01*
X73746505Y50990796D01*
G37*
D12*
X73397000Y50292000D03*
D11*
G36*
X75796505Y50990796D02*
G01*
X75820773Y50987196D01*
X75844572Y50981235D01*
X75867671Y50972970D01*
X75889850Y50962480D01*
X75910893Y50949868D01*
X75930599Y50935253D01*
X75948777Y50918777D01*
X75965253Y50900599D01*
X75979868Y50880893D01*
X75992480Y50859850D01*
X76002970Y50837671D01*
X76011235Y50814572D01*
X76017196Y50790773D01*
X76020796Y50766505D01*
X76022000Y50742001D01*
X76022000Y49841999D01*
X76020796Y49817495D01*
X76017196Y49793227D01*
X76011235Y49769428D01*
X76002970Y49746329D01*
X75992480Y49724150D01*
X75979868Y49703107D01*
X75965253Y49683401D01*
X75948777Y49665223D01*
X75930599Y49648747D01*
X75910893Y49634132D01*
X75889850Y49621520D01*
X75867671Y49611030D01*
X75844572Y49602765D01*
X75820773Y49596804D01*
X75796505Y49593204D01*
X75772001Y49592000D01*
X75121999Y49592000D01*
X75097495Y49593204D01*
X75073227Y49596804D01*
X75049428Y49602765D01*
X75026329Y49611030D01*
X75004150Y49621520D01*
X74983107Y49634132D01*
X74963401Y49648747D01*
X74945223Y49665223D01*
X74928747Y49683401D01*
X74914132Y49703107D01*
X74901520Y49724150D01*
X74891030Y49746329D01*
X74882765Y49769428D01*
X74876804Y49793227D01*
X74873204Y49817495D01*
X74872000Y49841999D01*
X74872000Y50742001D01*
X74873204Y50766505D01*
X74876804Y50790773D01*
X74882765Y50814572D01*
X74891030Y50837671D01*
X74901520Y50859850D01*
X74914132Y50880893D01*
X74928747Y50900599D01*
X74945223Y50918777D01*
X74963401Y50935253D01*
X74983107Y50949868D01*
X75004150Y50962480D01*
X75026329Y50972970D01*
X75049428Y50981235D01*
X75073227Y50987196D01*
X75097495Y50990796D01*
X75121999Y50992000D01*
X75772001Y50992000D01*
X75796505Y50990796D01*
X75796505Y50990796D01*
G37*
D12*
X75447000Y50292000D03*
D13*
X47314000Y40640000D03*
X37014000Y40640000D03*
D14*
X19812000Y26400000D03*
X20762000Y24400000D03*
X18862000Y24400000D03*
D11*
G36*
X69538504Y59801796D02*
G01*
X69562773Y59798196D01*
X69586571Y59792235D01*
X69609671Y59783970D01*
X69631849Y59773480D01*
X69652893Y59760867D01*
X69672598Y59746253D01*
X69690777Y59729777D01*
X69707253Y59711598D01*
X69721867Y59691893D01*
X69734480Y59670849D01*
X69744970Y59648671D01*
X69753235Y59625571D01*
X69759196Y59601773D01*
X69762796Y59577504D01*
X69764000Y59553000D01*
X69764000Y58303000D01*
X69762796Y58278496D01*
X69759196Y58254227D01*
X69753235Y58230429D01*
X69744970Y58207329D01*
X69734480Y58185151D01*
X69721867Y58164107D01*
X69707253Y58144402D01*
X69690777Y58126223D01*
X69672598Y58109747D01*
X69652893Y58095133D01*
X69631849Y58082520D01*
X69609671Y58072030D01*
X69586571Y58063765D01*
X69562773Y58057804D01*
X69538504Y58054204D01*
X69514000Y58053000D01*
X68589000Y58053000D01*
X68564496Y58054204D01*
X68540227Y58057804D01*
X68516429Y58063765D01*
X68493329Y58072030D01*
X68471151Y58082520D01*
X68450107Y58095133D01*
X68430402Y58109747D01*
X68412223Y58126223D01*
X68395747Y58144402D01*
X68381133Y58164107D01*
X68368520Y58185151D01*
X68358030Y58207329D01*
X68349765Y58230429D01*
X68343804Y58254227D01*
X68340204Y58278496D01*
X68339000Y58303000D01*
X68339000Y59553000D01*
X68340204Y59577504D01*
X68343804Y59601773D01*
X68349765Y59625571D01*
X68358030Y59648671D01*
X68368520Y59670849D01*
X68381133Y59691893D01*
X68395747Y59711598D01*
X68412223Y59729777D01*
X68430402Y59746253D01*
X68450107Y59760867D01*
X68471151Y59773480D01*
X68493329Y59783970D01*
X68516429Y59792235D01*
X68540227Y59798196D01*
X68564496Y59801796D01*
X68589000Y59803000D01*
X69514000Y59803000D01*
X69538504Y59801796D01*
X69538504Y59801796D01*
G37*
D15*
X69051500Y58928000D03*
D11*
G36*
X66563504Y59801796D02*
G01*
X66587773Y59798196D01*
X66611571Y59792235D01*
X66634671Y59783970D01*
X66656849Y59773480D01*
X66677893Y59760867D01*
X66697598Y59746253D01*
X66715777Y59729777D01*
X66732253Y59711598D01*
X66746867Y59691893D01*
X66759480Y59670849D01*
X66769970Y59648671D01*
X66778235Y59625571D01*
X66784196Y59601773D01*
X66787796Y59577504D01*
X66789000Y59553000D01*
X66789000Y58303000D01*
X66787796Y58278496D01*
X66784196Y58254227D01*
X66778235Y58230429D01*
X66769970Y58207329D01*
X66759480Y58185151D01*
X66746867Y58164107D01*
X66732253Y58144402D01*
X66715777Y58126223D01*
X66697598Y58109747D01*
X66677893Y58095133D01*
X66656849Y58082520D01*
X66634671Y58072030D01*
X66611571Y58063765D01*
X66587773Y58057804D01*
X66563504Y58054204D01*
X66539000Y58053000D01*
X65614000Y58053000D01*
X65589496Y58054204D01*
X65565227Y58057804D01*
X65541429Y58063765D01*
X65518329Y58072030D01*
X65496151Y58082520D01*
X65475107Y58095133D01*
X65455402Y58109747D01*
X65437223Y58126223D01*
X65420747Y58144402D01*
X65406133Y58164107D01*
X65393520Y58185151D01*
X65383030Y58207329D01*
X65374765Y58230429D01*
X65368804Y58254227D01*
X65365204Y58278496D01*
X65364000Y58303000D01*
X65364000Y59553000D01*
X65365204Y59577504D01*
X65368804Y59601773D01*
X65374765Y59625571D01*
X65383030Y59648671D01*
X65393520Y59670849D01*
X65406133Y59691893D01*
X65420747Y59711598D01*
X65437223Y59729777D01*
X65455402Y59746253D01*
X65475107Y59760867D01*
X65496151Y59773480D01*
X65518329Y59783970D01*
X65541429Y59792235D01*
X65565227Y59798196D01*
X65589496Y59801796D01*
X65614000Y59803000D01*
X66539000Y59803000D01*
X66563504Y59801796D01*
X66563504Y59801796D01*
G37*
D15*
X66076500Y58928000D03*
D11*
G36*
X69575004Y57261796D02*
G01*
X69599273Y57258196D01*
X69623071Y57252235D01*
X69646171Y57243970D01*
X69668349Y57233480D01*
X69689393Y57220867D01*
X69709098Y57206253D01*
X69727277Y57189777D01*
X69743753Y57171598D01*
X69758367Y57151893D01*
X69770980Y57130849D01*
X69781470Y57108671D01*
X69789735Y57085571D01*
X69795696Y57061773D01*
X69799296Y57037504D01*
X69800500Y57013000D01*
X69800500Y55763000D01*
X69799296Y55738496D01*
X69795696Y55714227D01*
X69789735Y55690429D01*
X69781470Y55667329D01*
X69770980Y55645151D01*
X69758367Y55624107D01*
X69743753Y55604402D01*
X69727277Y55586223D01*
X69709098Y55569747D01*
X69689393Y55555133D01*
X69668349Y55542520D01*
X69646171Y55532030D01*
X69623071Y55523765D01*
X69599273Y55517804D01*
X69575004Y55514204D01*
X69550500Y55513000D01*
X68625500Y55513000D01*
X68600996Y55514204D01*
X68576727Y55517804D01*
X68552929Y55523765D01*
X68529829Y55532030D01*
X68507651Y55542520D01*
X68486607Y55555133D01*
X68466902Y55569747D01*
X68448723Y55586223D01*
X68432247Y55604402D01*
X68417633Y55624107D01*
X68405020Y55645151D01*
X68394530Y55667329D01*
X68386265Y55690429D01*
X68380304Y55714227D01*
X68376704Y55738496D01*
X68375500Y55763000D01*
X68375500Y57013000D01*
X68376704Y57037504D01*
X68380304Y57061773D01*
X68386265Y57085571D01*
X68394530Y57108671D01*
X68405020Y57130849D01*
X68417633Y57151893D01*
X68432247Y57171598D01*
X68448723Y57189777D01*
X68466902Y57206253D01*
X68486607Y57220867D01*
X68507651Y57233480D01*
X68529829Y57243970D01*
X68552929Y57252235D01*
X68576727Y57258196D01*
X68600996Y57261796D01*
X68625500Y57263000D01*
X69550500Y57263000D01*
X69575004Y57261796D01*
X69575004Y57261796D01*
G37*
D15*
X69088000Y56388000D03*
D11*
G36*
X66600004Y57261796D02*
G01*
X66624273Y57258196D01*
X66648071Y57252235D01*
X66671171Y57243970D01*
X66693349Y57233480D01*
X66714393Y57220867D01*
X66734098Y57206253D01*
X66752277Y57189777D01*
X66768753Y57171598D01*
X66783367Y57151893D01*
X66795980Y57130849D01*
X66806470Y57108671D01*
X66814735Y57085571D01*
X66820696Y57061773D01*
X66824296Y57037504D01*
X66825500Y57013000D01*
X66825500Y55763000D01*
X66824296Y55738496D01*
X66820696Y55714227D01*
X66814735Y55690429D01*
X66806470Y55667329D01*
X66795980Y55645151D01*
X66783367Y55624107D01*
X66768753Y55604402D01*
X66752277Y55586223D01*
X66734098Y55569747D01*
X66714393Y55555133D01*
X66693349Y55542520D01*
X66671171Y55532030D01*
X66648071Y55523765D01*
X66624273Y55517804D01*
X66600004Y55514204D01*
X66575500Y55513000D01*
X65650500Y55513000D01*
X65625996Y55514204D01*
X65601727Y55517804D01*
X65577929Y55523765D01*
X65554829Y55532030D01*
X65532651Y55542520D01*
X65511607Y55555133D01*
X65491902Y55569747D01*
X65473723Y55586223D01*
X65457247Y55604402D01*
X65442633Y55624107D01*
X65430020Y55645151D01*
X65419530Y55667329D01*
X65411265Y55690429D01*
X65405304Y55714227D01*
X65401704Y55738496D01*
X65400500Y55763000D01*
X65400500Y57013000D01*
X65401704Y57037504D01*
X65405304Y57061773D01*
X65411265Y57085571D01*
X65419530Y57108671D01*
X65430020Y57130849D01*
X65442633Y57151893D01*
X65457247Y57171598D01*
X65473723Y57189777D01*
X65491902Y57206253D01*
X65511607Y57220867D01*
X65532651Y57233480D01*
X65554829Y57243970D01*
X65577929Y57252235D01*
X65601727Y57258196D01*
X65625996Y57261796D01*
X65650500Y57263000D01*
X66575500Y57263000D01*
X66600004Y57261796D01*
X66600004Y57261796D01*
G37*
D15*
X66113000Y56388000D03*
D11*
G36*
X66600004Y54721796D02*
G01*
X66624273Y54718196D01*
X66648071Y54712235D01*
X66671171Y54703970D01*
X66693349Y54693480D01*
X66714393Y54680867D01*
X66734098Y54666253D01*
X66752277Y54649777D01*
X66768753Y54631598D01*
X66783367Y54611893D01*
X66795980Y54590849D01*
X66806470Y54568671D01*
X66814735Y54545571D01*
X66820696Y54521773D01*
X66824296Y54497504D01*
X66825500Y54473000D01*
X66825500Y53223000D01*
X66824296Y53198496D01*
X66820696Y53174227D01*
X66814735Y53150429D01*
X66806470Y53127329D01*
X66795980Y53105151D01*
X66783367Y53084107D01*
X66768753Y53064402D01*
X66752277Y53046223D01*
X66734098Y53029747D01*
X66714393Y53015133D01*
X66693349Y53002520D01*
X66671171Y52992030D01*
X66648071Y52983765D01*
X66624273Y52977804D01*
X66600004Y52974204D01*
X66575500Y52973000D01*
X65650500Y52973000D01*
X65625996Y52974204D01*
X65601727Y52977804D01*
X65577929Y52983765D01*
X65554829Y52992030D01*
X65532651Y53002520D01*
X65511607Y53015133D01*
X65491902Y53029747D01*
X65473723Y53046223D01*
X65457247Y53064402D01*
X65442633Y53084107D01*
X65430020Y53105151D01*
X65419530Y53127329D01*
X65411265Y53150429D01*
X65405304Y53174227D01*
X65401704Y53198496D01*
X65400500Y53223000D01*
X65400500Y54473000D01*
X65401704Y54497504D01*
X65405304Y54521773D01*
X65411265Y54545571D01*
X65419530Y54568671D01*
X65430020Y54590849D01*
X65442633Y54611893D01*
X65457247Y54631598D01*
X65473723Y54649777D01*
X65491902Y54666253D01*
X65511607Y54680867D01*
X65532651Y54693480D01*
X65554829Y54703970D01*
X65577929Y54712235D01*
X65601727Y54718196D01*
X65625996Y54721796D01*
X65650500Y54723000D01*
X66575500Y54723000D01*
X66600004Y54721796D01*
X66600004Y54721796D01*
G37*
D15*
X66113000Y53848000D03*
D11*
G36*
X69575004Y54721796D02*
G01*
X69599273Y54718196D01*
X69623071Y54712235D01*
X69646171Y54703970D01*
X69668349Y54693480D01*
X69689393Y54680867D01*
X69709098Y54666253D01*
X69727277Y54649777D01*
X69743753Y54631598D01*
X69758367Y54611893D01*
X69770980Y54590849D01*
X69781470Y54568671D01*
X69789735Y54545571D01*
X69795696Y54521773D01*
X69799296Y54497504D01*
X69800500Y54473000D01*
X69800500Y53223000D01*
X69799296Y53198496D01*
X69795696Y53174227D01*
X69789735Y53150429D01*
X69781470Y53127329D01*
X69770980Y53105151D01*
X69758367Y53084107D01*
X69743753Y53064402D01*
X69727277Y53046223D01*
X69709098Y53029747D01*
X69689393Y53015133D01*
X69668349Y53002520D01*
X69646171Y52992030D01*
X69623071Y52983765D01*
X69599273Y52977804D01*
X69575004Y52974204D01*
X69550500Y52973000D01*
X68625500Y52973000D01*
X68600996Y52974204D01*
X68576727Y52977804D01*
X68552929Y52983765D01*
X68529829Y52992030D01*
X68507651Y53002520D01*
X68486607Y53015133D01*
X68466902Y53029747D01*
X68448723Y53046223D01*
X68432247Y53064402D01*
X68417633Y53084107D01*
X68405020Y53105151D01*
X68394530Y53127329D01*
X68386265Y53150429D01*
X68380304Y53174227D01*
X68376704Y53198496D01*
X68375500Y53223000D01*
X68375500Y54473000D01*
X68376704Y54497504D01*
X68380304Y54521773D01*
X68386265Y54545571D01*
X68394530Y54568671D01*
X68405020Y54590849D01*
X68417633Y54611893D01*
X68432247Y54631598D01*
X68448723Y54649777D01*
X68466902Y54666253D01*
X68486607Y54680867D01*
X68507651Y54693480D01*
X68529829Y54703970D01*
X68552929Y54712235D01*
X68576727Y54718196D01*
X68600996Y54721796D01*
X68625500Y54723000D01*
X69550500Y54723000D01*
X69575004Y54721796D01*
X69575004Y54721796D01*
G37*
D15*
X69088000Y53848000D03*
D11*
G36*
X69575004Y51165796D02*
G01*
X69599273Y51162196D01*
X69623071Y51156235D01*
X69646171Y51147970D01*
X69668349Y51137480D01*
X69689393Y51124867D01*
X69709098Y51110253D01*
X69727277Y51093777D01*
X69743753Y51075598D01*
X69758367Y51055893D01*
X69770980Y51034849D01*
X69781470Y51012671D01*
X69789735Y50989571D01*
X69795696Y50965773D01*
X69799296Y50941504D01*
X69800500Y50917000D01*
X69800500Y49667000D01*
X69799296Y49642496D01*
X69795696Y49618227D01*
X69789735Y49594429D01*
X69781470Y49571329D01*
X69770980Y49549151D01*
X69758367Y49528107D01*
X69743753Y49508402D01*
X69727277Y49490223D01*
X69709098Y49473747D01*
X69689393Y49459133D01*
X69668349Y49446520D01*
X69646171Y49436030D01*
X69623071Y49427765D01*
X69599273Y49421804D01*
X69575004Y49418204D01*
X69550500Y49417000D01*
X68625500Y49417000D01*
X68600996Y49418204D01*
X68576727Y49421804D01*
X68552929Y49427765D01*
X68529829Y49436030D01*
X68507651Y49446520D01*
X68486607Y49459133D01*
X68466902Y49473747D01*
X68448723Y49490223D01*
X68432247Y49508402D01*
X68417633Y49528107D01*
X68405020Y49549151D01*
X68394530Y49571329D01*
X68386265Y49594429D01*
X68380304Y49618227D01*
X68376704Y49642496D01*
X68375500Y49667000D01*
X68375500Y50917000D01*
X68376704Y50941504D01*
X68380304Y50965773D01*
X68386265Y50989571D01*
X68394530Y51012671D01*
X68405020Y51034849D01*
X68417633Y51055893D01*
X68432247Y51075598D01*
X68448723Y51093777D01*
X68466902Y51110253D01*
X68486607Y51124867D01*
X68507651Y51137480D01*
X68529829Y51147970D01*
X68552929Y51156235D01*
X68576727Y51162196D01*
X68600996Y51165796D01*
X68625500Y51167000D01*
X69550500Y51167000D01*
X69575004Y51165796D01*
X69575004Y51165796D01*
G37*
D15*
X69088000Y50292000D03*
D11*
G36*
X66600004Y51165796D02*
G01*
X66624273Y51162196D01*
X66648071Y51156235D01*
X66671171Y51147970D01*
X66693349Y51137480D01*
X66714393Y51124867D01*
X66734098Y51110253D01*
X66752277Y51093777D01*
X66768753Y51075598D01*
X66783367Y51055893D01*
X66795980Y51034849D01*
X66806470Y51012671D01*
X66814735Y50989571D01*
X66820696Y50965773D01*
X66824296Y50941504D01*
X66825500Y50917000D01*
X66825500Y49667000D01*
X66824296Y49642496D01*
X66820696Y49618227D01*
X66814735Y49594429D01*
X66806470Y49571329D01*
X66795980Y49549151D01*
X66783367Y49528107D01*
X66768753Y49508402D01*
X66752277Y49490223D01*
X66734098Y49473747D01*
X66714393Y49459133D01*
X66693349Y49446520D01*
X66671171Y49436030D01*
X66648071Y49427765D01*
X66624273Y49421804D01*
X66600004Y49418204D01*
X66575500Y49417000D01*
X65650500Y49417000D01*
X65625996Y49418204D01*
X65601727Y49421804D01*
X65577929Y49427765D01*
X65554829Y49436030D01*
X65532651Y49446520D01*
X65511607Y49459133D01*
X65491902Y49473747D01*
X65473723Y49490223D01*
X65457247Y49508402D01*
X65442633Y49528107D01*
X65430020Y49549151D01*
X65419530Y49571329D01*
X65411265Y49594429D01*
X65405304Y49618227D01*
X65401704Y49642496D01*
X65400500Y49667000D01*
X65400500Y50917000D01*
X65401704Y50941504D01*
X65405304Y50965773D01*
X65411265Y50989571D01*
X65419530Y51012671D01*
X65430020Y51034849D01*
X65442633Y51055893D01*
X65457247Y51075598D01*
X65473723Y51093777D01*
X65491902Y51110253D01*
X65511607Y51124867D01*
X65532651Y51137480D01*
X65554829Y51147970D01*
X65577929Y51156235D01*
X65601727Y51162196D01*
X65625996Y51165796D01*
X65650500Y51167000D01*
X66575500Y51167000D01*
X66600004Y51165796D01*
X66600004Y51165796D01*
G37*
D15*
X66113000Y50292000D03*
D11*
G36*
X69538504Y48117796D02*
G01*
X69562773Y48114196D01*
X69586571Y48108235D01*
X69609671Y48099970D01*
X69631849Y48089480D01*
X69652893Y48076867D01*
X69672598Y48062253D01*
X69690777Y48045777D01*
X69707253Y48027598D01*
X69721867Y48007893D01*
X69734480Y47986849D01*
X69744970Y47964671D01*
X69753235Y47941571D01*
X69759196Y47917773D01*
X69762796Y47893504D01*
X69764000Y47869000D01*
X69764000Y46619000D01*
X69762796Y46594496D01*
X69759196Y46570227D01*
X69753235Y46546429D01*
X69744970Y46523329D01*
X69734480Y46501151D01*
X69721867Y46480107D01*
X69707253Y46460402D01*
X69690777Y46442223D01*
X69672598Y46425747D01*
X69652893Y46411133D01*
X69631849Y46398520D01*
X69609671Y46388030D01*
X69586571Y46379765D01*
X69562773Y46373804D01*
X69538504Y46370204D01*
X69514000Y46369000D01*
X68589000Y46369000D01*
X68564496Y46370204D01*
X68540227Y46373804D01*
X68516429Y46379765D01*
X68493329Y46388030D01*
X68471151Y46398520D01*
X68450107Y46411133D01*
X68430402Y46425747D01*
X68412223Y46442223D01*
X68395747Y46460402D01*
X68381133Y46480107D01*
X68368520Y46501151D01*
X68358030Y46523329D01*
X68349765Y46546429D01*
X68343804Y46570227D01*
X68340204Y46594496D01*
X68339000Y46619000D01*
X68339000Y47869000D01*
X68340204Y47893504D01*
X68343804Y47917773D01*
X68349765Y47941571D01*
X68358030Y47964671D01*
X68368520Y47986849D01*
X68381133Y48007893D01*
X68395747Y48027598D01*
X68412223Y48045777D01*
X68430402Y48062253D01*
X68450107Y48076867D01*
X68471151Y48089480D01*
X68493329Y48099970D01*
X68516429Y48108235D01*
X68540227Y48114196D01*
X68564496Y48117796D01*
X68589000Y48119000D01*
X69514000Y48119000D01*
X69538504Y48117796D01*
X69538504Y48117796D01*
G37*
D15*
X69051500Y47244000D03*
D11*
G36*
X66563504Y48117796D02*
G01*
X66587773Y48114196D01*
X66611571Y48108235D01*
X66634671Y48099970D01*
X66656849Y48089480D01*
X66677893Y48076867D01*
X66697598Y48062253D01*
X66715777Y48045777D01*
X66732253Y48027598D01*
X66746867Y48007893D01*
X66759480Y47986849D01*
X66769970Y47964671D01*
X66778235Y47941571D01*
X66784196Y47917773D01*
X66787796Y47893504D01*
X66789000Y47869000D01*
X66789000Y46619000D01*
X66787796Y46594496D01*
X66784196Y46570227D01*
X66778235Y46546429D01*
X66769970Y46523329D01*
X66759480Y46501151D01*
X66746867Y46480107D01*
X66732253Y46460402D01*
X66715777Y46442223D01*
X66697598Y46425747D01*
X66677893Y46411133D01*
X66656849Y46398520D01*
X66634671Y46388030D01*
X66611571Y46379765D01*
X66587773Y46373804D01*
X66563504Y46370204D01*
X66539000Y46369000D01*
X65614000Y46369000D01*
X65589496Y46370204D01*
X65565227Y46373804D01*
X65541429Y46379765D01*
X65518329Y46388030D01*
X65496151Y46398520D01*
X65475107Y46411133D01*
X65455402Y46425747D01*
X65437223Y46442223D01*
X65420747Y46460402D01*
X65406133Y46480107D01*
X65393520Y46501151D01*
X65383030Y46523329D01*
X65374765Y46546429D01*
X65368804Y46570227D01*
X65365204Y46594496D01*
X65364000Y46619000D01*
X65364000Y47869000D01*
X65365204Y47893504D01*
X65368804Y47917773D01*
X65374765Y47941571D01*
X65383030Y47964671D01*
X65393520Y47986849D01*
X65406133Y48007893D01*
X65420747Y48027598D01*
X65437223Y48045777D01*
X65455402Y48062253D01*
X65475107Y48076867D01*
X65496151Y48089480D01*
X65518329Y48099970D01*
X65541429Y48108235D01*
X65565227Y48114196D01*
X65589496Y48117796D01*
X65614000Y48119000D01*
X66539000Y48119000D01*
X66563504Y48117796D01*
X66563504Y48117796D01*
G37*
D15*
X66076500Y47244000D03*
D11*
G36*
X41127004Y61325796D02*
G01*
X41151273Y61322196D01*
X41175071Y61316235D01*
X41198171Y61307970D01*
X41220349Y61297480D01*
X41241393Y61284867D01*
X41261098Y61270253D01*
X41279277Y61253777D01*
X41295753Y61235598D01*
X41310367Y61215893D01*
X41322980Y61194849D01*
X41333470Y61172671D01*
X41341735Y61149571D01*
X41347696Y61125773D01*
X41351296Y61101504D01*
X41352500Y61077000D01*
X41352500Y59827000D01*
X41351296Y59802496D01*
X41347696Y59778227D01*
X41341735Y59754429D01*
X41333470Y59731329D01*
X41322980Y59709151D01*
X41310367Y59688107D01*
X41295753Y59668402D01*
X41279277Y59650223D01*
X41261098Y59633747D01*
X41241393Y59619133D01*
X41220349Y59606520D01*
X41198171Y59596030D01*
X41175071Y59587765D01*
X41151273Y59581804D01*
X41127004Y59578204D01*
X41102500Y59577000D01*
X40177500Y59577000D01*
X40152996Y59578204D01*
X40128727Y59581804D01*
X40104929Y59587765D01*
X40081829Y59596030D01*
X40059651Y59606520D01*
X40038607Y59619133D01*
X40018902Y59633747D01*
X40000723Y59650223D01*
X39984247Y59668402D01*
X39969633Y59688107D01*
X39957020Y59709151D01*
X39946530Y59731329D01*
X39938265Y59754429D01*
X39932304Y59778227D01*
X39928704Y59802496D01*
X39927500Y59827000D01*
X39927500Y61077000D01*
X39928704Y61101504D01*
X39932304Y61125773D01*
X39938265Y61149571D01*
X39946530Y61172671D01*
X39957020Y61194849D01*
X39969633Y61215893D01*
X39984247Y61235598D01*
X40000723Y61253777D01*
X40018902Y61270253D01*
X40038607Y61284867D01*
X40059651Y61297480D01*
X40081829Y61307970D01*
X40104929Y61316235D01*
X40128727Y61322196D01*
X40152996Y61325796D01*
X40177500Y61327000D01*
X41102500Y61327000D01*
X41127004Y61325796D01*
X41127004Y61325796D01*
G37*
D15*
X40640000Y60452000D03*
D11*
G36*
X38152004Y61325796D02*
G01*
X38176273Y61322196D01*
X38200071Y61316235D01*
X38223171Y61307970D01*
X38245349Y61297480D01*
X38266393Y61284867D01*
X38286098Y61270253D01*
X38304277Y61253777D01*
X38320753Y61235598D01*
X38335367Y61215893D01*
X38347980Y61194849D01*
X38358470Y61172671D01*
X38366735Y61149571D01*
X38372696Y61125773D01*
X38376296Y61101504D01*
X38377500Y61077000D01*
X38377500Y59827000D01*
X38376296Y59802496D01*
X38372696Y59778227D01*
X38366735Y59754429D01*
X38358470Y59731329D01*
X38347980Y59709151D01*
X38335367Y59688107D01*
X38320753Y59668402D01*
X38304277Y59650223D01*
X38286098Y59633747D01*
X38266393Y59619133D01*
X38245349Y59606520D01*
X38223171Y59596030D01*
X38200071Y59587765D01*
X38176273Y59581804D01*
X38152004Y59578204D01*
X38127500Y59577000D01*
X37202500Y59577000D01*
X37177996Y59578204D01*
X37153727Y59581804D01*
X37129929Y59587765D01*
X37106829Y59596030D01*
X37084651Y59606520D01*
X37063607Y59619133D01*
X37043902Y59633747D01*
X37025723Y59650223D01*
X37009247Y59668402D01*
X36994633Y59688107D01*
X36982020Y59709151D01*
X36971530Y59731329D01*
X36963265Y59754429D01*
X36957304Y59778227D01*
X36953704Y59802496D01*
X36952500Y59827000D01*
X36952500Y61077000D01*
X36953704Y61101504D01*
X36957304Y61125773D01*
X36963265Y61149571D01*
X36971530Y61172671D01*
X36982020Y61194849D01*
X36994633Y61215893D01*
X37009247Y61235598D01*
X37025723Y61253777D01*
X37043902Y61270253D01*
X37063607Y61284867D01*
X37084651Y61297480D01*
X37106829Y61307970D01*
X37129929Y61316235D01*
X37153727Y61322196D01*
X37177996Y61325796D01*
X37202500Y61327000D01*
X38127500Y61327000D01*
X38152004Y61325796D01*
X38152004Y61325796D01*
G37*
D15*
X37665000Y60452000D03*
D11*
G36*
X29951004Y61325796D02*
G01*
X29975273Y61322196D01*
X29999071Y61316235D01*
X30022171Y61307970D01*
X30044349Y61297480D01*
X30065393Y61284867D01*
X30085098Y61270253D01*
X30103277Y61253777D01*
X30119753Y61235598D01*
X30134367Y61215893D01*
X30146980Y61194849D01*
X30157470Y61172671D01*
X30165735Y61149571D01*
X30171696Y61125773D01*
X30175296Y61101504D01*
X30176500Y61077000D01*
X30176500Y59827000D01*
X30175296Y59802496D01*
X30171696Y59778227D01*
X30165735Y59754429D01*
X30157470Y59731329D01*
X30146980Y59709151D01*
X30134367Y59688107D01*
X30119753Y59668402D01*
X30103277Y59650223D01*
X30085098Y59633747D01*
X30065393Y59619133D01*
X30044349Y59606520D01*
X30022171Y59596030D01*
X29999071Y59587765D01*
X29975273Y59581804D01*
X29951004Y59578204D01*
X29926500Y59577000D01*
X29001500Y59577000D01*
X28976996Y59578204D01*
X28952727Y59581804D01*
X28928929Y59587765D01*
X28905829Y59596030D01*
X28883651Y59606520D01*
X28862607Y59619133D01*
X28842902Y59633747D01*
X28824723Y59650223D01*
X28808247Y59668402D01*
X28793633Y59688107D01*
X28781020Y59709151D01*
X28770530Y59731329D01*
X28762265Y59754429D01*
X28756304Y59778227D01*
X28752704Y59802496D01*
X28751500Y59827000D01*
X28751500Y61077000D01*
X28752704Y61101504D01*
X28756304Y61125773D01*
X28762265Y61149571D01*
X28770530Y61172671D01*
X28781020Y61194849D01*
X28793633Y61215893D01*
X28808247Y61235598D01*
X28824723Y61253777D01*
X28842902Y61270253D01*
X28862607Y61284867D01*
X28883651Y61297480D01*
X28905829Y61307970D01*
X28928929Y61316235D01*
X28952727Y61322196D01*
X28976996Y61325796D01*
X29001500Y61327000D01*
X29926500Y61327000D01*
X29951004Y61325796D01*
X29951004Y61325796D01*
G37*
D15*
X29464000Y60452000D03*
D11*
G36*
X26976004Y61325796D02*
G01*
X27000273Y61322196D01*
X27024071Y61316235D01*
X27047171Y61307970D01*
X27069349Y61297480D01*
X27090393Y61284867D01*
X27110098Y61270253D01*
X27128277Y61253777D01*
X27144753Y61235598D01*
X27159367Y61215893D01*
X27171980Y61194849D01*
X27182470Y61172671D01*
X27190735Y61149571D01*
X27196696Y61125773D01*
X27200296Y61101504D01*
X27201500Y61077000D01*
X27201500Y59827000D01*
X27200296Y59802496D01*
X27196696Y59778227D01*
X27190735Y59754429D01*
X27182470Y59731329D01*
X27171980Y59709151D01*
X27159367Y59688107D01*
X27144753Y59668402D01*
X27128277Y59650223D01*
X27110098Y59633747D01*
X27090393Y59619133D01*
X27069349Y59606520D01*
X27047171Y59596030D01*
X27024071Y59587765D01*
X27000273Y59581804D01*
X26976004Y59578204D01*
X26951500Y59577000D01*
X26026500Y59577000D01*
X26001996Y59578204D01*
X25977727Y59581804D01*
X25953929Y59587765D01*
X25930829Y59596030D01*
X25908651Y59606520D01*
X25887607Y59619133D01*
X25867902Y59633747D01*
X25849723Y59650223D01*
X25833247Y59668402D01*
X25818633Y59688107D01*
X25806020Y59709151D01*
X25795530Y59731329D01*
X25787265Y59754429D01*
X25781304Y59778227D01*
X25777704Y59802496D01*
X25776500Y59827000D01*
X25776500Y61077000D01*
X25777704Y61101504D01*
X25781304Y61125773D01*
X25787265Y61149571D01*
X25795530Y61172671D01*
X25806020Y61194849D01*
X25818633Y61215893D01*
X25833247Y61235598D01*
X25849723Y61253777D01*
X25867902Y61270253D01*
X25887607Y61284867D01*
X25908651Y61297480D01*
X25930829Y61307970D01*
X25953929Y61316235D01*
X25977727Y61322196D01*
X26001996Y61325796D01*
X26026500Y61327000D01*
X26951500Y61327000D01*
X26976004Y61325796D01*
X26976004Y61325796D01*
G37*
D15*
X26489000Y60452000D03*
D11*
G36*
X18738504Y61325796D02*
G01*
X18762773Y61322196D01*
X18786571Y61316235D01*
X18809671Y61307970D01*
X18831849Y61297480D01*
X18852893Y61284867D01*
X18872598Y61270253D01*
X18890777Y61253777D01*
X18907253Y61235598D01*
X18921867Y61215893D01*
X18934480Y61194849D01*
X18944970Y61172671D01*
X18953235Y61149571D01*
X18959196Y61125773D01*
X18962796Y61101504D01*
X18964000Y61077000D01*
X18964000Y59827000D01*
X18962796Y59802496D01*
X18959196Y59778227D01*
X18953235Y59754429D01*
X18944970Y59731329D01*
X18934480Y59709151D01*
X18921867Y59688107D01*
X18907253Y59668402D01*
X18890777Y59650223D01*
X18872598Y59633747D01*
X18852893Y59619133D01*
X18831849Y59606520D01*
X18809671Y59596030D01*
X18786571Y59587765D01*
X18762773Y59581804D01*
X18738504Y59578204D01*
X18714000Y59577000D01*
X17789000Y59577000D01*
X17764496Y59578204D01*
X17740227Y59581804D01*
X17716429Y59587765D01*
X17693329Y59596030D01*
X17671151Y59606520D01*
X17650107Y59619133D01*
X17630402Y59633747D01*
X17612223Y59650223D01*
X17595747Y59668402D01*
X17581133Y59688107D01*
X17568520Y59709151D01*
X17558030Y59731329D01*
X17549765Y59754429D01*
X17543804Y59778227D01*
X17540204Y59802496D01*
X17539000Y59827000D01*
X17539000Y61077000D01*
X17540204Y61101504D01*
X17543804Y61125773D01*
X17549765Y61149571D01*
X17558030Y61172671D01*
X17568520Y61194849D01*
X17581133Y61215893D01*
X17595747Y61235598D01*
X17612223Y61253777D01*
X17630402Y61270253D01*
X17650107Y61284867D01*
X17671151Y61297480D01*
X17693329Y61307970D01*
X17716429Y61316235D01*
X17740227Y61322196D01*
X17764496Y61325796D01*
X17789000Y61327000D01*
X18714000Y61327000D01*
X18738504Y61325796D01*
X18738504Y61325796D01*
G37*
D15*
X18251500Y60452000D03*
D11*
G36*
X15763504Y61325796D02*
G01*
X15787773Y61322196D01*
X15811571Y61316235D01*
X15834671Y61307970D01*
X15856849Y61297480D01*
X15877893Y61284867D01*
X15897598Y61270253D01*
X15915777Y61253777D01*
X15932253Y61235598D01*
X15946867Y61215893D01*
X15959480Y61194849D01*
X15969970Y61172671D01*
X15978235Y61149571D01*
X15984196Y61125773D01*
X15987796Y61101504D01*
X15989000Y61077000D01*
X15989000Y59827000D01*
X15987796Y59802496D01*
X15984196Y59778227D01*
X15978235Y59754429D01*
X15969970Y59731329D01*
X15959480Y59709151D01*
X15946867Y59688107D01*
X15932253Y59668402D01*
X15915777Y59650223D01*
X15897598Y59633747D01*
X15877893Y59619133D01*
X15856849Y59606520D01*
X15834671Y59596030D01*
X15811571Y59587765D01*
X15787773Y59581804D01*
X15763504Y59578204D01*
X15739000Y59577000D01*
X14814000Y59577000D01*
X14789496Y59578204D01*
X14765227Y59581804D01*
X14741429Y59587765D01*
X14718329Y59596030D01*
X14696151Y59606520D01*
X14675107Y59619133D01*
X14655402Y59633747D01*
X14637223Y59650223D01*
X14620747Y59668402D01*
X14606133Y59688107D01*
X14593520Y59709151D01*
X14583030Y59731329D01*
X14574765Y59754429D01*
X14568804Y59778227D01*
X14565204Y59802496D01*
X14564000Y59827000D01*
X14564000Y61077000D01*
X14565204Y61101504D01*
X14568804Y61125773D01*
X14574765Y61149571D01*
X14583030Y61172671D01*
X14593520Y61194849D01*
X14606133Y61215893D01*
X14620747Y61235598D01*
X14637223Y61253777D01*
X14655402Y61270253D01*
X14675107Y61284867D01*
X14696151Y61297480D01*
X14718329Y61307970D01*
X14741429Y61316235D01*
X14765227Y61322196D01*
X14789496Y61325796D01*
X14814000Y61327000D01*
X15739000Y61327000D01*
X15763504Y61325796D01*
X15763504Y61325796D01*
G37*
D15*
X15276500Y60452000D03*
D11*
G36*
X21823004Y17129796D02*
G01*
X21847273Y17126196D01*
X21871071Y17120235D01*
X21894171Y17111970D01*
X21916349Y17101480D01*
X21937393Y17088867D01*
X21957098Y17074253D01*
X21975277Y17057777D01*
X21991753Y17039598D01*
X22006367Y17019893D01*
X22018980Y16998849D01*
X22029470Y16976671D01*
X22037735Y16953571D01*
X22043696Y16929773D01*
X22047296Y16905504D01*
X22048500Y16881000D01*
X22048500Y15631000D01*
X22047296Y15606496D01*
X22043696Y15582227D01*
X22037735Y15558429D01*
X22029470Y15535329D01*
X22018980Y15513151D01*
X22006367Y15492107D01*
X21991753Y15472402D01*
X21975277Y15454223D01*
X21957098Y15437747D01*
X21937393Y15423133D01*
X21916349Y15410520D01*
X21894171Y15400030D01*
X21871071Y15391765D01*
X21847273Y15385804D01*
X21823004Y15382204D01*
X21798500Y15381000D01*
X20873500Y15381000D01*
X20848996Y15382204D01*
X20824727Y15385804D01*
X20800929Y15391765D01*
X20777829Y15400030D01*
X20755651Y15410520D01*
X20734607Y15423133D01*
X20714902Y15437747D01*
X20696723Y15454223D01*
X20680247Y15472402D01*
X20665633Y15492107D01*
X20653020Y15513151D01*
X20642530Y15535329D01*
X20634265Y15558429D01*
X20628304Y15582227D01*
X20624704Y15606496D01*
X20623500Y15631000D01*
X20623500Y16881000D01*
X20624704Y16905504D01*
X20628304Y16929773D01*
X20634265Y16953571D01*
X20642530Y16976671D01*
X20653020Y16998849D01*
X20665633Y17019893D01*
X20680247Y17039598D01*
X20696723Y17057777D01*
X20714902Y17074253D01*
X20734607Y17088867D01*
X20755651Y17101480D01*
X20777829Y17111970D01*
X20800929Y17120235D01*
X20824727Y17126196D01*
X20848996Y17129796D01*
X20873500Y17131000D01*
X21798500Y17131000D01*
X21823004Y17129796D01*
X21823004Y17129796D01*
G37*
D15*
X21336000Y16256000D03*
D11*
G36*
X18848004Y17129796D02*
G01*
X18872273Y17126196D01*
X18896071Y17120235D01*
X18919171Y17111970D01*
X18941349Y17101480D01*
X18962393Y17088867D01*
X18982098Y17074253D01*
X19000277Y17057777D01*
X19016753Y17039598D01*
X19031367Y17019893D01*
X19043980Y16998849D01*
X19054470Y16976671D01*
X19062735Y16953571D01*
X19068696Y16929773D01*
X19072296Y16905504D01*
X19073500Y16881000D01*
X19073500Y15631000D01*
X19072296Y15606496D01*
X19068696Y15582227D01*
X19062735Y15558429D01*
X19054470Y15535329D01*
X19043980Y15513151D01*
X19031367Y15492107D01*
X19016753Y15472402D01*
X19000277Y15454223D01*
X18982098Y15437747D01*
X18962393Y15423133D01*
X18941349Y15410520D01*
X18919171Y15400030D01*
X18896071Y15391765D01*
X18872273Y15385804D01*
X18848004Y15382204D01*
X18823500Y15381000D01*
X17898500Y15381000D01*
X17873996Y15382204D01*
X17849727Y15385804D01*
X17825929Y15391765D01*
X17802829Y15400030D01*
X17780651Y15410520D01*
X17759607Y15423133D01*
X17739902Y15437747D01*
X17721723Y15454223D01*
X17705247Y15472402D01*
X17690633Y15492107D01*
X17678020Y15513151D01*
X17667530Y15535329D01*
X17659265Y15558429D01*
X17653304Y15582227D01*
X17649704Y15606496D01*
X17648500Y15631000D01*
X17648500Y16881000D01*
X17649704Y16905504D01*
X17653304Y16929773D01*
X17659265Y16953571D01*
X17667530Y16976671D01*
X17678020Y16998849D01*
X17690633Y17019893D01*
X17705247Y17039598D01*
X17721723Y17057777D01*
X17739902Y17074253D01*
X17759607Y17088867D01*
X17780651Y17101480D01*
X17802829Y17111970D01*
X17825929Y17120235D01*
X17849727Y17126196D01*
X17873996Y17129796D01*
X17898500Y17131000D01*
X18823500Y17131000D01*
X18848004Y17129796D01*
X18848004Y17129796D01*
G37*
D15*
X18361000Y16256000D03*
D11*
G36*
X21823004Y19669796D02*
G01*
X21847273Y19666196D01*
X21871071Y19660235D01*
X21894171Y19651970D01*
X21916349Y19641480D01*
X21937393Y19628867D01*
X21957098Y19614253D01*
X21975277Y19597777D01*
X21991753Y19579598D01*
X22006367Y19559893D01*
X22018980Y19538849D01*
X22029470Y19516671D01*
X22037735Y19493571D01*
X22043696Y19469773D01*
X22047296Y19445504D01*
X22048500Y19421000D01*
X22048500Y18171000D01*
X22047296Y18146496D01*
X22043696Y18122227D01*
X22037735Y18098429D01*
X22029470Y18075329D01*
X22018980Y18053151D01*
X22006367Y18032107D01*
X21991753Y18012402D01*
X21975277Y17994223D01*
X21957098Y17977747D01*
X21937393Y17963133D01*
X21916349Y17950520D01*
X21894171Y17940030D01*
X21871071Y17931765D01*
X21847273Y17925804D01*
X21823004Y17922204D01*
X21798500Y17921000D01*
X20873500Y17921000D01*
X20848996Y17922204D01*
X20824727Y17925804D01*
X20800929Y17931765D01*
X20777829Y17940030D01*
X20755651Y17950520D01*
X20734607Y17963133D01*
X20714902Y17977747D01*
X20696723Y17994223D01*
X20680247Y18012402D01*
X20665633Y18032107D01*
X20653020Y18053151D01*
X20642530Y18075329D01*
X20634265Y18098429D01*
X20628304Y18122227D01*
X20624704Y18146496D01*
X20623500Y18171000D01*
X20623500Y19421000D01*
X20624704Y19445504D01*
X20628304Y19469773D01*
X20634265Y19493571D01*
X20642530Y19516671D01*
X20653020Y19538849D01*
X20665633Y19559893D01*
X20680247Y19579598D01*
X20696723Y19597777D01*
X20714902Y19614253D01*
X20734607Y19628867D01*
X20755651Y19641480D01*
X20777829Y19651970D01*
X20800929Y19660235D01*
X20824727Y19666196D01*
X20848996Y19669796D01*
X20873500Y19671000D01*
X21798500Y19671000D01*
X21823004Y19669796D01*
X21823004Y19669796D01*
G37*
D15*
X21336000Y18796000D03*
D11*
G36*
X18848004Y19669796D02*
G01*
X18872273Y19666196D01*
X18896071Y19660235D01*
X18919171Y19651970D01*
X18941349Y19641480D01*
X18962393Y19628867D01*
X18982098Y19614253D01*
X19000277Y19597777D01*
X19016753Y19579598D01*
X19031367Y19559893D01*
X19043980Y19538849D01*
X19054470Y19516671D01*
X19062735Y19493571D01*
X19068696Y19469773D01*
X19072296Y19445504D01*
X19073500Y19421000D01*
X19073500Y18171000D01*
X19072296Y18146496D01*
X19068696Y18122227D01*
X19062735Y18098429D01*
X19054470Y18075329D01*
X19043980Y18053151D01*
X19031367Y18032107D01*
X19016753Y18012402D01*
X19000277Y17994223D01*
X18982098Y17977747D01*
X18962393Y17963133D01*
X18941349Y17950520D01*
X18919171Y17940030D01*
X18896071Y17931765D01*
X18872273Y17925804D01*
X18848004Y17922204D01*
X18823500Y17921000D01*
X17898500Y17921000D01*
X17873996Y17922204D01*
X17849727Y17925804D01*
X17825929Y17931765D01*
X17802829Y17940030D01*
X17780651Y17950520D01*
X17759607Y17963133D01*
X17739902Y17977747D01*
X17721723Y17994223D01*
X17705247Y18012402D01*
X17690633Y18032107D01*
X17678020Y18053151D01*
X17667530Y18075329D01*
X17659265Y18098429D01*
X17653304Y18122227D01*
X17649704Y18146496D01*
X17648500Y18171000D01*
X17648500Y19421000D01*
X17649704Y19445504D01*
X17653304Y19469773D01*
X17659265Y19493571D01*
X17667530Y19516671D01*
X17678020Y19538849D01*
X17690633Y19559893D01*
X17705247Y19579598D01*
X17721723Y19597777D01*
X17739902Y19614253D01*
X17759607Y19628867D01*
X17780651Y19641480D01*
X17802829Y19651970D01*
X17825929Y19660235D01*
X17849727Y19666196D01*
X17873996Y19669796D01*
X17898500Y19671000D01*
X18823500Y19671000D01*
X18848004Y19669796D01*
X18848004Y19669796D01*
G37*
D15*
X18361000Y18796000D03*
D11*
G36*
X21823004Y22209796D02*
G01*
X21847273Y22206196D01*
X21871071Y22200235D01*
X21894171Y22191970D01*
X21916349Y22181480D01*
X21937393Y22168867D01*
X21957098Y22154253D01*
X21975277Y22137777D01*
X21991753Y22119598D01*
X22006367Y22099893D01*
X22018980Y22078849D01*
X22029470Y22056671D01*
X22037735Y22033571D01*
X22043696Y22009773D01*
X22047296Y21985504D01*
X22048500Y21961000D01*
X22048500Y20711000D01*
X22047296Y20686496D01*
X22043696Y20662227D01*
X22037735Y20638429D01*
X22029470Y20615329D01*
X22018980Y20593151D01*
X22006367Y20572107D01*
X21991753Y20552402D01*
X21975277Y20534223D01*
X21957098Y20517747D01*
X21937393Y20503133D01*
X21916349Y20490520D01*
X21894171Y20480030D01*
X21871071Y20471765D01*
X21847273Y20465804D01*
X21823004Y20462204D01*
X21798500Y20461000D01*
X20873500Y20461000D01*
X20848996Y20462204D01*
X20824727Y20465804D01*
X20800929Y20471765D01*
X20777829Y20480030D01*
X20755651Y20490520D01*
X20734607Y20503133D01*
X20714902Y20517747D01*
X20696723Y20534223D01*
X20680247Y20552402D01*
X20665633Y20572107D01*
X20653020Y20593151D01*
X20642530Y20615329D01*
X20634265Y20638429D01*
X20628304Y20662227D01*
X20624704Y20686496D01*
X20623500Y20711000D01*
X20623500Y21961000D01*
X20624704Y21985504D01*
X20628304Y22009773D01*
X20634265Y22033571D01*
X20642530Y22056671D01*
X20653020Y22078849D01*
X20665633Y22099893D01*
X20680247Y22119598D01*
X20696723Y22137777D01*
X20714902Y22154253D01*
X20734607Y22168867D01*
X20755651Y22181480D01*
X20777829Y22191970D01*
X20800929Y22200235D01*
X20824727Y22206196D01*
X20848996Y22209796D01*
X20873500Y22211000D01*
X21798500Y22211000D01*
X21823004Y22209796D01*
X21823004Y22209796D01*
G37*
D15*
X21336000Y21336000D03*
D11*
G36*
X18848004Y22209796D02*
G01*
X18872273Y22206196D01*
X18896071Y22200235D01*
X18919171Y22191970D01*
X18941349Y22181480D01*
X18962393Y22168867D01*
X18982098Y22154253D01*
X19000277Y22137777D01*
X19016753Y22119598D01*
X19031367Y22099893D01*
X19043980Y22078849D01*
X19054470Y22056671D01*
X19062735Y22033571D01*
X19068696Y22009773D01*
X19072296Y21985504D01*
X19073500Y21961000D01*
X19073500Y20711000D01*
X19072296Y20686496D01*
X19068696Y20662227D01*
X19062735Y20638429D01*
X19054470Y20615329D01*
X19043980Y20593151D01*
X19031367Y20572107D01*
X19016753Y20552402D01*
X19000277Y20534223D01*
X18982098Y20517747D01*
X18962393Y20503133D01*
X18941349Y20490520D01*
X18919171Y20480030D01*
X18896071Y20471765D01*
X18872273Y20465804D01*
X18848004Y20462204D01*
X18823500Y20461000D01*
X17898500Y20461000D01*
X17873996Y20462204D01*
X17849727Y20465804D01*
X17825929Y20471765D01*
X17802829Y20480030D01*
X17780651Y20490520D01*
X17759607Y20503133D01*
X17739902Y20517747D01*
X17721723Y20534223D01*
X17705247Y20552402D01*
X17690633Y20572107D01*
X17678020Y20593151D01*
X17667530Y20615329D01*
X17659265Y20638429D01*
X17653304Y20662227D01*
X17649704Y20686496D01*
X17648500Y20711000D01*
X17648500Y21961000D01*
X17649704Y21985504D01*
X17653304Y22009773D01*
X17659265Y22033571D01*
X17667530Y22056671D01*
X17678020Y22078849D01*
X17690633Y22099893D01*
X17705247Y22119598D01*
X17721723Y22137777D01*
X17739902Y22154253D01*
X17759607Y22168867D01*
X17780651Y22181480D01*
X17802829Y22191970D01*
X17825929Y22200235D01*
X17849727Y22206196D01*
X17873996Y22209796D01*
X17898500Y22211000D01*
X18823500Y22211000D01*
X18848004Y22209796D01*
X18848004Y22209796D01*
G37*
D15*
X18361000Y21336000D03*
D11*
G36*
X16198504Y17129796D02*
G01*
X16222773Y17126196D01*
X16246571Y17120235D01*
X16269671Y17111970D01*
X16291849Y17101480D01*
X16312893Y17088867D01*
X16332598Y17074253D01*
X16350777Y17057777D01*
X16367253Y17039598D01*
X16381867Y17019893D01*
X16394480Y16998849D01*
X16404970Y16976671D01*
X16413235Y16953571D01*
X16419196Y16929773D01*
X16422796Y16905504D01*
X16424000Y16881000D01*
X16424000Y15631000D01*
X16422796Y15606496D01*
X16419196Y15582227D01*
X16413235Y15558429D01*
X16404970Y15535329D01*
X16394480Y15513151D01*
X16381867Y15492107D01*
X16367253Y15472402D01*
X16350777Y15454223D01*
X16332598Y15437747D01*
X16312893Y15423133D01*
X16291849Y15410520D01*
X16269671Y15400030D01*
X16246571Y15391765D01*
X16222773Y15385804D01*
X16198504Y15382204D01*
X16174000Y15381000D01*
X15249000Y15381000D01*
X15224496Y15382204D01*
X15200227Y15385804D01*
X15176429Y15391765D01*
X15153329Y15400030D01*
X15131151Y15410520D01*
X15110107Y15423133D01*
X15090402Y15437747D01*
X15072223Y15454223D01*
X15055747Y15472402D01*
X15041133Y15492107D01*
X15028520Y15513151D01*
X15018030Y15535329D01*
X15009765Y15558429D01*
X15003804Y15582227D01*
X15000204Y15606496D01*
X14999000Y15631000D01*
X14999000Y16881000D01*
X15000204Y16905504D01*
X15003804Y16929773D01*
X15009765Y16953571D01*
X15018030Y16976671D01*
X15028520Y16998849D01*
X15041133Y17019893D01*
X15055747Y17039598D01*
X15072223Y17057777D01*
X15090402Y17074253D01*
X15110107Y17088867D01*
X15131151Y17101480D01*
X15153329Y17111970D01*
X15176429Y17120235D01*
X15200227Y17126196D01*
X15224496Y17129796D01*
X15249000Y17131000D01*
X16174000Y17131000D01*
X16198504Y17129796D01*
X16198504Y17129796D01*
G37*
D15*
X15711500Y16256000D03*
D11*
G36*
X13223504Y17129796D02*
G01*
X13247773Y17126196D01*
X13271571Y17120235D01*
X13294671Y17111970D01*
X13316849Y17101480D01*
X13337893Y17088867D01*
X13357598Y17074253D01*
X13375777Y17057777D01*
X13392253Y17039598D01*
X13406867Y17019893D01*
X13419480Y16998849D01*
X13429970Y16976671D01*
X13438235Y16953571D01*
X13444196Y16929773D01*
X13447796Y16905504D01*
X13449000Y16881000D01*
X13449000Y15631000D01*
X13447796Y15606496D01*
X13444196Y15582227D01*
X13438235Y15558429D01*
X13429970Y15535329D01*
X13419480Y15513151D01*
X13406867Y15492107D01*
X13392253Y15472402D01*
X13375777Y15454223D01*
X13357598Y15437747D01*
X13337893Y15423133D01*
X13316849Y15410520D01*
X13294671Y15400030D01*
X13271571Y15391765D01*
X13247773Y15385804D01*
X13223504Y15382204D01*
X13199000Y15381000D01*
X12274000Y15381000D01*
X12249496Y15382204D01*
X12225227Y15385804D01*
X12201429Y15391765D01*
X12178329Y15400030D01*
X12156151Y15410520D01*
X12135107Y15423133D01*
X12115402Y15437747D01*
X12097223Y15454223D01*
X12080747Y15472402D01*
X12066133Y15492107D01*
X12053520Y15513151D01*
X12043030Y15535329D01*
X12034765Y15558429D01*
X12028804Y15582227D01*
X12025204Y15606496D01*
X12024000Y15631000D01*
X12024000Y16881000D01*
X12025204Y16905504D01*
X12028804Y16929773D01*
X12034765Y16953571D01*
X12043030Y16976671D01*
X12053520Y16998849D01*
X12066133Y17019893D01*
X12080747Y17039598D01*
X12097223Y17057777D01*
X12115402Y17074253D01*
X12135107Y17088867D01*
X12156151Y17101480D01*
X12178329Y17111970D01*
X12201429Y17120235D01*
X12225227Y17126196D01*
X12249496Y17129796D01*
X12274000Y17131000D01*
X13199000Y17131000D01*
X13223504Y17129796D01*
X13223504Y17129796D01*
G37*
D15*
X12736500Y16256000D03*
D11*
G36*
X16235004Y19669796D02*
G01*
X16259273Y19666196D01*
X16283071Y19660235D01*
X16306171Y19651970D01*
X16328349Y19641480D01*
X16349393Y19628867D01*
X16369098Y19614253D01*
X16387277Y19597777D01*
X16403753Y19579598D01*
X16418367Y19559893D01*
X16430980Y19538849D01*
X16441470Y19516671D01*
X16449735Y19493571D01*
X16455696Y19469773D01*
X16459296Y19445504D01*
X16460500Y19421000D01*
X16460500Y18171000D01*
X16459296Y18146496D01*
X16455696Y18122227D01*
X16449735Y18098429D01*
X16441470Y18075329D01*
X16430980Y18053151D01*
X16418367Y18032107D01*
X16403753Y18012402D01*
X16387277Y17994223D01*
X16369098Y17977747D01*
X16349393Y17963133D01*
X16328349Y17950520D01*
X16306171Y17940030D01*
X16283071Y17931765D01*
X16259273Y17925804D01*
X16235004Y17922204D01*
X16210500Y17921000D01*
X15285500Y17921000D01*
X15260996Y17922204D01*
X15236727Y17925804D01*
X15212929Y17931765D01*
X15189829Y17940030D01*
X15167651Y17950520D01*
X15146607Y17963133D01*
X15126902Y17977747D01*
X15108723Y17994223D01*
X15092247Y18012402D01*
X15077633Y18032107D01*
X15065020Y18053151D01*
X15054530Y18075329D01*
X15046265Y18098429D01*
X15040304Y18122227D01*
X15036704Y18146496D01*
X15035500Y18171000D01*
X15035500Y19421000D01*
X15036704Y19445504D01*
X15040304Y19469773D01*
X15046265Y19493571D01*
X15054530Y19516671D01*
X15065020Y19538849D01*
X15077633Y19559893D01*
X15092247Y19579598D01*
X15108723Y19597777D01*
X15126902Y19614253D01*
X15146607Y19628867D01*
X15167651Y19641480D01*
X15189829Y19651970D01*
X15212929Y19660235D01*
X15236727Y19666196D01*
X15260996Y19669796D01*
X15285500Y19671000D01*
X16210500Y19671000D01*
X16235004Y19669796D01*
X16235004Y19669796D01*
G37*
D15*
X15748000Y18796000D03*
D11*
G36*
X13260004Y19669796D02*
G01*
X13284273Y19666196D01*
X13308071Y19660235D01*
X13331171Y19651970D01*
X13353349Y19641480D01*
X13374393Y19628867D01*
X13394098Y19614253D01*
X13412277Y19597777D01*
X13428753Y19579598D01*
X13443367Y19559893D01*
X13455980Y19538849D01*
X13466470Y19516671D01*
X13474735Y19493571D01*
X13480696Y19469773D01*
X13484296Y19445504D01*
X13485500Y19421000D01*
X13485500Y18171000D01*
X13484296Y18146496D01*
X13480696Y18122227D01*
X13474735Y18098429D01*
X13466470Y18075329D01*
X13455980Y18053151D01*
X13443367Y18032107D01*
X13428753Y18012402D01*
X13412277Y17994223D01*
X13394098Y17977747D01*
X13374393Y17963133D01*
X13353349Y17950520D01*
X13331171Y17940030D01*
X13308071Y17931765D01*
X13284273Y17925804D01*
X13260004Y17922204D01*
X13235500Y17921000D01*
X12310500Y17921000D01*
X12285996Y17922204D01*
X12261727Y17925804D01*
X12237929Y17931765D01*
X12214829Y17940030D01*
X12192651Y17950520D01*
X12171607Y17963133D01*
X12151902Y17977747D01*
X12133723Y17994223D01*
X12117247Y18012402D01*
X12102633Y18032107D01*
X12090020Y18053151D01*
X12079530Y18075329D01*
X12071265Y18098429D01*
X12065304Y18122227D01*
X12061704Y18146496D01*
X12060500Y18171000D01*
X12060500Y19421000D01*
X12061704Y19445504D01*
X12065304Y19469773D01*
X12071265Y19493571D01*
X12079530Y19516671D01*
X12090020Y19538849D01*
X12102633Y19559893D01*
X12117247Y19579598D01*
X12133723Y19597777D01*
X12151902Y19614253D01*
X12171607Y19628867D01*
X12192651Y19641480D01*
X12214829Y19651970D01*
X12237929Y19660235D01*
X12261727Y19666196D01*
X12285996Y19669796D01*
X12310500Y19671000D01*
X13235500Y19671000D01*
X13260004Y19669796D01*
X13260004Y19669796D01*
G37*
D15*
X12773000Y18796000D03*
D11*
G36*
X16235004Y22209796D02*
G01*
X16259273Y22206196D01*
X16283071Y22200235D01*
X16306171Y22191970D01*
X16328349Y22181480D01*
X16349393Y22168867D01*
X16369098Y22154253D01*
X16387277Y22137777D01*
X16403753Y22119598D01*
X16418367Y22099893D01*
X16430980Y22078849D01*
X16441470Y22056671D01*
X16449735Y22033571D01*
X16455696Y22009773D01*
X16459296Y21985504D01*
X16460500Y21961000D01*
X16460500Y20711000D01*
X16459296Y20686496D01*
X16455696Y20662227D01*
X16449735Y20638429D01*
X16441470Y20615329D01*
X16430980Y20593151D01*
X16418367Y20572107D01*
X16403753Y20552402D01*
X16387277Y20534223D01*
X16369098Y20517747D01*
X16349393Y20503133D01*
X16328349Y20490520D01*
X16306171Y20480030D01*
X16283071Y20471765D01*
X16259273Y20465804D01*
X16235004Y20462204D01*
X16210500Y20461000D01*
X15285500Y20461000D01*
X15260996Y20462204D01*
X15236727Y20465804D01*
X15212929Y20471765D01*
X15189829Y20480030D01*
X15167651Y20490520D01*
X15146607Y20503133D01*
X15126902Y20517747D01*
X15108723Y20534223D01*
X15092247Y20552402D01*
X15077633Y20572107D01*
X15065020Y20593151D01*
X15054530Y20615329D01*
X15046265Y20638429D01*
X15040304Y20662227D01*
X15036704Y20686496D01*
X15035500Y20711000D01*
X15035500Y21961000D01*
X15036704Y21985504D01*
X15040304Y22009773D01*
X15046265Y22033571D01*
X15054530Y22056671D01*
X15065020Y22078849D01*
X15077633Y22099893D01*
X15092247Y22119598D01*
X15108723Y22137777D01*
X15126902Y22154253D01*
X15146607Y22168867D01*
X15167651Y22181480D01*
X15189829Y22191970D01*
X15212929Y22200235D01*
X15236727Y22206196D01*
X15260996Y22209796D01*
X15285500Y22211000D01*
X16210500Y22211000D01*
X16235004Y22209796D01*
X16235004Y22209796D01*
G37*
D15*
X15748000Y21336000D03*
D11*
G36*
X13260004Y22209796D02*
G01*
X13284273Y22206196D01*
X13308071Y22200235D01*
X13331171Y22191970D01*
X13353349Y22181480D01*
X13374393Y22168867D01*
X13394098Y22154253D01*
X13412277Y22137777D01*
X13428753Y22119598D01*
X13443367Y22099893D01*
X13455980Y22078849D01*
X13466470Y22056671D01*
X13474735Y22033571D01*
X13480696Y22009773D01*
X13484296Y21985504D01*
X13485500Y21961000D01*
X13485500Y20711000D01*
X13484296Y20686496D01*
X13480696Y20662227D01*
X13474735Y20638429D01*
X13466470Y20615329D01*
X13455980Y20593151D01*
X13443367Y20572107D01*
X13428753Y20552402D01*
X13412277Y20534223D01*
X13394098Y20517747D01*
X13374393Y20503133D01*
X13353349Y20490520D01*
X13331171Y20480030D01*
X13308071Y20471765D01*
X13284273Y20465804D01*
X13260004Y20462204D01*
X13235500Y20461000D01*
X12310500Y20461000D01*
X12285996Y20462204D01*
X12261727Y20465804D01*
X12237929Y20471765D01*
X12214829Y20480030D01*
X12192651Y20490520D01*
X12171607Y20503133D01*
X12151902Y20517747D01*
X12133723Y20534223D01*
X12117247Y20552402D01*
X12102633Y20572107D01*
X12090020Y20593151D01*
X12079530Y20615329D01*
X12071265Y20638429D01*
X12065304Y20662227D01*
X12061704Y20686496D01*
X12060500Y20711000D01*
X12060500Y21961000D01*
X12061704Y21985504D01*
X12065304Y22009773D01*
X12071265Y22033571D01*
X12079530Y22056671D01*
X12090020Y22078849D01*
X12102633Y22099893D01*
X12117247Y22119598D01*
X12133723Y22137777D01*
X12151902Y22154253D01*
X12171607Y22168867D01*
X12192651Y22181480D01*
X12214829Y22191970D01*
X12237929Y22200235D01*
X12261727Y22206196D01*
X12285996Y22209796D01*
X12310500Y22211000D01*
X13235500Y22211000D01*
X13260004Y22209796D01*
X13260004Y22209796D01*
G37*
D15*
X12773000Y21336000D03*
D11*
G36*
X39474505Y26606796D02*
G01*
X39498773Y26603196D01*
X39522572Y26597235D01*
X39545671Y26588970D01*
X39567850Y26578480D01*
X39588893Y26565868D01*
X39608599Y26551253D01*
X39626777Y26534777D01*
X39643253Y26516599D01*
X39657868Y26496893D01*
X39670480Y26475850D01*
X39680970Y26453671D01*
X39689235Y26430572D01*
X39695196Y26406773D01*
X39698796Y26382505D01*
X39700000Y26358001D01*
X39700000Y25457999D01*
X39698796Y25433495D01*
X39695196Y25409227D01*
X39689235Y25385428D01*
X39680970Y25362329D01*
X39670480Y25340150D01*
X39657868Y25319107D01*
X39643253Y25299401D01*
X39626777Y25281223D01*
X39608599Y25264747D01*
X39588893Y25250132D01*
X39567850Y25237520D01*
X39545671Y25227030D01*
X39522572Y25218765D01*
X39498773Y25212804D01*
X39474505Y25209204D01*
X39450001Y25208000D01*
X38799999Y25208000D01*
X38775495Y25209204D01*
X38751227Y25212804D01*
X38727428Y25218765D01*
X38704329Y25227030D01*
X38682150Y25237520D01*
X38661107Y25250132D01*
X38641401Y25264747D01*
X38623223Y25281223D01*
X38606747Y25299401D01*
X38592132Y25319107D01*
X38579520Y25340150D01*
X38569030Y25362329D01*
X38560765Y25385428D01*
X38554804Y25409227D01*
X38551204Y25433495D01*
X38550000Y25457999D01*
X38550000Y26358001D01*
X38551204Y26382505D01*
X38554804Y26406773D01*
X38560765Y26430572D01*
X38569030Y26453671D01*
X38579520Y26475850D01*
X38592132Y26496893D01*
X38606747Y26516599D01*
X38623223Y26534777D01*
X38641401Y26551253D01*
X38661107Y26565868D01*
X38682150Y26578480D01*
X38704329Y26588970D01*
X38727428Y26597235D01*
X38751227Y26603196D01*
X38775495Y26606796D01*
X38799999Y26608000D01*
X39450001Y26608000D01*
X39474505Y26606796D01*
X39474505Y26606796D01*
G37*
D12*
X39125000Y25908000D03*
D11*
G36*
X37424505Y26606796D02*
G01*
X37448773Y26603196D01*
X37472572Y26597235D01*
X37495671Y26588970D01*
X37517850Y26578480D01*
X37538893Y26565868D01*
X37558599Y26551253D01*
X37576777Y26534777D01*
X37593253Y26516599D01*
X37607868Y26496893D01*
X37620480Y26475850D01*
X37630970Y26453671D01*
X37639235Y26430572D01*
X37645196Y26406773D01*
X37648796Y26382505D01*
X37650000Y26358001D01*
X37650000Y25457999D01*
X37648796Y25433495D01*
X37645196Y25409227D01*
X37639235Y25385428D01*
X37630970Y25362329D01*
X37620480Y25340150D01*
X37607868Y25319107D01*
X37593253Y25299401D01*
X37576777Y25281223D01*
X37558599Y25264747D01*
X37538893Y25250132D01*
X37517850Y25237520D01*
X37495671Y25227030D01*
X37472572Y25218765D01*
X37448773Y25212804D01*
X37424505Y25209204D01*
X37400001Y25208000D01*
X36749999Y25208000D01*
X36725495Y25209204D01*
X36701227Y25212804D01*
X36677428Y25218765D01*
X36654329Y25227030D01*
X36632150Y25237520D01*
X36611107Y25250132D01*
X36591401Y25264747D01*
X36573223Y25281223D01*
X36556747Y25299401D01*
X36542132Y25319107D01*
X36529520Y25340150D01*
X36519030Y25362329D01*
X36510765Y25385428D01*
X36504804Y25409227D01*
X36501204Y25433495D01*
X36500000Y25457999D01*
X36500000Y26358001D01*
X36501204Y26382505D01*
X36504804Y26406773D01*
X36510765Y26430572D01*
X36519030Y26453671D01*
X36529520Y26475850D01*
X36542132Y26496893D01*
X36556747Y26516599D01*
X36573223Y26534777D01*
X36591401Y26551253D01*
X36611107Y26565868D01*
X36632150Y26578480D01*
X36654329Y26588970D01*
X36677428Y26597235D01*
X36701227Y26603196D01*
X36725495Y26606796D01*
X36749999Y26608000D01*
X37400001Y26608000D01*
X37424505Y26606796D01*
X37424505Y26606796D01*
G37*
D12*
X37075000Y25908000D03*
D11*
G36*
X33360505Y26606796D02*
G01*
X33384773Y26603196D01*
X33408572Y26597235D01*
X33431671Y26588970D01*
X33453850Y26578480D01*
X33474893Y26565868D01*
X33494599Y26551253D01*
X33512777Y26534777D01*
X33529253Y26516599D01*
X33543868Y26496893D01*
X33556480Y26475850D01*
X33566970Y26453671D01*
X33575235Y26430572D01*
X33581196Y26406773D01*
X33584796Y26382505D01*
X33586000Y26358001D01*
X33586000Y25457999D01*
X33584796Y25433495D01*
X33581196Y25409227D01*
X33575235Y25385428D01*
X33566970Y25362329D01*
X33556480Y25340150D01*
X33543868Y25319107D01*
X33529253Y25299401D01*
X33512777Y25281223D01*
X33494599Y25264747D01*
X33474893Y25250132D01*
X33453850Y25237520D01*
X33431671Y25227030D01*
X33408572Y25218765D01*
X33384773Y25212804D01*
X33360505Y25209204D01*
X33336001Y25208000D01*
X32685999Y25208000D01*
X32661495Y25209204D01*
X32637227Y25212804D01*
X32613428Y25218765D01*
X32590329Y25227030D01*
X32568150Y25237520D01*
X32547107Y25250132D01*
X32527401Y25264747D01*
X32509223Y25281223D01*
X32492747Y25299401D01*
X32478132Y25319107D01*
X32465520Y25340150D01*
X32455030Y25362329D01*
X32446765Y25385428D01*
X32440804Y25409227D01*
X32437204Y25433495D01*
X32436000Y25457999D01*
X32436000Y26358001D01*
X32437204Y26382505D01*
X32440804Y26406773D01*
X32446765Y26430572D01*
X32455030Y26453671D01*
X32465520Y26475850D01*
X32478132Y26496893D01*
X32492747Y26516599D01*
X32509223Y26534777D01*
X32527401Y26551253D01*
X32547107Y26565868D01*
X32568150Y26578480D01*
X32590329Y26588970D01*
X32613428Y26597235D01*
X32637227Y26603196D01*
X32661495Y26606796D01*
X32685999Y26608000D01*
X33336001Y26608000D01*
X33360505Y26606796D01*
X33360505Y26606796D01*
G37*
D12*
X33011000Y25908000D03*
D11*
G36*
X35410505Y26606796D02*
G01*
X35434773Y26603196D01*
X35458572Y26597235D01*
X35481671Y26588970D01*
X35503850Y26578480D01*
X35524893Y26565868D01*
X35544599Y26551253D01*
X35562777Y26534777D01*
X35579253Y26516599D01*
X35593868Y26496893D01*
X35606480Y26475850D01*
X35616970Y26453671D01*
X35625235Y26430572D01*
X35631196Y26406773D01*
X35634796Y26382505D01*
X35636000Y26358001D01*
X35636000Y25457999D01*
X35634796Y25433495D01*
X35631196Y25409227D01*
X35625235Y25385428D01*
X35616970Y25362329D01*
X35606480Y25340150D01*
X35593868Y25319107D01*
X35579253Y25299401D01*
X35562777Y25281223D01*
X35544599Y25264747D01*
X35524893Y25250132D01*
X35503850Y25237520D01*
X35481671Y25227030D01*
X35458572Y25218765D01*
X35434773Y25212804D01*
X35410505Y25209204D01*
X35386001Y25208000D01*
X34735999Y25208000D01*
X34711495Y25209204D01*
X34687227Y25212804D01*
X34663428Y25218765D01*
X34640329Y25227030D01*
X34618150Y25237520D01*
X34597107Y25250132D01*
X34577401Y25264747D01*
X34559223Y25281223D01*
X34542747Y25299401D01*
X34528132Y25319107D01*
X34515520Y25340150D01*
X34505030Y25362329D01*
X34496765Y25385428D01*
X34490804Y25409227D01*
X34487204Y25433495D01*
X34486000Y25457999D01*
X34486000Y26358001D01*
X34487204Y26382505D01*
X34490804Y26406773D01*
X34496765Y26430572D01*
X34505030Y26453671D01*
X34515520Y26475850D01*
X34528132Y26496893D01*
X34542747Y26516599D01*
X34559223Y26534777D01*
X34577401Y26551253D01*
X34597107Y26565868D01*
X34618150Y26578480D01*
X34640329Y26588970D01*
X34663428Y26597235D01*
X34687227Y26603196D01*
X34711495Y26606796D01*
X34735999Y26608000D01*
X35386001Y26608000D01*
X35410505Y26606796D01*
X35410505Y26606796D01*
G37*
D12*
X35061000Y25908000D03*
D11*
G36*
X45699004Y34401796D02*
G01*
X45723273Y34398196D01*
X45747071Y34392235D01*
X45770171Y34383970D01*
X45792349Y34373480D01*
X45813393Y34360867D01*
X45833098Y34346253D01*
X45851277Y34329777D01*
X45867753Y34311598D01*
X45882367Y34291893D01*
X45894980Y34270849D01*
X45905470Y34248671D01*
X45913735Y34225571D01*
X45919696Y34201773D01*
X45923296Y34177504D01*
X45924500Y34153000D01*
X45924500Y32903000D01*
X45923296Y32878496D01*
X45919696Y32854227D01*
X45913735Y32830429D01*
X45905470Y32807329D01*
X45894980Y32785151D01*
X45882367Y32764107D01*
X45867753Y32744402D01*
X45851277Y32726223D01*
X45833098Y32709747D01*
X45813393Y32695133D01*
X45792349Y32682520D01*
X45770171Y32672030D01*
X45747071Y32663765D01*
X45723273Y32657804D01*
X45699004Y32654204D01*
X45674500Y32653000D01*
X44749500Y32653000D01*
X44724996Y32654204D01*
X44700727Y32657804D01*
X44676929Y32663765D01*
X44653829Y32672030D01*
X44631651Y32682520D01*
X44610607Y32695133D01*
X44590902Y32709747D01*
X44572723Y32726223D01*
X44556247Y32744402D01*
X44541633Y32764107D01*
X44529020Y32785151D01*
X44518530Y32807329D01*
X44510265Y32830429D01*
X44504304Y32854227D01*
X44500704Y32878496D01*
X44499500Y32903000D01*
X44499500Y34153000D01*
X44500704Y34177504D01*
X44504304Y34201773D01*
X44510265Y34225571D01*
X44518530Y34248671D01*
X44529020Y34270849D01*
X44541633Y34291893D01*
X44556247Y34311598D01*
X44572723Y34329777D01*
X44590902Y34346253D01*
X44610607Y34360867D01*
X44631651Y34373480D01*
X44653829Y34383970D01*
X44676929Y34392235D01*
X44700727Y34398196D01*
X44724996Y34401796D01*
X44749500Y34403000D01*
X45674500Y34403000D01*
X45699004Y34401796D01*
X45699004Y34401796D01*
G37*
D15*
X45212000Y33528000D03*
D11*
G36*
X42724004Y34401796D02*
G01*
X42748273Y34398196D01*
X42772071Y34392235D01*
X42795171Y34383970D01*
X42817349Y34373480D01*
X42838393Y34360867D01*
X42858098Y34346253D01*
X42876277Y34329777D01*
X42892753Y34311598D01*
X42907367Y34291893D01*
X42919980Y34270849D01*
X42930470Y34248671D01*
X42938735Y34225571D01*
X42944696Y34201773D01*
X42948296Y34177504D01*
X42949500Y34153000D01*
X42949500Y32903000D01*
X42948296Y32878496D01*
X42944696Y32854227D01*
X42938735Y32830429D01*
X42930470Y32807329D01*
X42919980Y32785151D01*
X42907367Y32764107D01*
X42892753Y32744402D01*
X42876277Y32726223D01*
X42858098Y32709747D01*
X42838393Y32695133D01*
X42817349Y32682520D01*
X42795171Y32672030D01*
X42772071Y32663765D01*
X42748273Y32657804D01*
X42724004Y32654204D01*
X42699500Y32653000D01*
X41774500Y32653000D01*
X41749996Y32654204D01*
X41725727Y32657804D01*
X41701929Y32663765D01*
X41678829Y32672030D01*
X41656651Y32682520D01*
X41635607Y32695133D01*
X41615902Y32709747D01*
X41597723Y32726223D01*
X41581247Y32744402D01*
X41566633Y32764107D01*
X41554020Y32785151D01*
X41543530Y32807329D01*
X41535265Y32830429D01*
X41529304Y32854227D01*
X41525704Y32878496D01*
X41524500Y32903000D01*
X41524500Y34153000D01*
X41525704Y34177504D01*
X41529304Y34201773D01*
X41535265Y34225571D01*
X41543530Y34248671D01*
X41554020Y34270849D01*
X41566633Y34291893D01*
X41581247Y34311598D01*
X41597723Y34329777D01*
X41615902Y34346253D01*
X41635607Y34360867D01*
X41656651Y34373480D01*
X41678829Y34383970D01*
X41701929Y34392235D01*
X41725727Y34398196D01*
X41749996Y34401796D01*
X41774500Y34403000D01*
X42699500Y34403000D01*
X42724004Y34401796D01*
X42724004Y34401796D01*
G37*
D15*
X42237000Y33528000D03*
D11*
G36*
X45699004Y31861796D02*
G01*
X45723273Y31858196D01*
X45747071Y31852235D01*
X45770171Y31843970D01*
X45792349Y31833480D01*
X45813393Y31820867D01*
X45833098Y31806253D01*
X45851277Y31789777D01*
X45867753Y31771598D01*
X45882367Y31751893D01*
X45894980Y31730849D01*
X45905470Y31708671D01*
X45913735Y31685571D01*
X45919696Y31661773D01*
X45923296Y31637504D01*
X45924500Y31613000D01*
X45924500Y30363000D01*
X45923296Y30338496D01*
X45919696Y30314227D01*
X45913735Y30290429D01*
X45905470Y30267329D01*
X45894980Y30245151D01*
X45882367Y30224107D01*
X45867753Y30204402D01*
X45851277Y30186223D01*
X45833098Y30169747D01*
X45813393Y30155133D01*
X45792349Y30142520D01*
X45770171Y30132030D01*
X45747071Y30123765D01*
X45723273Y30117804D01*
X45699004Y30114204D01*
X45674500Y30113000D01*
X44749500Y30113000D01*
X44724996Y30114204D01*
X44700727Y30117804D01*
X44676929Y30123765D01*
X44653829Y30132030D01*
X44631651Y30142520D01*
X44610607Y30155133D01*
X44590902Y30169747D01*
X44572723Y30186223D01*
X44556247Y30204402D01*
X44541633Y30224107D01*
X44529020Y30245151D01*
X44518530Y30267329D01*
X44510265Y30290429D01*
X44504304Y30314227D01*
X44500704Y30338496D01*
X44499500Y30363000D01*
X44499500Y31613000D01*
X44500704Y31637504D01*
X44504304Y31661773D01*
X44510265Y31685571D01*
X44518530Y31708671D01*
X44529020Y31730849D01*
X44541633Y31751893D01*
X44556247Y31771598D01*
X44572723Y31789777D01*
X44590902Y31806253D01*
X44610607Y31820867D01*
X44631651Y31833480D01*
X44653829Y31843970D01*
X44676929Y31852235D01*
X44700727Y31858196D01*
X44724996Y31861796D01*
X44749500Y31863000D01*
X45674500Y31863000D01*
X45699004Y31861796D01*
X45699004Y31861796D01*
G37*
D15*
X45212000Y30988000D03*
D11*
G36*
X42724004Y31861796D02*
G01*
X42748273Y31858196D01*
X42772071Y31852235D01*
X42795171Y31843970D01*
X42817349Y31833480D01*
X42838393Y31820867D01*
X42858098Y31806253D01*
X42876277Y31789777D01*
X42892753Y31771598D01*
X42907367Y31751893D01*
X42919980Y31730849D01*
X42930470Y31708671D01*
X42938735Y31685571D01*
X42944696Y31661773D01*
X42948296Y31637504D01*
X42949500Y31613000D01*
X42949500Y30363000D01*
X42948296Y30338496D01*
X42944696Y30314227D01*
X42938735Y30290429D01*
X42930470Y30267329D01*
X42919980Y30245151D01*
X42907367Y30224107D01*
X42892753Y30204402D01*
X42876277Y30186223D01*
X42858098Y30169747D01*
X42838393Y30155133D01*
X42817349Y30142520D01*
X42795171Y30132030D01*
X42772071Y30123765D01*
X42748273Y30117804D01*
X42724004Y30114204D01*
X42699500Y30113000D01*
X41774500Y30113000D01*
X41749996Y30114204D01*
X41725727Y30117804D01*
X41701929Y30123765D01*
X41678829Y30132030D01*
X41656651Y30142520D01*
X41635607Y30155133D01*
X41615902Y30169747D01*
X41597723Y30186223D01*
X41581247Y30204402D01*
X41566633Y30224107D01*
X41554020Y30245151D01*
X41543530Y30267329D01*
X41535265Y30290429D01*
X41529304Y30314227D01*
X41525704Y30338496D01*
X41524500Y30363000D01*
X41524500Y31613000D01*
X41525704Y31637504D01*
X41529304Y31661773D01*
X41535265Y31685571D01*
X41543530Y31708671D01*
X41554020Y31730849D01*
X41566633Y31751893D01*
X41581247Y31771598D01*
X41597723Y31789777D01*
X41615902Y31806253D01*
X41635607Y31820867D01*
X41656651Y31833480D01*
X41678829Y31843970D01*
X41701929Y31852235D01*
X41725727Y31858196D01*
X41749996Y31861796D01*
X41774500Y31863000D01*
X42699500Y31863000D01*
X42724004Y31861796D01*
X42724004Y31861796D01*
G37*
D15*
X42237000Y30988000D03*
D11*
G36*
X45662504Y29321796D02*
G01*
X45686773Y29318196D01*
X45710571Y29312235D01*
X45733671Y29303970D01*
X45755849Y29293480D01*
X45776893Y29280867D01*
X45796598Y29266253D01*
X45814777Y29249777D01*
X45831253Y29231598D01*
X45845867Y29211893D01*
X45858480Y29190849D01*
X45868970Y29168671D01*
X45877235Y29145571D01*
X45883196Y29121773D01*
X45886796Y29097504D01*
X45888000Y29073000D01*
X45888000Y27823000D01*
X45886796Y27798496D01*
X45883196Y27774227D01*
X45877235Y27750429D01*
X45868970Y27727329D01*
X45858480Y27705151D01*
X45845867Y27684107D01*
X45831253Y27664402D01*
X45814777Y27646223D01*
X45796598Y27629747D01*
X45776893Y27615133D01*
X45755849Y27602520D01*
X45733671Y27592030D01*
X45710571Y27583765D01*
X45686773Y27577804D01*
X45662504Y27574204D01*
X45638000Y27573000D01*
X44713000Y27573000D01*
X44688496Y27574204D01*
X44664227Y27577804D01*
X44640429Y27583765D01*
X44617329Y27592030D01*
X44595151Y27602520D01*
X44574107Y27615133D01*
X44554402Y27629747D01*
X44536223Y27646223D01*
X44519747Y27664402D01*
X44505133Y27684107D01*
X44492520Y27705151D01*
X44482030Y27727329D01*
X44473765Y27750429D01*
X44467804Y27774227D01*
X44464204Y27798496D01*
X44463000Y27823000D01*
X44463000Y29073000D01*
X44464204Y29097504D01*
X44467804Y29121773D01*
X44473765Y29145571D01*
X44482030Y29168671D01*
X44492520Y29190849D01*
X44505133Y29211893D01*
X44519747Y29231598D01*
X44536223Y29249777D01*
X44554402Y29266253D01*
X44574107Y29280867D01*
X44595151Y29293480D01*
X44617329Y29303970D01*
X44640429Y29312235D01*
X44664227Y29318196D01*
X44688496Y29321796D01*
X44713000Y29323000D01*
X45638000Y29323000D01*
X45662504Y29321796D01*
X45662504Y29321796D01*
G37*
D15*
X45175500Y28448000D03*
D11*
G36*
X42687504Y29321796D02*
G01*
X42711773Y29318196D01*
X42735571Y29312235D01*
X42758671Y29303970D01*
X42780849Y29293480D01*
X42801893Y29280867D01*
X42821598Y29266253D01*
X42839777Y29249777D01*
X42856253Y29231598D01*
X42870867Y29211893D01*
X42883480Y29190849D01*
X42893970Y29168671D01*
X42902235Y29145571D01*
X42908196Y29121773D01*
X42911796Y29097504D01*
X42913000Y29073000D01*
X42913000Y27823000D01*
X42911796Y27798496D01*
X42908196Y27774227D01*
X42902235Y27750429D01*
X42893970Y27727329D01*
X42883480Y27705151D01*
X42870867Y27684107D01*
X42856253Y27664402D01*
X42839777Y27646223D01*
X42821598Y27629747D01*
X42801893Y27615133D01*
X42780849Y27602520D01*
X42758671Y27592030D01*
X42735571Y27583765D01*
X42711773Y27577804D01*
X42687504Y27574204D01*
X42663000Y27573000D01*
X41738000Y27573000D01*
X41713496Y27574204D01*
X41689227Y27577804D01*
X41665429Y27583765D01*
X41642329Y27592030D01*
X41620151Y27602520D01*
X41599107Y27615133D01*
X41579402Y27629747D01*
X41561223Y27646223D01*
X41544747Y27664402D01*
X41530133Y27684107D01*
X41517520Y27705151D01*
X41507030Y27727329D01*
X41498765Y27750429D01*
X41492804Y27774227D01*
X41489204Y27798496D01*
X41488000Y27823000D01*
X41488000Y29073000D01*
X41489204Y29097504D01*
X41492804Y29121773D01*
X41498765Y29145571D01*
X41507030Y29168671D01*
X41517520Y29190849D01*
X41530133Y29211893D01*
X41544747Y29231598D01*
X41561223Y29249777D01*
X41579402Y29266253D01*
X41599107Y29280867D01*
X41620151Y29293480D01*
X41642329Y29303970D01*
X41665429Y29312235D01*
X41689227Y29318196D01*
X41713496Y29321796D01*
X41738000Y29323000D01*
X42663000Y29323000D01*
X42687504Y29321796D01*
X42687504Y29321796D01*
G37*
D15*
X42200500Y28448000D03*
D16*
X70232000Y35179000D03*
X70232000Y33909000D03*
X70232000Y32639000D03*
X70232000Y31369000D03*
X70232000Y30099000D03*
X70232000Y28829000D03*
X70232000Y27559000D03*
X70232000Y26289000D03*
X70232000Y25019000D03*
X70232000Y23749000D03*
X70232000Y22479000D03*
X70232000Y21209000D03*
X70232000Y19939000D03*
X70232000Y18669000D03*
X60832000Y18669000D03*
X60832000Y19939000D03*
X60832000Y21209000D03*
X60832000Y22479000D03*
X60832000Y23749000D03*
X60832000Y25019000D03*
X60832000Y26289000D03*
X60832000Y27559000D03*
X60832000Y28829000D03*
X60832000Y30099000D03*
X60832000Y31369000D03*
X60832000Y32639000D03*
X60832000Y33909000D03*
X60832000Y35179000D03*
D17*
X57564000Y26162000D03*
X57564000Y24892000D03*
X57564000Y23622000D03*
X57564000Y22352000D03*
X57564000Y21082000D03*
X57564000Y19812000D03*
X57564000Y18542000D03*
X52164000Y18542000D03*
X52164000Y19812000D03*
X52164000Y21082000D03*
X52164000Y22352000D03*
X52164000Y23622000D03*
X52164000Y24892000D03*
X52164000Y26162000D03*
D18*
X38768000Y33909000D03*
X38768000Y32639000D03*
X38768000Y31369000D03*
X38768000Y30099000D03*
X33368000Y30099000D03*
X33368000Y31369000D03*
X33368000Y32639000D03*
X33368000Y33909000D03*
M02*
