G04 #@! TF.GenerationSoftware,KiCad,Pcbnew,(5.1.0)-1*
G04 #@! TF.CreationDate,2019-04-04T19:18:29+02:00*
G04 #@! TF.ProjectId,YAPSCO,59415053-434f-42e6-9b69-6361645f7063,rev?*
G04 #@! TF.SameCoordinates,PX6a95280PY86ae840*
G04 #@! TF.FileFunction,Legend,Top*
G04 #@! TF.FilePolarity,Positive*
%FSLAX46Y46*%
G04 Gerber Fmt 4.6, Leading zero omitted, Abs format (unit mm)*
G04 Created by KiCad (PCBNEW (5.1.0)-1) date 2019-04-04 19:18:29*
%MOMM*%
%LPD*%
G04 APERTURE LIST*
%ADD10C,0.250000*%
%ADD11C,0.200000*%
%ADD12C,0.150000*%
%ADD13C,0.090000*%
%ADD14C,0.400000*%
%ADD15C,0.120000*%
G04 APERTURE END LIST*
D10*
X56896000Y72390000D02*
X56896000Y70612000D01*
X61976000Y72390000D02*
X61976000Y70612000D01*
X72136000Y72390000D02*
X72136000Y70612000D01*
X67056000Y72390000D02*
X67056000Y70612000D01*
X10160000Y4064000D02*
X10160000Y1016000D01*
X41656000Y4064000D02*
X41656000Y1016000D01*
X21336000Y4064000D02*
X21336000Y1016000D01*
X20320000Y4064000D02*
X20320000Y1016000D01*
D11*
X10862571Y42164191D02*
X12362571Y42497524D01*
X10862571Y42830858D01*
X12362571Y43688000D02*
X12362571Y43116572D01*
X12362571Y43402286D02*
X10862571Y43402286D01*
X11076857Y43307048D01*
X11219714Y43211810D01*
X11291142Y43116572D01*
X12219714Y44116572D02*
X12291142Y44164191D01*
X12362571Y44116572D01*
X12291142Y44068953D01*
X12219714Y44116572D01*
X12362571Y44116572D01*
X10862571Y44783239D02*
X10862571Y44878477D01*
X10934000Y44973715D01*
X11005428Y45021334D01*
X11148285Y45068953D01*
X11434000Y45116572D01*
X11791142Y45116572D01*
X12076857Y45068953D01*
X12219714Y45021334D01*
X12291142Y44973715D01*
X12362571Y44878477D01*
X12362571Y44783239D01*
X12291142Y44688000D01*
X12219714Y44640381D01*
X12076857Y44592762D01*
X11791142Y44545143D01*
X11434000Y44545143D01*
X11148285Y44592762D01*
X11005428Y44640381D01*
X10934000Y44688000D01*
X10862571Y44783239D01*
X42164000Y22860000D02*
X42164000Y20828000D01*
X43180000Y23876000D02*
X42164000Y22860000D01*
X50292000Y23876000D02*
X43180000Y23876000D01*
D12*
X43467976Y22294858D02*
X44077500Y22294858D01*
X44877500Y21990096D02*
X44420357Y21990096D01*
X44648928Y21990096D02*
X44648928Y22790096D01*
X44572738Y22675810D01*
X44496547Y22599620D01*
X44420357Y22561524D01*
X45182261Y22713905D02*
X45220357Y22752000D01*
X45296547Y22790096D01*
X45487023Y22790096D01*
X45563214Y22752000D01*
X45601309Y22713905D01*
X45639404Y22637715D01*
X45639404Y22561524D01*
X45601309Y22447239D01*
X45144166Y21990096D01*
X45639404Y21990096D01*
X45867976Y22790096D02*
X46134642Y21990096D01*
X46401309Y22790096D01*
X47277500Y21990096D02*
X47277500Y22790096D01*
X47582261Y22790096D01*
X47658452Y22752000D01*
X47696547Y22713905D01*
X47734642Y22637715D01*
X47734642Y22523429D01*
X47696547Y22447239D01*
X47658452Y22409143D01*
X47582261Y22371048D01*
X47277500Y22371048D01*
X48039404Y22028191D02*
X48153690Y21990096D01*
X48344166Y21990096D01*
X48420357Y22028191D01*
X48458452Y22066286D01*
X48496547Y22142477D01*
X48496547Y22218667D01*
X48458452Y22294858D01*
X48420357Y22332953D01*
X48344166Y22371048D01*
X48191785Y22409143D01*
X48115595Y22447239D01*
X48077500Y22485334D01*
X48039404Y22561524D01*
X48039404Y22637715D01*
X48077500Y22713905D01*
X48115595Y22752000D01*
X48191785Y22790096D01*
X48382261Y22790096D01*
X48496547Y22752000D01*
X48839404Y22790096D02*
X48839404Y22142477D01*
X48877500Y22066286D01*
X48915595Y22028191D01*
X48991785Y21990096D01*
X49144166Y21990096D01*
X49220357Y22028191D01*
X49258452Y22066286D01*
X49296547Y22142477D01*
X49296547Y22790096D01*
D11*
X25908000Y41148000D02*
X25908000Y20828000D01*
X31496000Y46736000D02*
X25908000Y41148000D01*
X50292000Y46736000D02*
X31496000Y46736000D01*
X50292000Y20828000D02*
X50292000Y46736000D01*
X40640000Y20828000D02*
X50292000Y20828000D01*
X25908000Y20828000D02*
X40640000Y20828000D01*
X78448001Y50377715D02*
X78848001Y50377715D01*
X79019429Y49749143D02*
X78448001Y49749143D01*
X78448001Y50949143D01*
X79019429Y50949143D01*
X80219429Y49749143D02*
X79819429Y50320572D01*
X79533715Y49749143D02*
X79533715Y50949143D01*
X79990858Y50949143D01*
X80105144Y50892000D01*
X80162286Y50834858D01*
X80219429Y50720572D01*
X80219429Y50549143D01*
X80162286Y50434858D01*
X80105144Y50377715D01*
X79990858Y50320572D01*
X79533715Y50320572D01*
X81419429Y49749143D02*
X81019429Y50320572D01*
X80733715Y49749143D02*
X80733715Y50949143D01*
X81190858Y50949143D01*
X81305144Y50892000D01*
X81362286Y50834858D01*
X81419429Y50720572D01*
X81419429Y50549143D01*
X81362286Y50434858D01*
X81305144Y50377715D01*
X81190858Y50320572D01*
X80733715Y50320572D01*
X80333714Y54505143D02*
X79762286Y54505143D01*
X79705143Y53933715D01*
X79762286Y53990858D01*
X79876571Y54048000D01*
X80162286Y54048000D01*
X80276571Y53990858D01*
X80333714Y53933715D01*
X80390857Y53819429D01*
X80390857Y53533715D01*
X80333714Y53419429D01*
X80276571Y53362286D01*
X80162286Y53305143D01*
X79876571Y53305143D01*
X79762286Y53362286D01*
X79705143Y53419429D01*
X80733714Y54505143D02*
X81133714Y53305143D01*
X81533714Y54505143D01*
X77133715Y56302286D02*
X78048001Y56302286D01*
X79248001Y55845143D02*
X78562286Y55845143D01*
X78905143Y55845143D02*
X78905143Y57045143D01*
X78790858Y56873715D01*
X78676572Y56759429D01*
X78562286Y56702286D01*
X79705143Y56930858D02*
X79762286Y56988000D01*
X79876572Y57045143D01*
X80162286Y57045143D01*
X80276572Y56988000D01*
X80333715Y56930858D01*
X80390858Y56816572D01*
X80390858Y56702286D01*
X80333715Y56530858D01*
X79648001Y55845143D01*
X80390858Y55845143D01*
X80733715Y57045143D02*
X81133715Y55845143D01*
X81533715Y57045143D01*
X77133715Y58842286D02*
X78048001Y58842286D01*
X77590858Y58385143D02*
X77590858Y59299429D01*
X79248001Y58385143D02*
X78562286Y58385143D01*
X78905143Y58385143D02*
X78905143Y59585143D01*
X78790858Y59413715D01*
X78676572Y59299429D01*
X78562286Y59242286D01*
X79705143Y59470858D02*
X79762286Y59528000D01*
X79876572Y59585143D01*
X80162286Y59585143D01*
X80276572Y59528000D01*
X80333715Y59470858D01*
X80390858Y59356572D01*
X80390858Y59242286D01*
X80333715Y59070858D01*
X79648001Y58385143D01*
X80390858Y58385143D01*
X80733715Y59585143D02*
X81133715Y58385143D01*
X81533715Y59585143D01*
D13*
X64725523Y70792953D02*
X64725523Y70392953D01*
X64535047Y70792953D02*
X64535047Y70392953D01*
X64306476Y70792953D01*
X64306476Y70392953D01*
X69996000Y70392953D02*
X69919809Y70392953D01*
X69881714Y70412000D01*
X69843619Y70450096D01*
X69824571Y70526286D01*
X69824571Y70659620D01*
X69843619Y70735810D01*
X69881714Y70773905D01*
X69919809Y70792953D01*
X69996000Y70792953D01*
X70034095Y70773905D01*
X70072190Y70735810D01*
X70091238Y70659620D01*
X70091238Y70526286D01*
X70072190Y70450096D01*
X70034095Y70412000D01*
X69996000Y70392953D01*
X69653142Y70392953D02*
X69653142Y70716762D01*
X69634095Y70754858D01*
X69615047Y70773905D01*
X69576952Y70792953D01*
X69500761Y70792953D01*
X69462666Y70773905D01*
X69443619Y70754858D01*
X69424571Y70716762D01*
X69424571Y70392953D01*
X69291238Y70392953D02*
X69062666Y70392953D01*
X69176952Y70792953D02*
X69176952Y70392953D01*
D11*
X69824571Y70970858D02*
X70396000Y70970858D01*
X70453142Y71542286D01*
X70396000Y71485143D01*
X70281714Y71428000D01*
X69996000Y71428000D01*
X69881714Y71485143D01*
X69824571Y71542286D01*
X69767428Y71656572D01*
X69767428Y71942286D01*
X69824571Y72056572D01*
X69881714Y72113715D01*
X69996000Y72170858D01*
X70281714Y72170858D01*
X70396000Y72113715D01*
X70453142Y72056572D01*
X69424571Y70970858D02*
X69024571Y72170858D01*
X68624571Y70970858D01*
X60350285Y71028000D02*
X60464571Y70970858D01*
X60636000Y70970858D01*
X60807428Y71028000D01*
X60921714Y71142286D01*
X60978857Y71256572D01*
X61036000Y71485143D01*
X61036000Y71656572D01*
X60978857Y71885143D01*
X60921714Y71999429D01*
X60807428Y72113715D01*
X60636000Y72170858D01*
X60521714Y72170858D01*
X60350285Y72113715D01*
X60293142Y72056572D01*
X60293142Y71656572D01*
X60521714Y71656572D01*
X59778857Y72170858D02*
X59778857Y70970858D01*
X59093142Y72170858D01*
X59093142Y70970858D01*
X58521714Y72170858D02*
X58521714Y70970858D01*
X58236000Y70970858D01*
X58064571Y71028000D01*
X57950285Y71142286D01*
X57893142Y71256572D01*
X57836000Y71485143D01*
X57836000Y71656572D01*
X57893142Y71885143D01*
X57950285Y71999429D01*
X58064571Y72113715D01*
X58236000Y72170858D01*
X58521714Y72170858D01*
X65401714Y70970858D02*
X65001714Y72170858D01*
X64601714Y70970858D01*
X64258857Y72113715D02*
X64144571Y72170858D01*
X63916000Y72170858D01*
X63801714Y72113715D01*
X63744571Y71999429D01*
X63744571Y71942286D01*
X63801714Y71828000D01*
X63916000Y71770858D01*
X64087428Y71770858D01*
X64201714Y71713715D01*
X64258857Y71599429D01*
X64258857Y71542286D01*
X64201714Y71428000D01*
X64087428Y71370858D01*
X63916000Y71370858D01*
X63801714Y71428000D01*
X34239142Y71205715D02*
X33324857Y71205715D01*
X42875142Y71205715D02*
X41960857Y71205715D01*
X42418000Y71662858D02*
X42418000Y70748572D01*
X23063142Y71205715D02*
X22148857Y71205715D01*
X31699142Y71205715D02*
X30784857Y71205715D01*
X31242000Y71662858D02*
X31242000Y70748572D01*
X11887142Y71205715D02*
X10972857Y71205715D01*
X20523142Y71205715D02*
X19608857Y71205715D01*
X20066000Y71662858D02*
X20066000Y70748572D01*
X40042857Y72113715D02*
X39871428Y72170858D01*
X39585714Y72170858D01*
X39471428Y72113715D01*
X39414285Y72056572D01*
X39357142Y71942286D01*
X39357142Y71828000D01*
X39414285Y71713715D01*
X39471428Y71656572D01*
X39585714Y71599429D01*
X39814285Y71542286D01*
X39928571Y71485143D01*
X39985714Y71428000D01*
X40042857Y71313715D01*
X40042857Y71199429D01*
X39985714Y71085143D01*
X39928571Y71028000D01*
X39814285Y70970858D01*
X39528571Y70970858D01*
X39357142Y71028000D01*
X39014285Y70970858D02*
X38328571Y70970858D01*
X38671428Y72170858D02*
X38671428Y70970858D01*
X37928571Y71542286D02*
X37528571Y71542286D01*
X37357142Y72170858D02*
X37928571Y72170858D01*
X37928571Y70970858D01*
X37357142Y70970858D01*
X36842857Y72170858D02*
X36842857Y70970858D01*
X36385714Y70970858D01*
X36271428Y71028000D01*
X36214285Y71085143D01*
X36157142Y71199429D01*
X36157142Y71370858D01*
X36214285Y71485143D01*
X36271428Y71542286D01*
X36385714Y71599429D01*
X36842857Y71599429D01*
X28124000Y72170858D02*
X28124000Y70970858D01*
X27838285Y70970858D01*
X27666857Y71028000D01*
X27552571Y71142286D01*
X27495428Y71256572D01*
X27438285Y71485143D01*
X27438285Y71656572D01*
X27495428Y71885143D01*
X27552571Y71999429D01*
X27666857Y72113715D01*
X27838285Y72170858D01*
X28124000Y72170858D01*
X26924000Y72170858D02*
X26924000Y70970858D01*
X25666857Y72170858D02*
X26066857Y71599429D01*
X26352571Y72170858D02*
X26352571Y70970858D01*
X25895428Y70970858D01*
X25781142Y71028000D01*
X25724000Y71085143D01*
X25666857Y71199429D01*
X25666857Y71370858D01*
X25724000Y71485143D01*
X25781142Y71542286D01*
X25895428Y71599429D01*
X26352571Y71599429D01*
X18776571Y71542286D02*
X18376571Y71542286D01*
X18205142Y72170858D02*
X18776571Y72170858D01*
X18776571Y70970858D01*
X18205142Y70970858D01*
X17690857Y72170858D02*
X17690857Y70970858D01*
X17005142Y72170858D01*
X17005142Y70970858D01*
X16490857Y71828000D02*
X15919428Y71828000D01*
X16605142Y72170858D02*
X16205142Y70970858D01*
X15805142Y72170858D01*
X15005142Y71542286D02*
X14833714Y71599429D01*
X14776571Y71656572D01*
X14719428Y71770858D01*
X14719428Y71942286D01*
X14776571Y72056572D01*
X14833714Y72113715D01*
X14948000Y72170858D01*
X15405142Y72170858D01*
X15405142Y70970858D01*
X15005142Y70970858D01*
X14890857Y71028000D01*
X14833714Y71085143D01*
X14776571Y71199429D01*
X14776571Y71313715D01*
X14833714Y71428000D01*
X14890857Y71485143D01*
X15005142Y71542286D01*
X15405142Y71542286D01*
X13633714Y72170858D02*
X14205142Y72170858D01*
X14205142Y70970858D01*
X13233714Y71542286D02*
X12833714Y71542286D01*
X12662285Y72170858D02*
X13233714Y72170858D01*
X13233714Y70970858D01*
X12662285Y70970858D01*
D10*
X15240000Y4064000D02*
X15240000Y1016000D01*
D11*
X11785714Y1603429D02*
X11728571Y1546286D01*
X11557142Y1489143D01*
X11442857Y1489143D01*
X11271428Y1546286D01*
X11157142Y1660572D01*
X11100000Y1774858D01*
X11042857Y2003429D01*
X11042857Y2174858D01*
X11100000Y2403429D01*
X11157142Y2517715D01*
X11271428Y2632000D01*
X11442857Y2689143D01*
X11557142Y2689143D01*
X11728571Y2632000D01*
X11785714Y2574858D01*
X12300000Y1489143D02*
X12300000Y2689143D01*
X12700000Y1832000D01*
X13100000Y2689143D01*
X13100000Y1489143D01*
X13671428Y1489143D02*
X13671428Y2689143D01*
X13957142Y2689143D01*
X14128571Y2632000D01*
X14242857Y2517715D01*
X14300000Y2403429D01*
X14357142Y2174858D01*
X14357142Y2003429D01*
X14300000Y1774858D01*
X14242857Y1660572D01*
X14128571Y1546286D01*
X13957142Y1489143D01*
X13671428Y1489143D01*
X17380000Y1489143D02*
X17380000Y2689143D01*
X17780000Y1832000D01*
X18180000Y2689143D01*
X18180000Y1489143D01*
D10*
X26416000Y4064000D02*
X26416000Y1016000D01*
X31496000Y4064000D02*
X31496000Y1016000D01*
D11*
X38344571Y2117715D02*
X37944571Y2117715D01*
X37944571Y1489143D02*
X37944571Y2689143D01*
X38516000Y2689143D01*
X39544571Y1489143D02*
X38973142Y1489143D01*
X38973142Y2689143D01*
X39773142Y2689143D02*
X40458857Y2689143D01*
X40116000Y1489143D02*
X40116000Y2689143D01*
X32836000Y1489143D02*
X32836000Y2689143D01*
X33407428Y1489143D02*
X33407428Y2689143D01*
X34093142Y1489143D01*
X34093142Y2689143D01*
X35293142Y1489143D02*
X34607428Y1489143D01*
X34950285Y1489143D02*
X34950285Y2689143D01*
X34836000Y2517715D01*
X34721714Y2403429D01*
X34607428Y2346286D01*
X23476000Y1489143D02*
X23476000Y2689143D01*
X23876000Y1832000D01*
X24276000Y2689143D01*
X24276000Y1489143D01*
X27756000Y2689143D02*
X27984571Y2689143D01*
X28098857Y2632000D01*
X28213142Y2517715D01*
X28270285Y2289143D01*
X28270285Y1889143D01*
X28213142Y1660572D01*
X28098857Y1546286D01*
X27984571Y1489143D01*
X27756000Y1489143D01*
X27641714Y1546286D01*
X27527428Y1660572D01*
X27470285Y1889143D01*
X27470285Y2289143D01*
X27527428Y2517715D01*
X27641714Y2632000D01*
X27756000Y2689143D01*
X28784571Y2689143D02*
X28784571Y1717715D01*
X28841714Y1603429D01*
X28898857Y1546286D01*
X29013142Y1489143D01*
X29241714Y1489143D01*
X29356000Y1546286D01*
X29413142Y1603429D01*
X29470285Y1717715D01*
X29470285Y2689143D01*
X29870285Y2689143D02*
X30556000Y2689143D01*
X30213142Y1489143D02*
X30213142Y2689143D01*
D10*
X36576000Y4064000D02*
X36576000Y1016000D01*
D14*
X11629238Y25226286D02*
X12724476Y25226286D01*
X10424476Y24626286D02*
X11629238Y25226286D01*
X10424476Y25826286D01*
X12067333Y26340572D02*
X12067333Y27197715D01*
X12724476Y26169143D02*
X10424476Y26769143D01*
X12724476Y27369143D01*
X12724476Y27969143D02*
X10424476Y27969143D01*
X10424476Y28654858D01*
X10534000Y28826286D01*
X10643523Y28912000D01*
X10862571Y28997715D01*
X11191142Y28997715D01*
X11410190Y28912000D01*
X11519714Y28826286D01*
X11629238Y28654858D01*
X11629238Y27969143D01*
X12614952Y29683429D02*
X12724476Y29940572D01*
X12724476Y30369143D01*
X12614952Y30540572D01*
X12505428Y30626286D01*
X12286380Y30712000D01*
X12067333Y30712000D01*
X11848285Y30626286D01*
X11738761Y30540572D01*
X11629238Y30369143D01*
X11519714Y30026286D01*
X11410190Y29854858D01*
X11300666Y29769143D01*
X11081619Y29683429D01*
X10862571Y29683429D01*
X10643523Y29769143D01*
X10534000Y29854858D01*
X10424476Y30026286D01*
X10424476Y30454858D01*
X10534000Y30712000D01*
X12505428Y32512000D02*
X12614952Y32426286D01*
X12724476Y32169143D01*
X12724476Y31997715D01*
X12614952Y31740572D01*
X12395904Y31569143D01*
X12176857Y31483429D01*
X11738761Y31397715D01*
X11410190Y31397715D01*
X10972095Y31483429D01*
X10753047Y31569143D01*
X10534000Y31740572D01*
X10424476Y31997715D01*
X10424476Y32169143D01*
X10534000Y32426286D01*
X10643523Y32512000D01*
X10424476Y33626286D02*
X10424476Y33969143D01*
X10534000Y34140572D01*
X10753047Y34312000D01*
X11191142Y34397715D01*
X11957809Y34397715D01*
X12395904Y34312000D01*
X12614952Y34140572D01*
X12724476Y33969143D01*
X12724476Y33626286D01*
X12614952Y33454858D01*
X12395904Y33283429D01*
X11957809Y33197715D01*
X11191142Y33197715D01*
X10753047Y33283429D01*
X10534000Y33454858D01*
X10424476Y33626286D01*
X12505428Y35169143D02*
X12614952Y35254858D01*
X12724476Y35169143D01*
X12614952Y35083429D01*
X12505428Y35169143D01*
X12724476Y35169143D01*
X11300666Y35169143D02*
X11410190Y35254858D01*
X11519714Y35169143D01*
X11410190Y35083429D01*
X11300666Y35169143D01*
X11519714Y35169143D01*
X12724476Y36969143D02*
X12724476Y35940572D01*
X12724476Y36454858D02*
X10424476Y36454858D01*
X10753047Y36283429D01*
X10972095Y36112000D01*
X11081619Y35940572D01*
X10424476Y38083429D02*
X10424476Y38254858D01*
X10534000Y38426286D01*
X10643523Y38512000D01*
X10862571Y38597715D01*
X11300666Y38683429D01*
X11848285Y38683429D01*
X12286380Y38597715D01*
X12505428Y38512000D01*
X12614952Y38426286D01*
X12724476Y38254858D01*
X12724476Y38083429D01*
X12614952Y37912000D01*
X12505428Y37826286D01*
X12286380Y37740572D01*
X11848285Y37654858D01*
X11300666Y37654858D01*
X10862571Y37740572D01*
X10643523Y37826286D01*
X10534000Y37912000D01*
X10424476Y38083429D01*
X10424476Y39197715D02*
X12724476Y39797715D01*
X10424476Y40397715D01*
D12*
X27071000Y14435000D02*
X27071000Y13060000D01*
X35946000Y14435000D02*
X35946000Y18585000D01*
X27046000Y14435000D02*
X27046000Y18585000D01*
X35946000Y14435000D02*
X35831000Y14435000D01*
X35946000Y18585000D02*
X35831000Y18585000D01*
X27046000Y18585000D02*
X27161000Y18585000D01*
X27046000Y14435000D02*
X27071000Y14435000D01*
D15*
X49372759Y53462000D02*
X49372759Y52832000D01*
X49057759Y53147000D02*
X49687759Y53147000D01*
X55799000Y51710000D02*
X55799000Y50906000D01*
X55759000Y51941000D02*
X55759000Y50675000D01*
X55719000Y52110000D02*
X55719000Y50506000D01*
X55679000Y52248000D02*
X55679000Y50368000D01*
X55639000Y52367000D02*
X55639000Y50249000D01*
X55599000Y52473000D02*
X55599000Y50143000D01*
X55559000Y52570000D02*
X55559000Y50046000D01*
X55519000Y52658000D02*
X55519000Y49958000D01*
X55479000Y52740000D02*
X55479000Y49876000D01*
X55439000Y52817000D02*
X55439000Y49799000D01*
X55399000Y52889000D02*
X55399000Y49727000D01*
X55359000Y52958000D02*
X55359000Y49658000D01*
X55319000Y53022000D02*
X55319000Y49594000D01*
X55279000Y53084000D02*
X55279000Y49532000D01*
X55239000Y53142000D02*
X55239000Y49474000D01*
X55199000Y53198000D02*
X55199000Y49418000D01*
X55159000Y53252000D02*
X55159000Y49364000D01*
X55119000Y53303000D02*
X55119000Y49313000D01*
X55079000Y53352000D02*
X55079000Y49264000D01*
X55039000Y53400000D02*
X55039000Y49216000D01*
X54999000Y53445000D02*
X54999000Y49171000D01*
X54959000Y53490000D02*
X54959000Y49126000D01*
X54919000Y53532000D02*
X54919000Y49084000D01*
X54879000Y53573000D02*
X54879000Y49043000D01*
X54839000Y50268000D02*
X54839000Y49003000D01*
X54839000Y53613000D02*
X54839000Y52348000D01*
X54799000Y50268000D02*
X54799000Y48965000D01*
X54799000Y53651000D02*
X54799000Y52348000D01*
X54759000Y50268000D02*
X54759000Y48928000D01*
X54759000Y53688000D02*
X54759000Y52348000D01*
X54719000Y50268000D02*
X54719000Y48892000D01*
X54719000Y53724000D02*
X54719000Y52348000D01*
X54679000Y50268000D02*
X54679000Y48858000D01*
X54679000Y53758000D02*
X54679000Y52348000D01*
X54639000Y50268000D02*
X54639000Y48824000D01*
X54639000Y53792000D02*
X54639000Y52348000D01*
X54599000Y50268000D02*
X54599000Y48792000D01*
X54599000Y53824000D02*
X54599000Y52348000D01*
X54559000Y50268000D02*
X54559000Y48760000D01*
X54559000Y53856000D02*
X54559000Y52348000D01*
X54519000Y50268000D02*
X54519000Y48730000D01*
X54519000Y53886000D02*
X54519000Y52348000D01*
X54479000Y50268000D02*
X54479000Y48701000D01*
X54479000Y53915000D02*
X54479000Y52348000D01*
X54439000Y50268000D02*
X54439000Y48672000D01*
X54439000Y53944000D02*
X54439000Y52348000D01*
X54399000Y50268000D02*
X54399000Y48644000D01*
X54399000Y53972000D02*
X54399000Y52348000D01*
X54359000Y50268000D02*
X54359000Y48618000D01*
X54359000Y53998000D02*
X54359000Y52348000D01*
X54319000Y50268000D02*
X54319000Y48592000D01*
X54319000Y54024000D02*
X54319000Y52348000D01*
X54279000Y50268000D02*
X54279000Y48566000D01*
X54279000Y54050000D02*
X54279000Y52348000D01*
X54239000Y50268000D02*
X54239000Y48542000D01*
X54239000Y54074000D02*
X54239000Y52348000D01*
X54199000Y50268000D02*
X54199000Y48518000D01*
X54199000Y54098000D02*
X54199000Y52348000D01*
X54159000Y50268000D02*
X54159000Y48496000D01*
X54159000Y54120000D02*
X54159000Y52348000D01*
X54119000Y50268000D02*
X54119000Y48474000D01*
X54119000Y54142000D02*
X54119000Y52348000D01*
X54079000Y50268000D02*
X54079000Y48452000D01*
X54079000Y54164000D02*
X54079000Y52348000D01*
X54039000Y50268000D02*
X54039000Y48432000D01*
X54039000Y54184000D02*
X54039000Y52348000D01*
X53999000Y50268000D02*
X53999000Y48412000D01*
X53999000Y54204000D02*
X53999000Y52348000D01*
X53959000Y50268000D02*
X53959000Y48392000D01*
X53959000Y54224000D02*
X53959000Y52348000D01*
X53919000Y50268000D02*
X53919000Y48374000D01*
X53919000Y54242000D02*
X53919000Y52348000D01*
X53879000Y50268000D02*
X53879000Y48356000D01*
X53879000Y54260000D02*
X53879000Y52348000D01*
X53839000Y50268000D02*
X53839000Y48338000D01*
X53839000Y54278000D02*
X53839000Y52348000D01*
X53799000Y50268000D02*
X53799000Y48322000D01*
X53799000Y54294000D02*
X53799000Y52348000D01*
X53759000Y50268000D02*
X53759000Y48306000D01*
X53759000Y54310000D02*
X53759000Y52348000D01*
X53719000Y50268000D02*
X53719000Y48290000D01*
X53719000Y54326000D02*
X53719000Y52348000D01*
X53679000Y50268000D02*
X53679000Y48275000D01*
X53679000Y54341000D02*
X53679000Y52348000D01*
X53639000Y50268000D02*
X53639000Y48261000D01*
X53639000Y54355000D02*
X53639000Y52348000D01*
X53599000Y50268000D02*
X53599000Y48247000D01*
X53599000Y54369000D02*
X53599000Y52348000D01*
X53559000Y50268000D02*
X53559000Y48234000D01*
X53559000Y54382000D02*
X53559000Y52348000D01*
X53519000Y50268000D02*
X53519000Y48222000D01*
X53519000Y54394000D02*
X53519000Y52348000D01*
X53479000Y50268000D02*
X53479000Y48210000D01*
X53479000Y54406000D02*
X53479000Y52348000D01*
X53439000Y50268000D02*
X53439000Y48198000D01*
X53439000Y54418000D02*
X53439000Y52348000D01*
X53399000Y50268000D02*
X53399000Y48187000D01*
X53399000Y54429000D02*
X53399000Y52348000D01*
X53359000Y50268000D02*
X53359000Y48177000D01*
X53359000Y54439000D02*
X53359000Y52348000D01*
X53319000Y50268000D02*
X53319000Y48167000D01*
X53319000Y54449000D02*
X53319000Y52348000D01*
X53279000Y50268000D02*
X53279000Y48158000D01*
X53279000Y54458000D02*
X53279000Y52348000D01*
X53238000Y50268000D02*
X53238000Y48149000D01*
X53238000Y54467000D02*
X53238000Y52348000D01*
X53198000Y50268000D02*
X53198000Y48141000D01*
X53198000Y54475000D02*
X53198000Y52348000D01*
X53158000Y50268000D02*
X53158000Y48133000D01*
X53158000Y54483000D02*
X53158000Y52348000D01*
X53118000Y50268000D02*
X53118000Y48126000D01*
X53118000Y54490000D02*
X53118000Y52348000D01*
X53078000Y50268000D02*
X53078000Y48119000D01*
X53078000Y54497000D02*
X53078000Y52348000D01*
X53038000Y50268000D02*
X53038000Y48113000D01*
X53038000Y54503000D02*
X53038000Y52348000D01*
X52998000Y50268000D02*
X52998000Y48107000D01*
X52998000Y54509000D02*
X52998000Y52348000D01*
X52958000Y50268000D02*
X52958000Y48102000D01*
X52958000Y54514000D02*
X52958000Y52348000D01*
X52918000Y50268000D02*
X52918000Y48097000D01*
X52918000Y54519000D02*
X52918000Y52348000D01*
X52878000Y50268000D02*
X52878000Y48093000D01*
X52878000Y54523000D02*
X52878000Y52348000D01*
X52838000Y50268000D02*
X52838000Y48090000D01*
X52838000Y54526000D02*
X52838000Y52348000D01*
X52798000Y50268000D02*
X52798000Y48086000D01*
X52798000Y54530000D02*
X52798000Y52348000D01*
X52758000Y54532000D02*
X52758000Y48084000D01*
X52718000Y54535000D02*
X52718000Y48081000D01*
X52678000Y54536000D02*
X52678000Y48080000D01*
X52638000Y54538000D02*
X52638000Y48078000D01*
X52598000Y54538000D02*
X52598000Y48078000D01*
X52558000Y54538000D02*
X52558000Y48078000D01*
X55828000Y51308000D02*
G75*
G03X55828000Y51308000I-3270000J0D01*
G01*
X64718000Y41394748D02*
X64718000Y41917252D01*
X63298000Y41394748D02*
X63298000Y41917252D01*
X49372759Y68702000D02*
X49372759Y68072000D01*
X49057759Y68387000D02*
X49687759Y68387000D01*
X55799000Y66950000D02*
X55799000Y66146000D01*
X55759000Y67181000D02*
X55759000Y65915000D01*
X55719000Y67350000D02*
X55719000Y65746000D01*
X55679000Y67488000D02*
X55679000Y65608000D01*
X55639000Y67607000D02*
X55639000Y65489000D01*
X55599000Y67713000D02*
X55599000Y65383000D01*
X55559000Y67810000D02*
X55559000Y65286000D01*
X55519000Y67898000D02*
X55519000Y65198000D01*
X55479000Y67980000D02*
X55479000Y65116000D01*
X55439000Y68057000D02*
X55439000Y65039000D01*
X55399000Y68129000D02*
X55399000Y64967000D01*
X55359000Y68198000D02*
X55359000Y64898000D01*
X55319000Y68262000D02*
X55319000Y64834000D01*
X55279000Y68324000D02*
X55279000Y64772000D01*
X55239000Y68382000D02*
X55239000Y64714000D01*
X55199000Y68438000D02*
X55199000Y64658000D01*
X55159000Y68492000D02*
X55159000Y64604000D01*
X55119000Y68543000D02*
X55119000Y64553000D01*
X55079000Y68592000D02*
X55079000Y64504000D01*
X55039000Y68640000D02*
X55039000Y64456000D01*
X54999000Y68685000D02*
X54999000Y64411000D01*
X54959000Y68730000D02*
X54959000Y64366000D01*
X54919000Y68772000D02*
X54919000Y64324000D01*
X54879000Y68813000D02*
X54879000Y64283000D01*
X54839000Y65508000D02*
X54839000Y64243000D01*
X54839000Y68853000D02*
X54839000Y67588000D01*
X54799000Y65508000D02*
X54799000Y64205000D01*
X54799000Y68891000D02*
X54799000Y67588000D01*
X54759000Y65508000D02*
X54759000Y64168000D01*
X54759000Y68928000D02*
X54759000Y67588000D01*
X54719000Y65508000D02*
X54719000Y64132000D01*
X54719000Y68964000D02*
X54719000Y67588000D01*
X54679000Y65508000D02*
X54679000Y64098000D01*
X54679000Y68998000D02*
X54679000Y67588000D01*
X54639000Y65508000D02*
X54639000Y64064000D01*
X54639000Y69032000D02*
X54639000Y67588000D01*
X54599000Y65508000D02*
X54599000Y64032000D01*
X54599000Y69064000D02*
X54599000Y67588000D01*
X54559000Y65508000D02*
X54559000Y64000000D01*
X54559000Y69096000D02*
X54559000Y67588000D01*
X54519000Y65508000D02*
X54519000Y63970000D01*
X54519000Y69126000D02*
X54519000Y67588000D01*
X54479000Y65508000D02*
X54479000Y63941000D01*
X54479000Y69155000D02*
X54479000Y67588000D01*
X54439000Y65508000D02*
X54439000Y63912000D01*
X54439000Y69184000D02*
X54439000Y67588000D01*
X54399000Y65508000D02*
X54399000Y63884000D01*
X54399000Y69212000D02*
X54399000Y67588000D01*
X54359000Y65508000D02*
X54359000Y63858000D01*
X54359000Y69238000D02*
X54359000Y67588000D01*
X54319000Y65508000D02*
X54319000Y63832000D01*
X54319000Y69264000D02*
X54319000Y67588000D01*
X54279000Y65508000D02*
X54279000Y63806000D01*
X54279000Y69290000D02*
X54279000Y67588000D01*
X54239000Y65508000D02*
X54239000Y63782000D01*
X54239000Y69314000D02*
X54239000Y67588000D01*
X54199000Y65508000D02*
X54199000Y63758000D01*
X54199000Y69338000D02*
X54199000Y67588000D01*
X54159000Y65508000D02*
X54159000Y63736000D01*
X54159000Y69360000D02*
X54159000Y67588000D01*
X54119000Y65508000D02*
X54119000Y63714000D01*
X54119000Y69382000D02*
X54119000Y67588000D01*
X54079000Y65508000D02*
X54079000Y63692000D01*
X54079000Y69404000D02*
X54079000Y67588000D01*
X54039000Y65508000D02*
X54039000Y63672000D01*
X54039000Y69424000D02*
X54039000Y67588000D01*
X53999000Y65508000D02*
X53999000Y63652000D01*
X53999000Y69444000D02*
X53999000Y67588000D01*
X53959000Y65508000D02*
X53959000Y63632000D01*
X53959000Y69464000D02*
X53959000Y67588000D01*
X53919000Y65508000D02*
X53919000Y63614000D01*
X53919000Y69482000D02*
X53919000Y67588000D01*
X53879000Y65508000D02*
X53879000Y63596000D01*
X53879000Y69500000D02*
X53879000Y67588000D01*
X53839000Y65508000D02*
X53839000Y63578000D01*
X53839000Y69518000D02*
X53839000Y67588000D01*
X53799000Y65508000D02*
X53799000Y63562000D01*
X53799000Y69534000D02*
X53799000Y67588000D01*
X53759000Y65508000D02*
X53759000Y63546000D01*
X53759000Y69550000D02*
X53759000Y67588000D01*
X53719000Y65508000D02*
X53719000Y63530000D01*
X53719000Y69566000D02*
X53719000Y67588000D01*
X53679000Y65508000D02*
X53679000Y63515000D01*
X53679000Y69581000D02*
X53679000Y67588000D01*
X53639000Y65508000D02*
X53639000Y63501000D01*
X53639000Y69595000D02*
X53639000Y67588000D01*
X53599000Y65508000D02*
X53599000Y63487000D01*
X53599000Y69609000D02*
X53599000Y67588000D01*
X53559000Y65508000D02*
X53559000Y63474000D01*
X53559000Y69622000D02*
X53559000Y67588000D01*
X53519000Y65508000D02*
X53519000Y63462000D01*
X53519000Y69634000D02*
X53519000Y67588000D01*
X53479000Y65508000D02*
X53479000Y63450000D01*
X53479000Y69646000D02*
X53479000Y67588000D01*
X53439000Y65508000D02*
X53439000Y63438000D01*
X53439000Y69658000D02*
X53439000Y67588000D01*
X53399000Y65508000D02*
X53399000Y63427000D01*
X53399000Y69669000D02*
X53399000Y67588000D01*
X53359000Y65508000D02*
X53359000Y63417000D01*
X53359000Y69679000D02*
X53359000Y67588000D01*
X53319000Y65508000D02*
X53319000Y63407000D01*
X53319000Y69689000D02*
X53319000Y67588000D01*
X53279000Y65508000D02*
X53279000Y63398000D01*
X53279000Y69698000D02*
X53279000Y67588000D01*
X53238000Y65508000D02*
X53238000Y63389000D01*
X53238000Y69707000D02*
X53238000Y67588000D01*
X53198000Y65508000D02*
X53198000Y63381000D01*
X53198000Y69715000D02*
X53198000Y67588000D01*
X53158000Y65508000D02*
X53158000Y63373000D01*
X53158000Y69723000D02*
X53158000Y67588000D01*
X53118000Y65508000D02*
X53118000Y63366000D01*
X53118000Y69730000D02*
X53118000Y67588000D01*
X53078000Y65508000D02*
X53078000Y63359000D01*
X53078000Y69737000D02*
X53078000Y67588000D01*
X53038000Y65508000D02*
X53038000Y63353000D01*
X53038000Y69743000D02*
X53038000Y67588000D01*
X52998000Y65508000D02*
X52998000Y63347000D01*
X52998000Y69749000D02*
X52998000Y67588000D01*
X52958000Y65508000D02*
X52958000Y63342000D01*
X52958000Y69754000D02*
X52958000Y67588000D01*
X52918000Y65508000D02*
X52918000Y63337000D01*
X52918000Y69759000D02*
X52918000Y67588000D01*
X52878000Y65508000D02*
X52878000Y63333000D01*
X52878000Y69763000D02*
X52878000Y67588000D01*
X52838000Y65508000D02*
X52838000Y63330000D01*
X52838000Y69766000D02*
X52838000Y67588000D01*
X52798000Y65508000D02*
X52798000Y63326000D01*
X52798000Y69770000D02*
X52798000Y67588000D01*
X52758000Y69772000D02*
X52758000Y63324000D01*
X52718000Y69775000D02*
X52718000Y63321000D01*
X52678000Y69776000D02*
X52678000Y63320000D01*
X52638000Y69778000D02*
X52638000Y63318000D01*
X52598000Y69778000D02*
X52598000Y63318000D01*
X52558000Y69778000D02*
X52558000Y63318000D01*
X55828000Y66548000D02*
G75*
G03X55828000Y66548000I-3270000J0D01*
G01*
X28036759Y41270000D02*
X28036759Y40640000D01*
X27721759Y40955000D02*
X28351759Y40955000D01*
X34463000Y39518000D02*
X34463000Y38714000D01*
X34423000Y39749000D02*
X34423000Y38483000D01*
X34383000Y39918000D02*
X34383000Y38314000D01*
X34343000Y40056000D02*
X34343000Y38176000D01*
X34303000Y40175000D02*
X34303000Y38057000D01*
X34263000Y40281000D02*
X34263000Y37951000D01*
X34223000Y40378000D02*
X34223000Y37854000D01*
X34183000Y40466000D02*
X34183000Y37766000D01*
X34143000Y40548000D02*
X34143000Y37684000D01*
X34103000Y40625000D02*
X34103000Y37607000D01*
X34063000Y40697000D02*
X34063000Y37535000D01*
X34023000Y40766000D02*
X34023000Y37466000D01*
X33983000Y40830000D02*
X33983000Y37402000D01*
X33943000Y40892000D02*
X33943000Y37340000D01*
X33903000Y40950000D02*
X33903000Y37282000D01*
X33863000Y41006000D02*
X33863000Y37226000D01*
X33823000Y41060000D02*
X33823000Y37172000D01*
X33783000Y41111000D02*
X33783000Y37121000D01*
X33743000Y41160000D02*
X33743000Y37072000D01*
X33703000Y41208000D02*
X33703000Y37024000D01*
X33663000Y41253000D02*
X33663000Y36979000D01*
X33623000Y41298000D02*
X33623000Y36934000D01*
X33583000Y41340000D02*
X33583000Y36892000D01*
X33543000Y41381000D02*
X33543000Y36851000D01*
X33503000Y38076000D02*
X33503000Y36811000D01*
X33503000Y41421000D02*
X33503000Y40156000D01*
X33463000Y38076000D02*
X33463000Y36773000D01*
X33463000Y41459000D02*
X33463000Y40156000D01*
X33423000Y38076000D02*
X33423000Y36736000D01*
X33423000Y41496000D02*
X33423000Y40156000D01*
X33383000Y38076000D02*
X33383000Y36700000D01*
X33383000Y41532000D02*
X33383000Y40156000D01*
X33343000Y38076000D02*
X33343000Y36666000D01*
X33343000Y41566000D02*
X33343000Y40156000D01*
X33303000Y38076000D02*
X33303000Y36632000D01*
X33303000Y41600000D02*
X33303000Y40156000D01*
X33263000Y38076000D02*
X33263000Y36600000D01*
X33263000Y41632000D02*
X33263000Y40156000D01*
X33223000Y38076000D02*
X33223000Y36568000D01*
X33223000Y41664000D02*
X33223000Y40156000D01*
X33183000Y38076000D02*
X33183000Y36538000D01*
X33183000Y41694000D02*
X33183000Y40156000D01*
X33143000Y38076000D02*
X33143000Y36509000D01*
X33143000Y41723000D02*
X33143000Y40156000D01*
X33103000Y38076000D02*
X33103000Y36480000D01*
X33103000Y41752000D02*
X33103000Y40156000D01*
X33063000Y38076000D02*
X33063000Y36452000D01*
X33063000Y41780000D02*
X33063000Y40156000D01*
X33023000Y38076000D02*
X33023000Y36426000D01*
X33023000Y41806000D02*
X33023000Y40156000D01*
X32983000Y38076000D02*
X32983000Y36400000D01*
X32983000Y41832000D02*
X32983000Y40156000D01*
X32943000Y38076000D02*
X32943000Y36374000D01*
X32943000Y41858000D02*
X32943000Y40156000D01*
X32903000Y38076000D02*
X32903000Y36350000D01*
X32903000Y41882000D02*
X32903000Y40156000D01*
X32863000Y38076000D02*
X32863000Y36326000D01*
X32863000Y41906000D02*
X32863000Y40156000D01*
X32823000Y38076000D02*
X32823000Y36304000D01*
X32823000Y41928000D02*
X32823000Y40156000D01*
X32783000Y38076000D02*
X32783000Y36282000D01*
X32783000Y41950000D02*
X32783000Y40156000D01*
X32743000Y38076000D02*
X32743000Y36260000D01*
X32743000Y41972000D02*
X32743000Y40156000D01*
X32703000Y38076000D02*
X32703000Y36240000D01*
X32703000Y41992000D02*
X32703000Y40156000D01*
X32663000Y38076000D02*
X32663000Y36220000D01*
X32663000Y42012000D02*
X32663000Y40156000D01*
X32623000Y38076000D02*
X32623000Y36200000D01*
X32623000Y42032000D02*
X32623000Y40156000D01*
X32583000Y38076000D02*
X32583000Y36182000D01*
X32583000Y42050000D02*
X32583000Y40156000D01*
X32543000Y38076000D02*
X32543000Y36164000D01*
X32543000Y42068000D02*
X32543000Y40156000D01*
X32503000Y38076000D02*
X32503000Y36146000D01*
X32503000Y42086000D02*
X32503000Y40156000D01*
X32463000Y38076000D02*
X32463000Y36130000D01*
X32463000Y42102000D02*
X32463000Y40156000D01*
X32423000Y38076000D02*
X32423000Y36114000D01*
X32423000Y42118000D02*
X32423000Y40156000D01*
X32383000Y38076000D02*
X32383000Y36098000D01*
X32383000Y42134000D02*
X32383000Y40156000D01*
X32343000Y38076000D02*
X32343000Y36083000D01*
X32343000Y42149000D02*
X32343000Y40156000D01*
X32303000Y38076000D02*
X32303000Y36069000D01*
X32303000Y42163000D02*
X32303000Y40156000D01*
X32263000Y38076000D02*
X32263000Y36055000D01*
X32263000Y42177000D02*
X32263000Y40156000D01*
X32223000Y38076000D02*
X32223000Y36042000D01*
X32223000Y42190000D02*
X32223000Y40156000D01*
X32183000Y38076000D02*
X32183000Y36030000D01*
X32183000Y42202000D02*
X32183000Y40156000D01*
X32143000Y38076000D02*
X32143000Y36018000D01*
X32143000Y42214000D02*
X32143000Y40156000D01*
X32103000Y38076000D02*
X32103000Y36006000D01*
X32103000Y42226000D02*
X32103000Y40156000D01*
X32063000Y38076000D02*
X32063000Y35995000D01*
X32063000Y42237000D02*
X32063000Y40156000D01*
X32023000Y38076000D02*
X32023000Y35985000D01*
X32023000Y42247000D02*
X32023000Y40156000D01*
X31983000Y38076000D02*
X31983000Y35975000D01*
X31983000Y42257000D02*
X31983000Y40156000D01*
X31943000Y38076000D02*
X31943000Y35966000D01*
X31943000Y42266000D02*
X31943000Y40156000D01*
X31902000Y38076000D02*
X31902000Y35957000D01*
X31902000Y42275000D02*
X31902000Y40156000D01*
X31862000Y38076000D02*
X31862000Y35949000D01*
X31862000Y42283000D02*
X31862000Y40156000D01*
X31822000Y38076000D02*
X31822000Y35941000D01*
X31822000Y42291000D02*
X31822000Y40156000D01*
X31782000Y38076000D02*
X31782000Y35934000D01*
X31782000Y42298000D02*
X31782000Y40156000D01*
X31742000Y38076000D02*
X31742000Y35927000D01*
X31742000Y42305000D02*
X31742000Y40156000D01*
X31702000Y38076000D02*
X31702000Y35921000D01*
X31702000Y42311000D02*
X31702000Y40156000D01*
X31662000Y38076000D02*
X31662000Y35915000D01*
X31662000Y42317000D02*
X31662000Y40156000D01*
X31622000Y38076000D02*
X31622000Y35910000D01*
X31622000Y42322000D02*
X31622000Y40156000D01*
X31582000Y38076000D02*
X31582000Y35905000D01*
X31582000Y42327000D02*
X31582000Y40156000D01*
X31542000Y38076000D02*
X31542000Y35901000D01*
X31542000Y42331000D02*
X31542000Y40156000D01*
X31502000Y38076000D02*
X31502000Y35898000D01*
X31502000Y42334000D02*
X31502000Y40156000D01*
X31462000Y38076000D02*
X31462000Y35894000D01*
X31462000Y42338000D02*
X31462000Y40156000D01*
X31422000Y42340000D02*
X31422000Y35892000D01*
X31382000Y42343000D02*
X31382000Y35889000D01*
X31342000Y42344000D02*
X31342000Y35888000D01*
X31302000Y42346000D02*
X31302000Y35886000D01*
X31262000Y42346000D02*
X31262000Y35886000D01*
X31222000Y42346000D02*
X31222000Y35886000D01*
X34492000Y39116000D02*
G75*
G03X34492000Y39116000I-3270000J0D01*
G01*
X49372759Y61082000D02*
X49372759Y60452000D01*
X49057759Y60767000D02*
X49687759Y60767000D01*
X55799000Y59330000D02*
X55799000Y58526000D01*
X55759000Y59561000D02*
X55759000Y58295000D01*
X55719000Y59730000D02*
X55719000Y58126000D01*
X55679000Y59868000D02*
X55679000Y57988000D01*
X55639000Y59987000D02*
X55639000Y57869000D01*
X55599000Y60093000D02*
X55599000Y57763000D01*
X55559000Y60190000D02*
X55559000Y57666000D01*
X55519000Y60278000D02*
X55519000Y57578000D01*
X55479000Y60360000D02*
X55479000Y57496000D01*
X55439000Y60437000D02*
X55439000Y57419000D01*
X55399000Y60509000D02*
X55399000Y57347000D01*
X55359000Y60578000D02*
X55359000Y57278000D01*
X55319000Y60642000D02*
X55319000Y57214000D01*
X55279000Y60704000D02*
X55279000Y57152000D01*
X55239000Y60762000D02*
X55239000Y57094000D01*
X55199000Y60818000D02*
X55199000Y57038000D01*
X55159000Y60872000D02*
X55159000Y56984000D01*
X55119000Y60923000D02*
X55119000Y56933000D01*
X55079000Y60972000D02*
X55079000Y56884000D01*
X55039000Y61020000D02*
X55039000Y56836000D01*
X54999000Y61065000D02*
X54999000Y56791000D01*
X54959000Y61110000D02*
X54959000Y56746000D01*
X54919000Y61152000D02*
X54919000Y56704000D01*
X54879000Y61193000D02*
X54879000Y56663000D01*
X54839000Y57888000D02*
X54839000Y56623000D01*
X54839000Y61233000D02*
X54839000Y59968000D01*
X54799000Y57888000D02*
X54799000Y56585000D01*
X54799000Y61271000D02*
X54799000Y59968000D01*
X54759000Y57888000D02*
X54759000Y56548000D01*
X54759000Y61308000D02*
X54759000Y59968000D01*
X54719000Y57888000D02*
X54719000Y56512000D01*
X54719000Y61344000D02*
X54719000Y59968000D01*
X54679000Y57888000D02*
X54679000Y56478000D01*
X54679000Y61378000D02*
X54679000Y59968000D01*
X54639000Y57888000D02*
X54639000Y56444000D01*
X54639000Y61412000D02*
X54639000Y59968000D01*
X54599000Y57888000D02*
X54599000Y56412000D01*
X54599000Y61444000D02*
X54599000Y59968000D01*
X54559000Y57888000D02*
X54559000Y56380000D01*
X54559000Y61476000D02*
X54559000Y59968000D01*
X54519000Y57888000D02*
X54519000Y56350000D01*
X54519000Y61506000D02*
X54519000Y59968000D01*
X54479000Y57888000D02*
X54479000Y56321000D01*
X54479000Y61535000D02*
X54479000Y59968000D01*
X54439000Y57888000D02*
X54439000Y56292000D01*
X54439000Y61564000D02*
X54439000Y59968000D01*
X54399000Y57888000D02*
X54399000Y56264000D01*
X54399000Y61592000D02*
X54399000Y59968000D01*
X54359000Y57888000D02*
X54359000Y56238000D01*
X54359000Y61618000D02*
X54359000Y59968000D01*
X54319000Y57888000D02*
X54319000Y56212000D01*
X54319000Y61644000D02*
X54319000Y59968000D01*
X54279000Y57888000D02*
X54279000Y56186000D01*
X54279000Y61670000D02*
X54279000Y59968000D01*
X54239000Y57888000D02*
X54239000Y56162000D01*
X54239000Y61694000D02*
X54239000Y59968000D01*
X54199000Y57888000D02*
X54199000Y56138000D01*
X54199000Y61718000D02*
X54199000Y59968000D01*
X54159000Y57888000D02*
X54159000Y56116000D01*
X54159000Y61740000D02*
X54159000Y59968000D01*
X54119000Y57888000D02*
X54119000Y56094000D01*
X54119000Y61762000D02*
X54119000Y59968000D01*
X54079000Y57888000D02*
X54079000Y56072000D01*
X54079000Y61784000D02*
X54079000Y59968000D01*
X54039000Y57888000D02*
X54039000Y56052000D01*
X54039000Y61804000D02*
X54039000Y59968000D01*
X53999000Y57888000D02*
X53999000Y56032000D01*
X53999000Y61824000D02*
X53999000Y59968000D01*
X53959000Y57888000D02*
X53959000Y56012000D01*
X53959000Y61844000D02*
X53959000Y59968000D01*
X53919000Y57888000D02*
X53919000Y55994000D01*
X53919000Y61862000D02*
X53919000Y59968000D01*
X53879000Y57888000D02*
X53879000Y55976000D01*
X53879000Y61880000D02*
X53879000Y59968000D01*
X53839000Y57888000D02*
X53839000Y55958000D01*
X53839000Y61898000D02*
X53839000Y59968000D01*
X53799000Y57888000D02*
X53799000Y55942000D01*
X53799000Y61914000D02*
X53799000Y59968000D01*
X53759000Y57888000D02*
X53759000Y55926000D01*
X53759000Y61930000D02*
X53759000Y59968000D01*
X53719000Y57888000D02*
X53719000Y55910000D01*
X53719000Y61946000D02*
X53719000Y59968000D01*
X53679000Y57888000D02*
X53679000Y55895000D01*
X53679000Y61961000D02*
X53679000Y59968000D01*
X53639000Y57888000D02*
X53639000Y55881000D01*
X53639000Y61975000D02*
X53639000Y59968000D01*
X53599000Y57888000D02*
X53599000Y55867000D01*
X53599000Y61989000D02*
X53599000Y59968000D01*
X53559000Y57888000D02*
X53559000Y55854000D01*
X53559000Y62002000D02*
X53559000Y59968000D01*
X53519000Y57888000D02*
X53519000Y55842000D01*
X53519000Y62014000D02*
X53519000Y59968000D01*
X53479000Y57888000D02*
X53479000Y55830000D01*
X53479000Y62026000D02*
X53479000Y59968000D01*
X53439000Y57888000D02*
X53439000Y55818000D01*
X53439000Y62038000D02*
X53439000Y59968000D01*
X53399000Y57888000D02*
X53399000Y55807000D01*
X53399000Y62049000D02*
X53399000Y59968000D01*
X53359000Y57888000D02*
X53359000Y55797000D01*
X53359000Y62059000D02*
X53359000Y59968000D01*
X53319000Y57888000D02*
X53319000Y55787000D01*
X53319000Y62069000D02*
X53319000Y59968000D01*
X53279000Y57888000D02*
X53279000Y55778000D01*
X53279000Y62078000D02*
X53279000Y59968000D01*
X53238000Y57888000D02*
X53238000Y55769000D01*
X53238000Y62087000D02*
X53238000Y59968000D01*
X53198000Y57888000D02*
X53198000Y55761000D01*
X53198000Y62095000D02*
X53198000Y59968000D01*
X53158000Y57888000D02*
X53158000Y55753000D01*
X53158000Y62103000D02*
X53158000Y59968000D01*
X53118000Y57888000D02*
X53118000Y55746000D01*
X53118000Y62110000D02*
X53118000Y59968000D01*
X53078000Y57888000D02*
X53078000Y55739000D01*
X53078000Y62117000D02*
X53078000Y59968000D01*
X53038000Y57888000D02*
X53038000Y55733000D01*
X53038000Y62123000D02*
X53038000Y59968000D01*
X52998000Y57888000D02*
X52998000Y55727000D01*
X52998000Y62129000D02*
X52998000Y59968000D01*
X52958000Y57888000D02*
X52958000Y55722000D01*
X52958000Y62134000D02*
X52958000Y59968000D01*
X52918000Y57888000D02*
X52918000Y55717000D01*
X52918000Y62139000D02*
X52918000Y59968000D01*
X52878000Y57888000D02*
X52878000Y55713000D01*
X52878000Y62143000D02*
X52878000Y59968000D01*
X52838000Y57888000D02*
X52838000Y55710000D01*
X52838000Y62146000D02*
X52838000Y59968000D01*
X52798000Y57888000D02*
X52798000Y55706000D01*
X52798000Y62150000D02*
X52798000Y59968000D01*
X52758000Y62152000D02*
X52758000Y55704000D01*
X52718000Y62155000D02*
X52718000Y55701000D01*
X52678000Y62156000D02*
X52678000Y55700000D01*
X52638000Y62158000D02*
X52638000Y55698000D01*
X52598000Y62158000D02*
X52598000Y55698000D01*
X52558000Y62158000D02*
X52558000Y55698000D01*
X55828000Y58928000D02*
G75*
G03X55828000Y58928000I-3270000J0D01*
G01*
X30934000Y30388000D02*
X27994000Y30388000D01*
X30934000Y30148000D02*
X27994000Y30148000D01*
X30934000Y30268000D02*
X27994000Y30268000D01*
X29464000Y24708000D02*
X29464000Y25728000D01*
X29464000Y32188000D02*
X29464000Y31168000D01*
X30934000Y25728000D02*
X30934000Y31168000D01*
X27994000Y25728000D02*
X30934000Y25728000D01*
X27994000Y31168000D02*
X27994000Y25728000D01*
X30934000Y31168000D02*
X27994000Y31168000D01*
X76282000Y59761000D02*
X73422000Y59761000D01*
X76282000Y57841000D02*
X76282000Y59761000D01*
X73422000Y57841000D02*
X76282000Y57841000D01*
X76282000Y57348000D02*
X73422000Y57348000D01*
X76282000Y55428000D02*
X76282000Y57348000D01*
X73422000Y55428000D02*
X76282000Y55428000D01*
X76282000Y54808000D02*
X73422000Y54808000D01*
X76282000Y52888000D02*
X76282000Y54808000D01*
X73422000Y52888000D02*
X76282000Y52888000D01*
X76282000Y51252000D02*
X73422000Y51252000D01*
X76282000Y49332000D02*
X76282000Y51252000D01*
X73422000Y49332000D02*
X76282000Y49332000D01*
X8821325Y26767000D02*
X9254338Y27017000D01*
X9254338Y26517000D02*
X8821325Y26767000D01*
X9254338Y27017000D02*
X9254338Y26517000D01*
X8360000Y16802000D02*
X-6180000Y16802000D01*
X8360000Y56122000D02*
X8360000Y16802000D01*
X-6180000Y56122000D02*
X8360000Y56122000D01*
X64008000Y15529325D02*
X63758000Y15962338D01*
X64258000Y15962338D02*
X64008000Y15529325D01*
X63758000Y15962338D02*
X64258000Y15962338D01*
X73953000Y15068000D02*
X73953000Y528000D01*
X42983000Y15068000D02*
X73953000Y15068000D01*
X42983000Y528000D02*
X42983000Y15068000D01*
X56896000Y62230000D02*
X72136000Y62230000D01*
X56896000Y69850000D02*
X72136000Y69850000D01*
X56896000Y63500000D02*
X72136000Y63500000D01*
X72136000Y62230000D02*
X72136000Y69850000D01*
X56896000Y62230000D02*
X56896000Y69850000D01*
X36770000Y16958000D02*
X36770000Y18288000D01*
X38100000Y16958000D02*
X36770000Y16958000D01*
X39370000Y16958000D02*
X39370000Y19618000D01*
X39370000Y19618000D02*
X44510000Y19618000D01*
X39370000Y16958000D02*
X44510000Y16958000D01*
X44510000Y16958000D02*
X44510000Y19618000D01*
X48764000Y43290000D02*
X48764000Y42340000D01*
X35564000Y37990000D02*
X35564000Y38940000D01*
X48764000Y43290000D02*
X43564000Y45740000D01*
X35564000Y37990000D02*
X40764000Y35540000D01*
X48764000Y37990000D02*
X43564000Y35540000D01*
X48764000Y37990000D02*
X48764000Y38940000D01*
X35564000Y43290000D02*
X40764000Y45740000D01*
X35564000Y43290000D02*
X35564000Y42340000D01*
X33020000Y62230000D02*
X43180000Y62230000D01*
X33020000Y69850000D02*
X33020000Y62230000D01*
X43180000Y69850000D02*
X33020000Y69850000D01*
X43180000Y62230000D02*
X43180000Y69850000D01*
X43180000Y63500000D02*
X33020000Y63500000D01*
X21844000Y62230000D02*
X32004000Y62230000D01*
X21844000Y69850000D02*
X21844000Y62230000D01*
X32004000Y69850000D02*
X21844000Y69850000D01*
X32004000Y62230000D02*
X32004000Y69850000D01*
X32004000Y63500000D02*
X21844000Y63500000D01*
X10668000Y62230000D02*
X20828000Y62230000D01*
X10668000Y69850000D02*
X10668000Y62230000D01*
X20828000Y69850000D02*
X10668000Y69850000D01*
X20828000Y62230000D02*
X20828000Y69850000D01*
X20828000Y63500000D02*
X10668000Y63500000D01*
X10160000Y4826000D02*
X20320000Y4826000D01*
X10160000Y12446000D02*
X10160000Y4826000D01*
X20320000Y12446000D02*
X10160000Y12446000D01*
X20320000Y4826000D02*
X20320000Y12446000D01*
X20320000Y6096000D02*
X10160000Y6096000D01*
X21336000Y4826000D02*
X41656000Y4826000D01*
X21336000Y12446000D02*
X41656000Y12446000D01*
X41656000Y6096000D02*
X21336000Y6096000D01*
X41656000Y4826000D02*
X41656000Y12446000D01*
X21336000Y12446000D02*
X21336000Y4826000D01*
X80578000Y14919000D02*
X80578000Y13589000D01*
X79248000Y14919000D02*
X80578000Y14919000D01*
X77978000Y14919000D02*
X77978000Y12259000D01*
X77978000Y12259000D02*
X75378000Y12259000D01*
X77978000Y14919000D02*
X75378000Y14919000D01*
X75378000Y14919000D02*
X75378000Y12259000D01*
X80578000Y18602000D02*
X80578000Y17272000D01*
X79248000Y18602000D02*
X80578000Y18602000D01*
X77978000Y18602000D02*
X77978000Y15942000D01*
X77978000Y15942000D02*
X75378000Y15942000D01*
X77978000Y18602000D02*
X75378000Y18602000D01*
X75378000Y18602000D02*
X75378000Y15942000D01*
X80578000Y22412000D02*
X80578000Y21082000D01*
X79248000Y22412000D02*
X80578000Y22412000D01*
X77978000Y22412000D02*
X77978000Y19752000D01*
X77978000Y19752000D02*
X75378000Y19752000D01*
X77978000Y22412000D02*
X75378000Y22412000D01*
X75378000Y22412000D02*
X75378000Y19752000D01*
X21392000Y26160000D02*
X21392000Y24700000D01*
X18232000Y26160000D02*
X18232000Y24000000D01*
X18232000Y26160000D02*
X19162000Y26160000D01*
X21392000Y26160000D02*
X20462000Y26160000D01*
X66961936Y58018000D02*
X68166064Y58018000D01*
X66961936Y59838000D02*
X68166064Y59838000D01*
X66998436Y55478000D02*
X68202564Y55478000D01*
X66998436Y57298000D02*
X68202564Y57298000D01*
X68202564Y54758000D02*
X66998436Y54758000D01*
X68202564Y52938000D02*
X66998436Y52938000D01*
X66998436Y49382000D02*
X68202564Y49382000D01*
X66998436Y51202000D02*
X68202564Y51202000D01*
X66961936Y46334000D02*
X68166064Y46334000D01*
X66961936Y48154000D02*
X68166064Y48154000D01*
X38550436Y59542000D02*
X39754564Y59542000D01*
X38550436Y61362000D02*
X39754564Y61362000D01*
X27374436Y59542000D02*
X28578564Y59542000D01*
X27374436Y61362000D02*
X28578564Y61362000D01*
X16161936Y59542000D02*
X17366064Y59542000D01*
X16161936Y61362000D02*
X17366064Y61362000D01*
X19246436Y15346000D02*
X20450564Y15346000D01*
X19246436Y17166000D02*
X20450564Y17166000D01*
X19246436Y17886000D02*
X20450564Y17886000D01*
X19246436Y19706000D02*
X20450564Y19706000D01*
X19246436Y20426000D02*
X20450564Y20426000D01*
X19246436Y22246000D02*
X20450564Y22246000D01*
X13621936Y15346000D02*
X14826064Y15346000D01*
X13621936Y17166000D02*
X14826064Y17166000D01*
X13658436Y17886000D02*
X14862564Y17886000D01*
X13658436Y19706000D02*
X14862564Y19706000D01*
X13658436Y20426000D02*
X14862564Y20426000D01*
X13658436Y22246000D02*
X14862564Y22246000D01*
X37838748Y25198000D02*
X38361252Y25198000D01*
X37838748Y26618000D02*
X38361252Y26618000D01*
X34297252Y26618000D02*
X33774748Y26618000D01*
X34297252Y25198000D02*
X33774748Y25198000D01*
X43122436Y32618000D02*
X44326564Y32618000D01*
X43122436Y34438000D02*
X44326564Y34438000D01*
X43122436Y30078000D02*
X44326564Y30078000D01*
X43122436Y31898000D02*
X44326564Y31898000D01*
X43085936Y27538000D02*
X44290064Y27538000D01*
X43085936Y29358000D02*
X44290064Y29358000D01*
X62198000Y40313000D02*
X60688000Y40313000D01*
X62198000Y44014000D02*
X60688000Y44014000D01*
X60688000Y47284000D02*
X60688000Y37044000D01*
X62198000Y37044000D02*
X57557000Y37044000D01*
X62198000Y47284000D02*
X57557000Y47284000D01*
X57557000Y47284000D02*
X57557000Y37044000D01*
X62198000Y47284000D02*
X62198000Y37044000D01*
D12*
X61657000Y35799000D02*
X59832000Y35799000D01*
X61657000Y17799000D02*
X69407000Y17799000D01*
X61657000Y36049000D02*
X69407000Y36049000D01*
X61657000Y17799000D02*
X61657000Y18144000D01*
X69407000Y17799000D02*
X69407000Y18144000D01*
X69407000Y36049000D02*
X69407000Y35704000D01*
X61657000Y36049000D02*
X61657000Y35799000D01*
D15*
X42986000Y51452000D02*
X42986000Y53102000D01*
X32706000Y51452000D02*
X42986000Y51452000D01*
X32706000Y56752000D02*
X32706000Y51452000D01*
X42986000Y56752000D02*
X32706000Y56752000D01*
X42986000Y55102000D02*
X42986000Y56752000D01*
X42986000Y53102000D02*
G75*
G02X42986000Y55102000I0J1000000D01*
G01*
X31810000Y51452000D02*
X31810000Y53102000D01*
X21530000Y51452000D02*
X31810000Y51452000D01*
X21530000Y56752000D02*
X21530000Y51452000D01*
X31810000Y56752000D02*
X21530000Y56752000D01*
X31810000Y55102000D02*
X31810000Y56752000D01*
X31810000Y53102000D02*
G75*
G02X31810000Y55102000I0J1000000D01*
G01*
X20634000Y53102000D02*
G75*
G02X20634000Y55102000I0J1000000D01*
G01*
X20634000Y55102000D02*
X20634000Y56752000D01*
X20634000Y56752000D02*
X10354000Y56752000D01*
X10354000Y56752000D02*
X10354000Y51452000D01*
X10354000Y51452000D02*
X20634000Y51452000D01*
X20634000Y51452000D02*
X20634000Y53102000D01*
X22208000Y40446000D02*
X20558000Y40446000D01*
X22208000Y30166000D02*
X22208000Y40446000D01*
X16908000Y30166000D02*
X22208000Y30166000D01*
X16908000Y40446000D02*
X16908000Y30166000D01*
X18558000Y40446000D02*
X16908000Y40446000D01*
X20558000Y40446000D02*
G75*
G02X18558000Y40446000I-1000000J0D01*
G01*
D12*
X52789000Y26777000D02*
X51414000Y26777000D01*
X52789000Y17902000D02*
X56939000Y17902000D01*
X52789000Y26802000D02*
X56939000Y26802000D01*
X52789000Y17902000D02*
X52789000Y18017000D01*
X56939000Y17902000D02*
X56939000Y18017000D01*
X56939000Y26802000D02*
X56939000Y26687000D01*
X52789000Y26802000D02*
X52789000Y26777000D01*
D15*
X62198000Y52505000D02*
X60688000Y52505000D01*
X62198000Y56206000D02*
X60688000Y56206000D01*
X60688000Y59476000D02*
X60688000Y49236000D01*
X62198000Y49236000D02*
X57557000Y49236000D01*
X62198000Y59476000D02*
X57557000Y59476000D01*
X57557000Y59476000D02*
X57557000Y49236000D01*
X62198000Y59476000D02*
X62198000Y49236000D01*
D12*
X33993000Y34529000D02*
X32593000Y34529000D01*
X33993000Y29429000D02*
X38143000Y29429000D01*
X33993000Y34579000D02*
X38143000Y34579000D01*
X33993000Y29429000D02*
X33993000Y29574000D01*
X38143000Y29429000D02*
X38143000Y29574000D01*
X38143000Y34579000D02*
X38143000Y34434000D01*
X33993000Y34579000D02*
X33993000Y34529000D01*
D15*
X82145000Y46244000D02*
X82145000Y25384000D01*
X82145000Y25384000D02*
X72795000Y25384000D01*
X72795000Y25384000D02*
X72795000Y46244000D01*
X72795000Y46244000D02*
X82145000Y46244000D01*
X72545000Y46494000D02*
X72545000Y43954000D01*
X72545000Y46494000D02*
X75085000Y46494000D01*
D12*
X25146095Y14517620D02*
X25146095Y13708096D01*
X25193714Y13612858D01*
X25241333Y13565239D01*
X25336571Y13517620D01*
X25527047Y13517620D01*
X25622285Y13565239D01*
X25669904Y13612858D01*
X25717523Y13708096D01*
X25717523Y14517620D01*
X26098476Y14517620D02*
X26765142Y14517620D01*
X26336571Y13517620D01*
X49109333Y47902858D02*
X49061714Y47855239D01*
X48918857Y47807620D01*
X48823619Y47807620D01*
X48680761Y47855239D01*
X48585523Y47950477D01*
X48537904Y48045715D01*
X48490285Y48236191D01*
X48490285Y48379048D01*
X48537904Y48569524D01*
X48585523Y48664762D01*
X48680761Y48760000D01*
X48823619Y48807620D01*
X48918857Y48807620D01*
X49061714Y48760000D01*
X49109333Y48712381D01*
X50014095Y48807620D02*
X49537904Y48807620D01*
X49490285Y48331429D01*
X49537904Y48379048D01*
X49633142Y48426667D01*
X49871238Y48426667D01*
X49966476Y48379048D01*
X50014095Y48331429D01*
X50061714Y48236191D01*
X50061714Y47998096D01*
X50014095Y47902858D01*
X49966476Y47855239D01*
X49871238Y47807620D01*
X49633142Y47807620D01*
X49537904Y47855239D01*
X49490285Y47902858D01*
X63841333Y43829858D02*
X63793714Y43782239D01*
X63650857Y43734620D01*
X63555619Y43734620D01*
X63412761Y43782239D01*
X63317523Y43877477D01*
X63269904Y43972715D01*
X63222285Y44163191D01*
X63222285Y44306048D01*
X63269904Y44496524D01*
X63317523Y44591762D01*
X63412761Y44687000D01*
X63555619Y44734620D01*
X63650857Y44734620D01*
X63793714Y44687000D01*
X63841333Y44639381D01*
X64317523Y43734620D02*
X64508000Y43734620D01*
X64603238Y43782239D01*
X64650857Y43829858D01*
X64746095Y43972715D01*
X64793714Y44163191D01*
X64793714Y44544143D01*
X64746095Y44639381D01*
X64698476Y44687000D01*
X64603238Y44734620D01*
X64412761Y44734620D01*
X64317523Y44687000D01*
X64269904Y44639381D01*
X64222285Y44544143D01*
X64222285Y44306048D01*
X64269904Y44210810D01*
X64317523Y44163191D01*
X64412761Y44115572D01*
X64603238Y44115572D01*
X64698476Y44163191D01*
X64746095Y44210810D01*
X64793714Y44306048D01*
X48125142Y63142858D02*
X48077523Y63095239D01*
X47934666Y63047620D01*
X47839428Y63047620D01*
X47696571Y63095239D01*
X47601333Y63190477D01*
X47553714Y63285715D01*
X47506095Y63476191D01*
X47506095Y63619048D01*
X47553714Y63809524D01*
X47601333Y63904762D01*
X47696571Y64000000D01*
X47839428Y64047620D01*
X47934666Y64047620D01*
X48077523Y64000000D01*
X48125142Y63952381D01*
X49077523Y63047620D02*
X48506095Y63047620D01*
X48791809Y63047620D02*
X48791809Y64047620D01*
X48696571Y63904762D01*
X48601333Y63809524D01*
X48506095Y63761905D01*
X49410857Y64047620D02*
X50029904Y64047620D01*
X49696571Y63666667D01*
X49839428Y63666667D01*
X49934666Y63619048D01*
X49982285Y63571429D01*
X50029904Y63476191D01*
X50029904Y63238096D01*
X49982285Y63142858D01*
X49934666Y63095239D01*
X49839428Y63047620D01*
X49553714Y63047620D01*
X49458476Y63095239D01*
X49410857Y63142858D01*
X32885142Y42822858D02*
X32837523Y42775239D01*
X32694666Y42727620D01*
X32599428Y42727620D01*
X32456571Y42775239D01*
X32361333Y42870477D01*
X32313714Y42965715D01*
X32266095Y43156191D01*
X32266095Y43299048D01*
X32313714Y43489524D01*
X32361333Y43584762D01*
X32456571Y43680000D01*
X32599428Y43727620D01*
X32694666Y43727620D01*
X32837523Y43680000D01*
X32885142Y43632381D01*
X33837523Y42727620D02*
X33266095Y42727620D01*
X33551809Y42727620D02*
X33551809Y43727620D01*
X33456571Y43584762D01*
X33361333Y43489524D01*
X33266095Y43441905D01*
X34694666Y43394286D02*
X34694666Y42727620D01*
X34456571Y43775239D02*
X34218476Y43060953D01*
X34837523Y43060953D01*
X48125142Y55522858D02*
X48077523Y55475239D01*
X47934666Y55427620D01*
X47839428Y55427620D01*
X47696571Y55475239D01*
X47601333Y55570477D01*
X47553714Y55665715D01*
X47506095Y55856191D01*
X47506095Y55999048D01*
X47553714Y56189524D01*
X47601333Y56284762D01*
X47696571Y56380000D01*
X47839428Y56427620D01*
X47934666Y56427620D01*
X48077523Y56380000D01*
X48125142Y56332381D01*
X49077523Y55427620D02*
X48506095Y55427620D01*
X48791809Y55427620D02*
X48791809Y56427620D01*
X48696571Y56284762D01*
X48601333Y56189524D01*
X48506095Y56141905D01*
X49982285Y56427620D02*
X49506095Y56427620D01*
X49458476Y55951429D01*
X49506095Y55999048D01*
X49601333Y56046667D01*
X49839428Y56046667D01*
X49934666Y55999048D01*
X49982285Y55951429D01*
X50029904Y55856191D01*
X50029904Y55618096D01*
X49982285Y55522858D01*
X49934666Y55475239D01*
X49839428Y55427620D01*
X49601333Y55427620D01*
X49506095Y55475239D01*
X49458476Y55522858D01*
X27376380Y27709905D02*
X26376380Y27709905D01*
X26376380Y27948000D01*
X26424000Y28090858D01*
X26519238Y28186096D01*
X26614476Y28233715D01*
X26804952Y28281334D01*
X26947809Y28281334D01*
X27138285Y28233715D01*
X27233523Y28186096D01*
X27328761Y28090858D01*
X27376380Y27948000D01*
X27376380Y27709905D01*
X27376380Y29233715D02*
X27376380Y28662286D01*
X27376380Y28948000D02*
X26376380Y28948000D01*
X26519238Y28852762D01*
X26614476Y28757524D01*
X26662095Y28662286D01*
X32016380Y33266096D02*
X31016380Y33266096D01*
X32016380Y33837524D02*
X31444952Y33408953D01*
X31016380Y33837524D02*
X31587809Y33266096D01*
X70889904Y58475620D02*
X70889904Y59475620D01*
X71128000Y59475620D01*
X71270857Y59428000D01*
X71366095Y59332762D01*
X71413714Y59237524D01*
X71461333Y59047048D01*
X71461333Y58904191D01*
X71413714Y58713715D01*
X71366095Y58618477D01*
X71270857Y58523239D01*
X71128000Y58475620D01*
X70889904Y58475620D01*
X71794666Y59475620D02*
X72413714Y59475620D01*
X72080380Y59094667D01*
X72223238Y59094667D01*
X72318476Y59047048D01*
X72366095Y58999429D01*
X72413714Y58904191D01*
X72413714Y58666096D01*
X72366095Y58570858D01*
X72318476Y58523239D01*
X72223238Y58475620D01*
X71937523Y58475620D01*
X71842285Y58523239D01*
X71794666Y58570858D01*
X70889904Y55935620D02*
X70889904Y56935620D01*
X71128000Y56935620D01*
X71270857Y56888000D01*
X71366095Y56792762D01*
X71413714Y56697524D01*
X71461333Y56507048D01*
X71461333Y56364191D01*
X71413714Y56173715D01*
X71366095Y56078477D01*
X71270857Y55983239D01*
X71128000Y55935620D01*
X70889904Y55935620D01*
X72318476Y56602286D02*
X72318476Y55935620D01*
X72080380Y56983239D02*
X71842285Y56268953D01*
X72461333Y56268953D01*
X70889904Y53395620D02*
X70889904Y54395620D01*
X71128000Y54395620D01*
X71270857Y54348000D01*
X71366095Y54252762D01*
X71413714Y54157524D01*
X71461333Y53967048D01*
X71461333Y53824191D01*
X71413714Y53633715D01*
X71366095Y53538477D01*
X71270857Y53443239D01*
X71128000Y53395620D01*
X70889904Y53395620D01*
X72366095Y54395620D02*
X71889904Y54395620D01*
X71842285Y53919429D01*
X71889904Y53967048D01*
X71985142Y54014667D01*
X72223238Y54014667D01*
X72318476Y53967048D01*
X72366095Y53919429D01*
X72413714Y53824191D01*
X72413714Y53586096D01*
X72366095Y53490858D01*
X72318476Y53443239D01*
X72223238Y53395620D01*
X71985142Y53395620D01*
X71889904Y53443239D01*
X71842285Y53490858D01*
X70889904Y49839620D02*
X70889904Y50839620D01*
X71128000Y50839620D01*
X71270857Y50792000D01*
X71366095Y50696762D01*
X71413714Y50601524D01*
X71461333Y50411048D01*
X71461333Y50268191D01*
X71413714Y50077715D01*
X71366095Y49982477D01*
X71270857Y49887239D01*
X71128000Y49839620D01*
X70889904Y49839620D01*
X72318476Y50839620D02*
X72128000Y50839620D01*
X72032761Y50792000D01*
X71985142Y50744381D01*
X71889904Y50601524D01*
X71842285Y50411048D01*
X71842285Y50030096D01*
X71889904Y49934858D01*
X71937523Y49887239D01*
X72032761Y49839620D01*
X72223238Y49839620D01*
X72318476Y49887239D01*
X72366095Y49934858D01*
X72413714Y50030096D01*
X72413714Y50268191D01*
X72366095Y50363429D01*
X72318476Y50411048D01*
X72223238Y50458667D01*
X72032761Y50458667D01*
X71937523Y50411048D01*
X71889904Y50363429D01*
X71842285Y50268191D01*
X4746666Y57951620D02*
X4746666Y57237334D01*
X4699047Y57094477D01*
X4603809Y56999239D01*
X4460952Y56951620D01*
X4365714Y56951620D01*
X5746666Y56951620D02*
X5175238Y56951620D01*
X5460952Y56951620D02*
X5460952Y57951620D01*
X5365714Y57808762D01*
X5270476Y57713524D01*
X5175238Y57665905D01*
X58134666Y16555620D02*
X58134666Y15841334D01*
X58087047Y15698477D01*
X57991809Y15603239D01*
X57848952Y15555620D01*
X57753714Y15555620D01*
X58563238Y16460381D02*
X58610857Y16508000D01*
X58706095Y16555620D01*
X58944190Y16555620D01*
X59039428Y16508000D01*
X59087047Y16460381D01*
X59134666Y16365143D01*
X59134666Y16269905D01*
X59087047Y16127048D01*
X58515619Y15555620D01*
X59134666Y15555620D01*
X57681904Y60507620D02*
X57681904Y61507620D01*
X58253333Y60507620D02*
X57824761Y61079048D01*
X58253333Y61507620D02*
X57681904Y60936191D01*
X59205714Y60507620D02*
X58634285Y60507620D01*
X58920000Y60507620D02*
X58920000Y61507620D01*
X58824761Y61364762D01*
X58729523Y61269524D01*
X58634285Y61221905D01*
X36853904Y15295620D02*
X36853904Y16295620D01*
X37425333Y15295620D02*
X36996761Y15867048D01*
X37425333Y16295620D02*
X36853904Y15724191D01*
X37758666Y16295620D02*
X38377714Y16295620D01*
X38044380Y15914667D01*
X38187238Y15914667D01*
X38282476Y15867048D01*
X38330095Y15819429D01*
X38377714Y15724191D01*
X38377714Y15486096D01*
X38330095Y15390858D01*
X38282476Y15343239D01*
X38187238Y15295620D01*
X37901523Y15295620D01*
X37806285Y15343239D01*
X37758666Y15390858D01*
X35901333Y44759620D02*
X35425142Y44759620D01*
X35425142Y45759620D01*
X36758476Y44759620D02*
X36187047Y44759620D01*
X36472761Y44759620D02*
X36472761Y45759620D01*
X36377523Y45616762D01*
X36282285Y45521524D01*
X36187047Y45473905D01*
X33805904Y60507620D02*
X33805904Y61507620D01*
X34186857Y61507620D01*
X34282095Y61460000D01*
X34329714Y61412381D01*
X34377333Y61317143D01*
X34377333Y61174286D01*
X34329714Y61079048D01*
X34282095Y61031429D01*
X34186857Y60983810D01*
X33805904Y60983810D01*
X35329714Y60507620D02*
X34758285Y60507620D01*
X35044000Y60507620D02*
X35044000Y61507620D01*
X34948761Y61364762D01*
X34853523Y61269524D01*
X34758285Y61221905D01*
X22629904Y60507620D02*
X22629904Y61507620D01*
X23010857Y61507620D01*
X23106095Y61460000D01*
X23153714Y61412381D01*
X23201333Y61317143D01*
X23201333Y61174286D01*
X23153714Y61079048D01*
X23106095Y61031429D01*
X23010857Y60983810D01*
X22629904Y60983810D01*
X23582285Y61412381D02*
X23629904Y61460000D01*
X23725142Y61507620D01*
X23963238Y61507620D01*
X24058476Y61460000D01*
X24106095Y61412381D01*
X24153714Y61317143D01*
X24153714Y61221905D01*
X24106095Y61079048D01*
X23534666Y60507620D01*
X24153714Y60507620D01*
X11453904Y60507620D02*
X11453904Y61507620D01*
X11834857Y61507620D01*
X11930095Y61460000D01*
X11977714Y61412381D01*
X12025333Y61317143D01*
X12025333Y61174286D01*
X11977714Y61079048D01*
X11930095Y61031429D01*
X11834857Y60983810D01*
X11453904Y60983810D01*
X12882476Y61174286D02*
X12882476Y60507620D01*
X12644380Y61555239D02*
X12406285Y60840953D01*
X13025333Y60840953D01*
X10437904Y13263620D02*
X10437904Y14263620D01*
X10818857Y14263620D01*
X10914095Y14216000D01*
X10961714Y14168381D01*
X11009333Y14073143D01*
X11009333Y13930286D01*
X10961714Y13835048D01*
X10914095Y13787429D01*
X10818857Y13739810D01*
X10437904Y13739810D01*
X11914095Y14263620D02*
X11437904Y14263620D01*
X11390285Y13787429D01*
X11437904Y13835048D01*
X11533142Y13882667D01*
X11771238Y13882667D01*
X11866476Y13835048D01*
X11914095Y13787429D01*
X11961714Y13692191D01*
X11961714Y13454096D01*
X11914095Y13358858D01*
X11866476Y13311239D01*
X11771238Y13263620D01*
X11533142Y13263620D01*
X11437904Y13311239D01*
X11390285Y13358858D01*
X21613904Y12983620D02*
X21613904Y13983620D01*
X21994857Y13983620D01*
X22090095Y13936000D01*
X22137714Y13888381D01*
X22185333Y13793143D01*
X22185333Y13650286D01*
X22137714Y13555048D01*
X22090095Y13507429D01*
X21994857Y13459810D01*
X21613904Y13459810D01*
X23042476Y13983620D02*
X22852000Y13983620D01*
X22756761Y13936000D01*
X22709142Y13888381D01*
X22613904Y13745524D01*
X22566285Y13555048D01*
X22566285Y13174096D01*
X22613904Y13078858D01*
X22661523Y13031239D01*
X22756761Y12983620D01*
X22947238Y12983620D01*
X23042476Y13031239D01*
X23090095Y13078858D01*
X23137714Y13174096D01*
X23137714Y13412191D01*
X23090095Y13507429D01*
X23042476Y13555048D01*
X22947238Y13602667D01*
X22756761Y13602667D01*
X22661523Y13555048D01*
X22613904Y13507429D01*
X22566285Y13412191D01*
X82030380Y12850905D02*
X81030380Y12850905D01*
X81030380Y13231858D01*
X81078000Y13327096D01*
X81125619Y13374715D01*
X81220857Y13422334D01*
X81363714Y13422334D01*
X81458952Y13374715D01*
X81506571Y13327096D01*
X81554190Y13231858D01*
X81554190Y12850905D01*
X81030380Y13755667D02*
X81030380Y14422334D01*
X82030380Y13993762D01*
X82030380Y16533905D02*
X81030380Y16533905D01*
X81030380Y16914858D01*
X81078000Y17010096D01*
X81125619Y17057715D01*
X81220857Y17105334D01*
X81363714Y17105334D01*
X81458952Y17057715D01*
X81506571Y17010096D01*
X81554190Y16914858D01*
X81554190Y16533905D01*
X81458952Y17676762D02*
X81411333Y17581524D01*
X81363714Y17533905D01*
X81268476Y17486286D01*
X81220857Y17486286D01*
X81125619Y17533905D01*
X81078000Y17581524D01*
X81030380Y17676762D01*
X81030380Y17867239D01*
X81078000Y17962477D01*
X81125619Y18010096D01*
X81220857Y18057715D01*
X81268476Y18057715D01*
X81363714Y18010096D01*
X81411333Y17962477D01*
X81458952Y17867239D01*
X81458952Y17676762D01*
X81506571Y17581524D01*
X81554190Y17533905D01*
X81649428Y17486286D01*
X81839904Y17486286D01*
X81935142Y17533905D01*
X81982761Y17581524D01*
X82030380Y17676762D01*
X82030380Y17867239D01*
X81982761Y17962477D01*
X81935142Y18010096D01*
X81839904Y18057715D01*
X81649428Y18057715D01*
X81554190Y18010096D01*
X81506571Y17962477D01*
X81458952Y17867239D01*
X82030380Y20343905D02*
X81030380Y20343905D01*
X81030380Y20724858D01*
X81078000Y20820096D01*
X81125619Y20867715D01*
X81220857Y20915334D01*
X81363714Y20915334D01*
X81458952Y20867715D01*
X81506571Y20820096D01*
X81554190Y20724858D01*
X81554190Y20343905D01*
X82030380Y21391524D02*
X82030380Y21582000D01*
X81982761Y21677239D01*
X81935142Y21724858D01*
X81792285Y21820096D01*
X81601809Y21867715D01*
X81220857Y21867715D01*
X81125619Y21820096D01*
X81078000Y21772477D01*
X81030380Y21677239D01*
X81030380Y21486762D01*
X81078000Y21391524D01*
X81125619Y21343905D01*
X81220857Y21296286D01*
X81458952Y21296286D01*
X81554190Y21343905D01*
X81601809Y21391524D01*
X81649428Y21486762D01*
X81649428Y21677239D01*
X81601809Y21772477D01*
X81554190Y21820096D01*
X81458952Y21867715D01*
X17216761Y24852381D02*
X17121523Y24900000D01*
X17026285Y24995239D01*
X16883428Y25138096D01*
X16788190Y25185715D01*
X16692952Y25185715D01*
X16740571Y24947620D02*
X16645333Y24995239D01*
X16550095Y25090477D01*
X16502476Y25280953D01*
X16502476Y25614286D01*
X16550095Y25804762D01*
X16645333Y25900000D01*
X16740571Y25947620D01*
X16931047Y25947620D01*
X17026285Y25900000D01*
X17121523Y25804762D01*
X17169142Y25614286D01*
X17169142Y25280953D01*
X17121523Y25090477D01*
X17026285Y24995239D01*
X16931047Y24947620D01*
X16740571Y24947620D01*
X18121523Y24947620D02*
X17550095Y24947620D01*
X17835809Y24947620D02*
X17835809Y25947620D01*
X17740571Y25804762D01*
X17645333Y25709524D01*
X17550095Y25661905D01*
X63841333Y58475620D02*
X63508000Y58951810D01*
X63269904Y58475620D02*
X63269904Y59475620D01*
X63650857Y59475620D01*
X63746095Y59428000D01*
X63793714Y59380381D01*
X63841333Y59285143D01*
X63841333Y59142286D01*
X63793714Y59047048D01*
X63746095Y58999429D01*
X63650857Y58951810D01*
X63269904Y58951810D01*
X64793714Y58475620D02*
X64222285Y58475620D01*
X64508000Y58475620D02*
X64508000Y59475620D01*
X64412761Y59332762D01*
X64317523Y59237524D01*
X64222285Y59189905D01*
X63841333Y55935620D02*
X63508000Y56411810D01*
X63269904Y55935620D02*
X63269904Y56935620D01*
X63650857Y56935620D01*
X63746095Y56888000D01*
X63793714Y56840381D01*
X63841333Y56745143D01*
X63841333Y56602286D01*
X63793714Y56507048D01*
X63746095Y56459429D01*
X63650857Y56411810D01*
X63269904Y56411810D01*
X64222285Y56840381D02*
X64269904Y56888000D01*
X64365142Y56935620D01*
X64603238Y56935620D01*
X64698476Y56888000D01*
X64746095Y56840381D01*
X64793714Y56745143D01*
X64793714Y56649905D01*
X64746095Y56507048D01*
X64174666Y55935620D01*
X64793714Y55935620D01*
X63877833Y53395620D02*
X63544500Y53871810D01*
X63306404Y53395620D02*
X63306404Y54395620D01*
X63687357Y54395620D01*
X63782595Y54348000D01*
X63830214Y54300381D01*
X63877833Y54205143D01*
X63877833Y54062286D01*
X63830214Y53967048D01*
X63782595Y53919429D01*
X63687357Y53871810D01*
X63306404Y53871810D01*
X64211166Y54395620D02*
X64830214Y54395620D01*
X64496880Y54014667D01*
X64639738Y54014667D01*
X64734976Y53967048D01*
X64782595Y53919429D01*
X64830214Y53824191D01*
X64830214Y53586096D01*
X64782595Y53490858D01*
X64734976Y53443239D01*
X64639738Y53395620D01*
X64354023Y53395620D01*
X64258785Y53443239D01*
X64211166Y53490858D01*
X63877833Y49839620D02*
X63544500Y50315810D01*
X63306404Y49839620D02*
X63306404Y50839620D01*
X63687357Y50839620D01*
X63782595Y50792000D01*
X63830214Y50744381D01*
X63877833Y50649143D01*
X63877833Y50506286D01*
X63830214Y50411048D01*
X63782595Y50363429D01*
X63687357Y50315810D01*
X63306404Y50315810D01*
X64734976Y50506286D02*
X64734976Y49839620D01*
X64496880Y50887239D02*
X64258785Y50172953D01*
X64877833Y50172953D01*
X63841333Y46791620D02*
X63508000Y47267810D01*
X63269904Y46791620D02*
X63269904Y47791620D01*
X63650857Y47791620D01*
X63746095Y47744000D01*
X63793714Y47696381D01*
X63841333Y47601143D01*
X63841333Y47458286D01*
X63793714Y47363048D01*
X63746095Y47315429D01*
X63650857Y47267810D01*
X63269904Y47267810D01*
X64746095Y47791620D02*
X64269904Y47791620D01*
X64222285Y47315429D01*
X64269904Y47363048D01*
X64365142Y47410667D01*
X64603238Y47410667D01*
X64698476Y47363048D01*
X64746095Y47315429D01*
X64793714Y47220191D01*
X64793714Y46982096D01*
X64746095Y46886858D01*
X64698476Y46839239D01*
X64603238Y46791620D01*
X64365142Y46791620D01*
X64269904Y46839239D01*
X64222285Y46886858D01*
X42505333Y59999620D02*
X42172000Y60475810D01*
X41933904Y59999620D02*
X41933904Y60999620D01*
X42314857Y60999620D01*
X42410095Y60952000D01*
X42457714Y60904381D01*
X42505333Y60809143D01*
X42505333Y60666286D01*
X42457714Y60571048D01*
X42410095Y60523429D01*
X42314857Y60475810D01*
X41933904Y60475810D01*
X43362476Y60999620D02*
X43172000Y60999620D01*
X43076761Y60952000D01*
X43029142Y60904381D01*
X42933904Y60761524D01*
X42886285Y60571048D01*
X42886285Y60190096D01*
X42933904Y60094858D01*
X42981523Y60047239D01*
X43076761Y59999620D01*
X43267238Y59999620D01*
X43362476Y60047239D01*
X43410095Y60094858D01*
X43457714Y60190096D01*
X43457714Y60428191D01*
X43410095Y60523429D01*
X43362476Y60571048D01*
X43267238Y60618667D01*
X43076761Y60618667D01*
X42981523Y60571048D01*
X42933904Y60523429D01*
X42886285Y60428191D01*
X31329333Y59999620D02*
X30996000Y60475810D01*
X30757904Y59999620D02*
X30757904Y60999620D01*
X31138857Y60999620D01*
X31234095Y60952000D01*
X31281714Y60904381D01*
X31329333Y60809143D01*
X31329333Y60666286D01*
X31281714Y60571048D01*
X31234095Y60523429D01*
X31138857Y60475810D01*
X30757904Y60475810D01*
X31662666Y60999620D02*
X32329333Y60999620D01*
X31900761Y59999620D01*
X20185142Y59999620D02*
X19851809Y60475810D01*
X19613714Y59999620D02*
X19613714Y60999620D01*
X19994666Y60999620D01*
X20089904Y60952000D01*
X20137523Y60904381D01*
X20185142Y60809143D01*
X20185142Y60666286D01*
X20137523Y60571048D01*
X20089904Y60523429D01*
X19994666Y60475810D01*
X19613714Y60475810D01*
X21137523Y59999620D02*
X20566095Y59999620D01*
X20851809Y59999620D02*
X20851809Y60999620D01*
X20756571Y60856762D01*
X20661333Y60761524D01*
X20566095Y60713905D01*
X21756571Y60999620D02*
X21851809Y60999620D01*
X21947047Y60952000D01*
X21994666Y60904381D01*
X22042285Y60809143D01*
X22089904Y60618667D01*
X22089904Y60380572D01*
X22042285Y60190096D01*
X21994666Y60094858D01*
X21947047Y60047239D01*
X21851809Y59999620D01*
X21756571Y59999620D01*
X21661333Y60047239D01*
X21613714Y60094858D01*
X21566095Y60190096D01*
X21518476Y60380572D01*
X21518476Y60618667D01*
X21566095Y60809143D01*
X21613714Y60904381D01*
X21661333Y60952000D01*
X21756571Y60999620D01*
X23233142Y15803620D02*
X22899809Y16279810D01*
X22661714Y15803620D02*
X22661714Y16803620D01*
X23042666Y16803620D01*
X23137904Y16756000D01*
X23185523Y16708381D01*
X23233142Y16613143D01*
X23233142Y16470286D01*
X23185523Y16375048D01*
X23137904Y16327429D01*
X23042666Y16279810D01*
X22661714Y16279810D01*
X24185523Y15803620D02*
X23614095Y15803620D01*
X23899809Y15803620D02*
X23899809Y16803620D01*
X23804571Y16660762D01*
X23709333Y16565524D01*
X23614095Y16517905D01*
X24518857Y16803620D02*
X25185523Y16803620D01*
X24756952Y15803620D01*
X23233142Y18343620D02*
X22899809Y18819810D01*
X22661714Y18343620D02*
X22661714Y19343620D01*
X23042666Y19343620D01*
X23137904Y19296000D01*
X23185523Y19248381D01*
X23233142Y19153143D01*
X23233142Y19010286D01*
X23185523Y18915048D01*
X23137904Y18867429D01*
X23042666Y18819810D01*
X22661714Y18819810D01*
X24185523Y18343620D02*
X23614095Y18343620D01*
X23899809Y18343620D02*
X23899809Y19343620D01*
X23804571Y19200762D01*
X23709333Y19105524D01*
X23614095Y19057905D01*
X24756952Y18915048D02*
X24661714Y18962667D01*
X24614095Y19010286D01*
X24566476Y19105524D01*
X24566476Y19153143D01*
X24614095Y19248381D01*
X24661714Y19296000D01*
X24756952Y19343620D01*
X24947428Y19343620D01*
X25042666Y19296000D01*
X25090285Y19248381D01*
X25137904Y19153143D01*
X25137904Y19105524D01*
X25090285Y19010286D01*
X25042666Y18962667D01*
X24947428Y18915048D01*
X24756952Y18915048D01*
X24661714Y18867429D01*
X24614095Y18819810D01*
X24566476Y18724572D01*
X24566476Y18534096D01*
X24614095Y18438858D01*
X24661714Y18391239D01*
X24756952Y18343620D01*
X24947428Y18343620D01*
X25042666Y18391239D01*
X25090285Y18438858D01*
X25137904Y18534096D01*
X25137904Y18724572D01*
X25090285Y18819810D01*
X25042666Y18867429D01*
X24947428Y18915048D01*
X23269642Y20883620D02*
X22936309Y21359810D01*
X22698214Y20883620D02*
X22698214Y21883620D01*
X23079166Y21883620D01*
X23174404Y21836000D01*
X23222023Y21788381D01*
X23269642Y21693143D01*
X23269642Y21550286D01*
X23222023Y21455048D01*
X23174404Y21407429D01*
X23079166Y21359810D01*
X22698214Y21359810D01*
X24222023Y20883620D02*
X23650595Y20883620D01*
X23936309Y20883620D02*
X23936309Y21883620D01*
X23841071Y21740762D01*
X23745833Y21645524D01*
X23650595Y21597905D01*
X24698214Y20883620D02*
X24888690Y20883620D01*
X24983928Y20931239D01*
X25031547Y20978858D01*
X25126785Y21121715D01*
X25174404Y21312191D01*
X25174404Y21693143D01*
X25126785Y21788381D01*
X25079166Y21836000D01*
X24983928Y21883620D01*
X24793452Y21883620D01*
X24698214Y21836000D01*
X24650595Y21788381D01*
X24602976Y21693143D01*
X24602976Y21455048D01*
X24650595Y21359810D01*
X24698214Y21312191D01*
X24793452Y21264572D01*
X24983928Y21264572D01*
X25079166Y21312191D01*
X25126785Y21359810D01*
X25174404Y21455048D01*
X9517142Y15803620D02*
X9183809Y16279810D01*
X8945714Y15803620D02*
X8945714Y16803620D01*
X9326666Y16803620D01*
X9421904Y16756000D01*
X9469523Y16708381D01*
X9517142Y16613143D01*
X9517142Y16470286D01*
X9469523Y16375048D01*
X9421904Y16327429D01*
X9326666Y16279810D01*
X8945714Y16279810D01*
X9898095Y16708381D02*
X9945714Y16756000D01*
X10040952Y16803620D01*
X10279047Y16803620D01*
X10374285Y16756000D01*
X10421904Y16708381D01*
X10469523Y16613143D01*
X10469523Y16517905D01*
X10421904Y16375048D01*
X9850476Y15803620D01*
X10469523Y15803620D01*
X11088571Y16803620D02*
X11183809Y16803620D01*
X11279047Y16756000D01*
X11326666Y16708381D01*
X11374285Y16613143D01*
X11421904Y16422667D01*
X11421904Y16184572D01*
X11374285Y15994096D01*
X11326666Y15898858D01*
X11279047Y15851239D01*
X11183809Y15803620D01*
X11088571Y15803620D01*
X10993333Y15851239D01*
X10945714Y15898858D01*
X10898095Y15994096D01*
X10850476Y16184572D01*
X10850476Y16422667D01*
X10898095Y16613143D01*
X10945714Y16708381D01*
X10993333Y16756000D01*
X11088571Y16803620D01*
X9517142Y18343620D02*
X9183809Y18819810D01*
X8945714Y18343620D02*
X8945714Y19343620D01*
X9326666Y19343620D01*
X9421904Y19296000D01*
X9469523Y19248381D01*
X9517142Y19153143D01*
X9517142Y19010286D01*
X9469523Y18915048D01*
X9421904Y18867429D01*
X9326666Y18819810D01*
X8945714Y18819810D01*
X9898095Y19248381D02*
X9945714Y19296000D01*
X10040952Y19343620D01*
X10279047Y19343620D01*
X10374285Y19296000D01*
X10421904Y19248381D01*
X10469523Y19153143D01*
X10469523Y19057905D01*
X10421904Y18915048D01*
X9850476Y18343620D01*
X10469523Y18343620D01*
X11421904Y18343620D02*
X10850476Y18343620D01*
X11136190Y18343620D02*
X11136190Y19343620D01*
X11040952Y19200762D01*
X10945714Y19105524D01*
X10850476Y19057905D01*
X9517142Y20883620D02*
X9183809Y21359810D01*
X8945714Y20883620D02*
X8945714Y21883620D01*
X9326666Y21883620D01*
X9421904Y21836000D01*
X9469523Y21788381D01*
X9517142Y21693143D01*
X9517142Y21550286D01*
X9469523Y21455048D01*
X9421904Y21407429D01*
X9326666Y21359810D01*
X8945714Y21359810D01*
X9898095Y21788381D02*
X9945714Y21836000D01*
X10040952Y21883620D01*
X10279047Y21883620D01*
X10374285Y21836000D01*
X10421904Y21788381D01*
X10469523Y21693143D01*
X10469523Y21597905D01*
X10421904Y21455048D01*
X9850476Y20883620D01*
X10469523Y20883620D01*
X10850476Y21788381D02*
X10898095Y21836000D01*
X10993333Y21883620D01*
X11231428Y21883620D01*
X11326666Y21836000D01*
X11374285Y21788381D01*
X11421904Y21693143D01*
X11421904Y21597905D01*
X11374285Y21455048D01*
X10802857Y20883620D01*
X11421904Y20883620D01*
X37457142Y23423620D02*
X37123809Y23899810D01*
X36885714Y23423620D02*
X36885714Y24423620D01*
X37266666Y24423620D01*
X37361904Y24376000D01*
X37409523Y24328381D01*
X37457142Y24233143D01*
X37457142Y24090286D01*
X37409523Y23995048D01*
X37361904Y23947429D01*
X37266666Y23899810D01*
X36885714Y23899810D01*
X37838095Y24328381D02*
X37885714Y24376000D01*
X37980952Y24423620D01*
X38219047Y24423620D01*
X38314285Y24376000D01*
X38361904Y24328381D01*
X38409523Y24233143D01*
X38409523Y24137905D01*
X38361904Y23995048D01*
X37790476Y23423620D01*
X38409523Y23423620D01*
X38980952Y23995048D02*
X38885714Y24042667D01*
X38838095Y24090286D01*
X38790476Y24185524D01*
X38790476Y24233143D01*
X38838095Y24328381D01*
X38885714Y24376000D01*
X38980952Y24423620D01*
X39171428Y24423620D01*
X39266666Y24376000D01*
X39314285Y24328381D01*
X39361904Y24233143D01*
X39361904Y24185524D01*
X39314285Y24090286D01*
X39266666Y24042667D01*
X39171428Y23995048D01*
X38980952Y23995048D01*
X38885714Y23947429D01*
X38838095Y23899810D01*
X38790476Y23804572D01*
X38790476Y23614096D01*
X38838095Y23518858D01*
X38885714Y23471239D01*
X38980952Y23423620D01*
X39171428Y23423620D01*
X39266666Y23471239D01*
X39314285Y23518858D01*
X39361904Y23614096D01*
X39361904Y23804572D01*
X39314285Y23899810D01*
X39266666Y23947429D01*
X39171428Y23995048D01*
X33393142Y23423620D02*
X33059809Y23899810D01*
X32821714Y23423620D02*
X32821714Y24423620D01*
X33202666Y24423620D01*
X33297904Y24376000D01*
X33345523Y24328381D01*
X33393142Y24233143D01*
X33393142Y24090286D01*
X33345523Y23995048D01*
X33297904Y23947429D01*
X33202666Y23899810D01*
X32821714Y23899810D01*
X33774095Y24328381D02*
X33821714Y24376000D01*
X33916952Y24423620D01*
X34155047Y24423620D01*
X34250285Y24376000D01*
X34297904Y24328381D01*
X34345523Y24233143D01*
X34345523Y24137905D01*
X34297904Y23995048D01*
X33726476Y23423620D01*
X34345523Y23423620D01*
X34821714Y23423620D02*
X35012190Y23423620D01*
X35107428Y23471239D01*
X35155047Y23518858D01*
X35250285Y23661715D01*
X35297904Y23852191D01*
X35297904Y24233143D01*
X35250285Y24328381D01*
X35202666Y24376000D01*
X35107428Y24423620D01*
X34916952Y24423620D01*
X34821714Y24376000D01*
X34774095Y24328381D01*
X34726476Y24233143D01*
X34726476Y23995048D01*
X34774095Y23899810D01*
X34821714Y23852191D01*
X34916952Y23804572D01*
X35107428Y23804572D01*
X35202666Y23852191D01*
X35250285Y23899810D01*
X35297904Y23995048D01*
X47260000Y33075620D02*
X46926666Y33551810D01*
X46688571Y33075620D02*
X46688571Y34075620D01*
X47069523Y34075620D01*
X47164761Y34028000D01*
X47212380Y33980381D01*
X47260000Y33885143D01*
X47260000Y33742286D01*
X47212380Y33647048D01*
X47164761Y33599429D01*
X47069523Y33551810D01*
X46688571Y33551810D01*
X47640952Y33123239D02*
X47736190Y33075620D01*
X47926666Y33075620D01*
X48021904Y33123239D01*
X48069523Y33218477D01*
X48069523Y33266096D01*
X48021904Y33361334D01*
X47926666Y33408953D01*
X47783809Y33408953D01*
X47688571Y33456572D01*
X47640952Y33551810D01*
X47640952Y33599429D01*
X47688571Y33694667D01*
X47783809Y33742286D01*
X47926666Y33742286D01*
X48021904Y33694667D01*
X48926666Y33123239D02*
X48831428Y33075620D01*
X48640952Y33075620D01*
X48545714Y33123239D01*
X48498095Y33170858D01*
X48450476Y33266096D01*
X48450476Y33551810D01*
X48498095Y33647048D01*
X48545714Y33694667D01*
X48640952Y33742286D01*
X48831428Y33742286D01*
X48926666Y33694667D01*
X49879047Y33075620D02*
X49307619Y33075620D01*
X49593333Y33075620D02*
X49593333Y34075620D01*
X49498095Y33932762D01*
X49402857Y33837524D01*
X49307619Y33789905D01*
X47260000Y30535620D02*
X46926666Y31011810D01*
X46688571Y30535620D02*
X46688571Y31535620D01*
X47069523Y31535620D01*
X47164761Y31488000D01*
X47212380Y31440381D01*
X47260000Y31345143D01*
X47260000Y31202286D01*
X47212380Y31107048D01*
X47164761Y31059429D01*
X47069523Y31011810D01*
X46688571Y31011810D01*
X47640952Y30583239D02*
X47736190Y30535620D01*
X47926666Y30535620D01*
X48021904Y30583239D01*
X48069523Y30678477D01*
X48069523Y30726096D01*
X48021904Y30821334D01*
X47926666Y30868953D01*
X47783809Y30868953D01*
X47688571Y30916572D01*
X47640952Y31011810D01*
X47640952Y31059429D01*
X47688571Y31154667D01*
X47783809Y31202286D01*
X47926666Y31202286D01*
X48021904Y31154667D01*
X48926666Y30583239D02*
X48831428Y30535620D01*
X48640952Y30535620D01*
X48545714Y30583239D01*
X48498095Y30630858D01*
X48450476Y30726096D01*
X48450476Y31011810D01*
X48498095Y31107048D01*
X48545714Y31154667D01*
X48640952Y31202286D01*
X48831428Y31202286D01*
X48926666Y31154667D01*
X49307619Y31440381D02*
X49355238Y31488000D01*
X49450476Y31535620D01*
X49688571Y31535620D01*
X49783809Y31488000D01*
X49831428Y31440381D01*
X49879047Y31345143D01*
X49879047Y31249905D01*
X49831428Y31107048D01*
X49260000Y30535620D01*
X49879047Y30535620D01*
X47260000Y27995620D02*
X46926666Y28471810D01*
X46688571Y27995620D02*
X46688571Y28995620D01*
X47069523Y28995620D01*
X47164761Y28948000D01*
X47212380Y28900381D01*
X47260000Y28805143D01*
X47260000Y28662286D01*
X47212380Y28567048D01*
X47164761Y28519429D01*
X47069523Y28471810D01*
X46688571Y28471810D01*
X47640952Y28043239D02*
X47736190Y27995620D01*
X47926666Y27995620D01*
X48021904Y28043239D01*
X48069523Y28138477D01*
X48069523Y28186096D01*
X48021904Y28281334D01*
X47926666Y28328953D01*
X47783809Y28328953D01*
X47688571Y28376572D01*
X47640952Y28471810D01*
X47640952Y28519429D01*
X47688571Y28614667D01*
X47783809Y28662286D01*
X47926666Y28662286D01*
X48021904Y28614667D01*
X48926666Y28043239D02*
X48831428Y27995620D01*
X48640952Y27995620D01*
X48545714Y28043239D01*
X48498095Y28090858D01*
X48450476Y28186096D01*
X48450476Y28471810D01*
X48498095Y28567048D01*
X48545714Y28614667D01*
X48640952Y28662286D01*
X48831428Y28662286D01*
X48926666Y28614667D01*
X49260000Y28995620D02*
X49879047Y28995620D01*
X49545714Y28614667D01*
X49688571Y28614667D01*
X49783809Y28567048D01*
X49831428Y28519429D01*
X49879047Y28424191D01*
X49879047Y28186096D01*
X49831428Y28090858D01*
X49783809Y28043239D01*
X49688571Y27995620D01*
X49402857Y27995620D01*
X49307619Y28043239D01*
X49260000Y28090858D01*
X56348380Y37338096D02*
X57157904Y37338096D01*
X57253142Y37385715D01*
X57300761Y37433334D01*
X57348380Y37528572D01*
X57348380Y37719048D01*
X57300761Y37814286D01*
X57253142Y37861905D01*
X57157904Y37909524D01*
X56348380Y37909524D01*
X57348380Y38909524D02*
X57348380Y38338096D01*
X57348380Y38623810D02*
X56348380Y38623810D01*
X56491238Y38528572D01*
X56586476Y38433334D01*
X56634095Y38338096D01*
X64770095Y37631620D02*
X64770095Y36822096D01*
X64817714Y36726858D01*
X64865333Y36679239D01*
X64960571Y36631620D01*
X65151047Y36631620D01*
X65246285Y36679239D01*
X65293904Y36726858D01*
X65341523Y36822096D01*
X65341523Y37631620D01*
X65770095Y37536381D02*
X65817714Y37584000D01*
X65912952Y37631620D01*
X66151047Y37631620D01*
X66246285Y37584000D01*
X66293904Y37536381D01*
X66341523Y37441143D01*
X66341523Y37345905D01*
X66293904Y37203048D01*
X65722476Y36631620D01*
X66341523Y36631620D01*
X33274095Y48807620D02*
X33274095Y47998096D01*
X33321714Y47902858D01*
X33369333Y47855239D01*
X33464571Y47807620D01*
X33655047Y47807620D01*
X33750285Y47855239D01*
X33797904Y47902858D01*
X33845523Y47998096D01*
X33845523Y48807620D01*
X34226476Y48807620D02*
X34845523Y48807620D01*
X34512190Y48426667D01*
X34655047Y48426667D01*
X34750285Y48379048D01*
X34797904Y48331429D01*
X34845523Y48236191D01*
X34845523Y47998096D01*
X34797904Y47902858D01*
X34750285Y47855239D01*
X34655047Y47807620D01*
X34369333Y47807620D01*
X34274095Y47855239D01*
X34226476Y47902858D01*
X22098095Y48807620D02*
X22098095Y47998096D01*
X22145714Y47902858D01*
X22193333Y47855239D01*
X22288571Y47807620D01*
X22479047Y47807620D01*
X22574285Y47855239D01*
X22621904Y47902858D01*
X22669523Y47998096D01*
X22669523Y48807620D01*
X23574285Y48474286D02*
X23574285Y47807620D01*
X23336190Y48855239D02*
X23098095Y48140953D01*
X23717142Y48140953D01*
X10922095Y48807620D02*
X10922095Y47998096D01*
X10969714Y47902858D01*
X11017333Y47855239D01*
X11112571Y47807620D01*
X11303047Y47807620D01*
X11398285Y47855239D01*
X11445904Y47902858D01*
X11493523Y47998096D01*
X11493523Y48807620D01*
X12445904Y48807620D02*
X11969714Y48807620D01*
X11922095Y48331429D01*
X11969714Y48379048D01*
X12064952Y48426667D01*
X12303047Y48426667D01*
X12398285Y48379048D01*
X12445904Y48331429D01*
X12493523Y48236191D01*
X12493523Y47998096D01*
X12445904Y47902858D01*
X12398285Y47855239D01*
X12303047Y47807620D01*
X12064952Y47807620D01*
X11969714Y47855239D01*
X11922095Y47902858D01*
X18796095Y41993620D02*
X18796095Y41184096D01*
X18843714Y41088858D01*
X18891333Y41041239D01*
X18986571Y40993620D01*
X19177047Y40993620D01*
X19272285Y41041239D01*
X19319904Y41088858D01*
X19367523Y41184096D01*
X19367523Y41993620D01*
X20272285Y41993620D02*
X20081809Y41993620D01*
X19986571Y41946000D01*
X19938952Y41898381D01*
X19843714Y41755524D01*
X19796095Y41565048D01*
X19796095Y41184096D01*
X19843714Y41088858D01*
X19891333Y41041239D01*
X19986571Y40993620D01*
X20177047Y40993620D01*
X20272285Y41041239D01*
X20319904Y41088858D01*
X20367523Y41184096D01*
X20367523Y41422191D01*
X20319904Y41517429D01*
X20272285Y41565048D01*
X20177047Y41612667D01*
X19986571Y41612667D01*
X19891333Y41565048D01*
X19843714Y41517429D01*
X19796095Y41422191D01*
X54102095Y28274620D02*
X54102095Y27465096D01*
X54149714Y27369858D01*
X54197333Y27322239D01*
X54292571Y27274620D01*
X54483047Y27274620D01*
X54578285Y27322239D01*
X54625904Y27369858D01*
X54673523Y27465096D01*
X54673523Y28274620D01*
X55292571Y27846048D02*
X55197333Y27893667D01*
X55149714Y27941286D01*
X55102095Y28036524D01*
X55102095Y28084143D01*
X55149714Y28179381D01*
X55197333Y28227000D01*
X55292571Y28274620D01*
X55483047Y28274620D01*
X55578285Y28227000D01*
X55625904Y28179381D01*
X55673523Y28084143D01*
X55673523Y28036524D01*
X55625904Y27941286D01*
X55578285Y27893667D01*
X55483047Y27846048D01*
X55292571Y27846048D01*
X55197333Y27798429D01*
X55149714Y27750810D01*
X55102095Y27655572D01*
X55102095Y27465096D01*
X55149714Y27369858D01*
X55197333Y27322239D01*
X55292571Y27274620D01*
X55483047Y27274620D01*
X55578285Y27322239D01*
X55625904Y27369858D01*
X55673523Y27465096D01*
X55673523Y27655572D01*
X55625904Y27750810D01*
X55578285Y27798429D01*
X55483047Y27846048D01*
X56348380Y49530096D02*
X57157904Y49530096D01*
X57253142Y49577715D01*
X57300761Y49625334D01*
X57348380Y49720572D01*
X57348380Y49911048D01*
X57300761Y50006286D01*
X57253142Y50053905D01*
X57157904Y50101524D01*
X56348380Y50101524D01*
X57348380Y50625334D02*
X57348380Y50815810D01*
X57300761Y50911048D01*
X57253142Y50958667D01*
X57110285Y51053905D01*
X56919809Y51101524D01*
X56538857Y51101524D01*
X56443619Y51053905D01*
X56396000Y51006286D01*
X56348380Y50911048D01*
X56348380Y50720572D01*
X56396000Y50625334D01*
X56443619Y50577715D01*
X56538857Y50530096D01*
X56776952Y50530096D01*
X56872190Y50577715D01*
X56919809Y50625334D01*
X56967428Y50720572D01*
X56967428Y50911048D01*
X56919809Y51006286D01*
X56872190Y51053905D01*
X56776952Y51101524D01*
X34829904Y28995620D02*
X34829904Y28186096D01*
X34877523Y28090858D01*
X34925142Y28043239D01*
X35020380Y27995620D01*
X35210857Y27995620D01*
X35306095Y28043239D01*
X35353714Y28090858D01*
X35401333Y28186096D01*
X35401333Y28995620D01*
X36401333Y27995620D02*
X35829904Y27995620D01*
X36115619Y27995620D02*
X36115619Y28995620D01*
X36020380Y28852762D01*
X35925142Y28757524D01*
X35829904Y28709905D01*
X37020380Y28995620D02*
X37115619Y28995620D01*
X37210857Y28948000D01*
X37258476Y28900381D01*
X37306095Y28805143D01*
X37353714Y28614667D01*
X37353714Y28376572D01*
X37306095Y28186096D01*
X37258476Y28090858D01*
X37210857Y28043239D01*
X37115619Y27995620D01*
X37020380Y27995620D01*
X36925142Y28043239D01*
X36877523Y28090858D01*
X36829904Y28186096D01*
X36782285Y28376572D01*
X36782285Y28614667D01*
X36829904Y28805143D01*
X36877523Y28900381D01*
X36925142Y28948000D01*
X37020380Y28995620D01*
X73429904Y23931620D02*
X73429904Y24931620D01*
X73810857Y24931620D01*
X73906095Y24884000D01*
X73953714Y24836381D01*
X74001333Y24741143D01*
X74001333Y24598286D01*
X73953714Y24503048D01*
X73906095Y24455429D01*
X73810857Y24407810D01*
X73429904Y24407810D01*
X74334666Y24931620D02*
X74953714Y24931620D01*
X74620380Y24550667D01*
X74763238Y24550667D01*
X74858476Y24503048D01*
X74906095Y24455429D01*
X74953714Y24360191D01*
X74953714Y24122096D01*
X74906095Y24026858D01*
X74858476Y23979239D01*
X74763238Y23931620D01*
X74477523Y23931620D01*
X74382285Y23979239D01*
X74334666Y24026858D01*
M02*
