G04 #@! TF.GenerationSoftware,KiCad,Pcbnew,(5.1.0)-1*
G04 #@! TF.CreationDate,2019-04-04T19:18:29+02:00*
G04 #@! TF.ProjectId,YAPSCO,59415053-434f-42e6-9b69-6361645f7063,rev?*
G04 #@! TF.SameCoordinates,PX6a95280PY86ae840*
G04 #@! TF.FileFunction,Legend,Bot*
G04 #@! TF.FilePolarity,Positive*
%FSLAX46Y46*%
G04 Gerber Fmt 4.6, Leading zero omitted, Abs format (unit mm)*
G04 Created by KiCad (PCBNEW (5.1.0)-1) date 2019-04-04 19:18:29*
%MOMM*%
%LPD*%
G04 APERTURE LIST*
%ADD10C,0.120000*%
%ADD11C,0.150000*%
G04 APERTURE END LIST*
D10*
X56082000Y55633252D02*
X56082000Y55110748D01*
X54662000Y55633252D02*
X54662000Y55110748D01*
X37330748Y36778000D02*
X37853252Y36778000D01*
X37330748Y35358000D02*
X37853252Y35358000D01*
X30218748Y36778000D02*
X30741252Y36778000D01*
X30218748Y35358000D02*
X30741252Y35358000D01*
X31698000Y30242252D02*
X31698000Y29719748D01*
X30278000Y30242252D02*
X30278000Y29719748D01*
X14993252Y23166000D02*
X14470748Y23166000D01*
X14993252Y24586000D02*
X14470748Y24586000D01*
X14470748Y21030000D02*
X14993252Y21030000D01*
X14470748Y19610000D02*
X14993252Y19610000D01*
X20082252Y28246000D02*
X19559748Y28246000D01*
X20082252Y29666000D02*
X19559748Y29666000D01*
X38230564Y46842000D02*
X37026436Y46842000D01*
X38230564Y48662000D02*
X37026436Y48662000D01*
X27054564Y46842000D02*
X25850436Y46842000D01*
X27054564Y48662000D02*
X25850436Y48662000D01*
X15878564Y46842000D02*
X14674436Y46842000D01*
X15878564Y48662000D02*
X14674436Y48662000D01*
X20377564Y15346000D02*
X19173436Y15346000D01*
X20377564Y17166000D02*
X19173436Y17166000D01*
X19209936Y19706000D02*
X20414064Y19706000D01*
X19209936Y17886000D02*
X20414064Y17886000D01*
X20450564Y20426000D02*
X19246436Y20426000D01*
X20450564Y22246000D02*
X19246436Y22246000D01*
X20450564Y22966000D02*
X19246436Y22966000D01*
X20450564Y24786000D02*
X19246436Y24786000D01*
X20450564Y25506000D02*
X19246436Y25506000D01*
X20450564Y27326000D02*
X19246436Y27326000D01*
X77121936Y27961000D02*
X78326064Y27961000D01*
X77121936Y26141000D02*
X78326064Y26141000D01*
X78362564Y23474000D02*
X77158436Y23474000D01*
X78362564Y25294000D02*
X77158436Y25294000D01*
X58870436Y25294000D02*
X60074564Y25294000D01*
X58870436Y23474000D02*
X60074564Y23474000D01*
X58870436Y22754000D02*
X60074564Y22754000D01*
X58870436Y20934000D02*
X60074564Y20934000D01*
X58833936Y20214000D02*
X60038064Y20214000D01*
X58833936Y18394000D02*
X60038064Y18394000D01*
D11*
X55538666Y52483858D02*
X55586285Y52436239D01*
X55729142Y52388620D01*
X55824380Y52388620D01*
X55967238Y52436239D01*
X56062476Y52531477D01*
X56110095Y52626715D01*
X56157714Y52817191D01*
X56157714Y52960048D01*
X56110095Y53150524D01*
X56062476Y53245762D01*
X55967238Y53341000D01*
X55824380Y53388620D01*
X55729142Y53388620D01*
X55586285Y53341000D01*
X55538666Y53293381D01*
X54586285Y52388620D02*
X55157714Y52388620D01*
X54872000Y52388620D02*
X54872000Y53388620D01*
X54967238Y53245762D01*
X55062476Y53150524D01*
X55157714Y53102905D01*
X34710666Y35710858D02*
X34758285Y35663239D01*
X34901142Y35615620D01*
X34996380Y35615620D01*
X35139238Y35663239D01*
X35234476Y35758477D01*
X35282095Y35853715D01*
X35329714Y36044191D01*
X35329714Y36187048D01*
X35282095Y36377524D01*
X35234476Y36472762D01*
X35139238Y36568000D01*
X34996380Y36615620D01*
X34901142Y36615620D01*
X34758285Y36568000D01*
X34710666Y36520381D01*
X34377333Y36615620D02*
X33758285Y36615620D01*
X34091619Y36234667D01*
X33948761Y36234667D01*
X33853523Y36187048D01*
X33805904Y36139429D01*
X33758285Y36044191D01*
X33758285Y35806096D01*
X33805904Y35710858D01*
X33853523Y35663239D01*
X33948761Y35615620D01*
X34234476Y35615620D01*
X34329714Y35663239D01*
X34377333Y35710858D01*
X27598666Y35710858D02*
X27646285Y35663239D01*
X27789142Y35615620D01*
X27884380Y35615620D01*
X28027238Y35663239D01*
X28122476Y35758477D01*
X28170095Y35853715D01*
X28217714Y36044191D01*
X28217714Y36187048D01*
X28170095Y36377524D01*
X28122476Y36472762D01*
X28027238Y36568000D01*
X27884380Y36615620D01*
X27789142Y36615620D01*
X27646285Y36568000D01*
X27598666Y36520381D01*
X26741523Y36282286D02*
X26741523Y35615620D01*
X26979619Y36663239D02*
X27217714Y35948953D01*
X26598666Y35948953D01*
X31154666Y27074858D02*
X31202285Y27027239D01*
X31345142Y26979620D01*
X31440380Y26979620D01*
X31583238Y27027239D01*
X31678476Y27122477D01*
X31726095Y27217715D01*
X31773714Y27408191D01*
X31773714Y27551048D01*
X31726095Y27741524D01*
X31678476Y27836762D01*
X31583238Y27932000D01*
X31440380Y27979620D01*
X31345142Y27979620D01*
X31202285Y27932000D01*
X31154666Y27884381D01*
X30583238Y27551048D02*
X30678476Y27598667D01*
X30726095Y27646286D01*
X30773714Y27741524D01*
X30773714Y27789143D01*
X30726095Y27884381D01*
X30678476Y27932000D01*
X30583238Y27979620D01*
X30392761Y27979620D01*
X30297523Y27932000D01*
X30249904Y27884381D01*
X30202285Y27789143D01*
X30202285Y27741524D01*
X30249904Y27646286D01*
X30297523Y27598667D01*
X30392761Y27551048D01*
X30583238Y27551048D01*
X30678476Y27503429D01*
X30726095Y27455810D01*
X30773714Y27360572D01*
X30773714Y27170096D01*
X30726095Y27074858D01*
X30678476Y27027239D01*
X30583238Y26979620D01*
X30392761Y26979620D01*
X30297523Y27027239D01*
X30249904Y27074858D01*
X30202285Y27170096D01*
X30202285Y27360572D01*
X30249904Y27455810D01*
X30297523Y27503429D01*
X30392761Y27551048D01*
X11818857Y23518858D02*
X11866476Y23471239D01*
X12009333Y23423620D01*
X12104571Y23423620D01*
X12247428Y23471239D01*
X12342666Y23566477D01*
X12390285Y23661715D01*
X12437904Y23852191D01*
X12437904Y23995048D01*
X12390285Y24185524D01*
X12342666Y24280762D01*
X12247428Y24376000D01*
X12104571Y24423620D01*
X12009333Y24423620D01*
X11866476Y24376000D01*
X11818857Y24328381D01*
X10866476Y23423620D02*
X11437904Y23423620D01*
X11152190Y23423620D02*
X11152190Y24423620D01*
X11247428Y24280762D01*
X11342666Y24185524D01*
X11437904Y24137905D01*
X10247428Y24423620D02*
X10152190Y24423620D01*
X10056952Y24376000D01*
X10009333Y24328381D01*
X9961714Y24233143D01*
X9914095Y24042667D01*
X9914095Y23804572D01*
X9961714Y23614096D01*
X10009333Y23518858D01*
X10056952Y23471239D01*
X10152190Y23423620D01*
X10247428Y23423620D01*
X10342666Y23471239D01*
X10390285Y23518858D01*
X10437904Y23614096D01*
X10485523Y23804572D01*
X10485523Y24042667D01*
X10437904Y24233143D01*
X10390285Y24328381D01*
X10342666Y24376000D01*
X10247428Y24423620D01*
X11818857Y19962858D02*
X11866476Y19915239D01*
X12009333Y19867620D01*
X12104571Y19867620D01*
X12247428Y19915239D01*
X12342666Y20010477D01*
X12390285Y20105715D01*
X12437904Y20296191D01*
X12437904Y20439048D01*
X12390285Y20629524D01*
X12342666Y20724762D01*
X12247428Y20820000D01*
X12104571Y20867620D01*
X12009333Y20867620D01*
X11866476Y20820000D01*
X11818857Y20772381D01*
X10866476Y19867620D02*
X11437904Y19867620D01*
X11152190Y19867620D02*
X11152190Y20867620D01*
X11247428Y20724762D01*
X11342666Y20629524D01*
X11437904Y20581905D01*
X9914095Y19867620D02*
X10485523Y19867620D01*
X10199809Y19867620D02*
X10199809Y20867620D01*
X10295047Y20724762D01*
X10390285Y20629524D01*
X10485523Y20581905D01*
X24518857Y28598858D02*
X24566476Y28551239D01*
X24709333Y28503620D01*
X24804571Y28503620D01*
X24947428Y28551239D01*
X25042666Y28646477D01*
X25090285Y28741715D01*
X25137904Y28932191D01*
X25137904Y29075048D01*
X25090285Y29265524D01*
X25042666Y29360762D01*
X24947428Y29456000D01*
X24804571Y29503620D01*
X24709333Y29503620D01*
X24566476Y29456000D01*
X24518857Y29408381D01*
X23566476Y28503620D02*
X24137904Y28503620D01*
X23852190Y28503620D02*
X23852190Y29503620D01*
X23947428Y29360762D01*
X24042666Y29265524D01*
X24137904Y29217905D01*
X23185523Y29408381D02*
X23137904Y29456000D01*
X23042666Y29503620D01*
X22804571Y29503620D01*
X22709333Y29456000D01*
X22661714Y29408381D01*
X22614095Y29313143D01*
X22614095Y29217905D01*
X22661714Y29075048D01*
X23233142Y28503620D01*
X22614095Y28503620D01*
X34202666Y47299620D02*
X34536000Y47775810D01*
X34774095Y47299620D02*
X34774095Y48299620D01*
X34393142Y48299620D01*
X34297904Y48252000D01*
X34250285Y48204381D01*
X34202666Y48109143D01*
X34202666Y47966286D01*
X34250285Y47871048D01*
X34297904Y47823429D01*
X34393142Y47775810D01*
X34774095Y47775810D01*
X33631238Y47871048D02*
X33726476Y47918667D01*
X33774095Y47966286D01*
X33821714Y48061524D01*
X33821714Y48109143D01*
X33774095Y48204381D01*
X33726476Y48252000D01*
X33631238Y48299620D01*
X33440761Y48299620D01*
X33345523Y48252000D01*
X33297904Y48204381D01*
X33250285Y48109143D01*
X33250285Y48061524D01*
X33297904Y47966286D01*
X33345523Y47918667D01*
X33440761Y47871048D01*
X33631238Y47871048D01*
X33726476Y47823429D01*
X33774095Y47775810D01*
X33821714Y47680572D01*
X33821714Y47490096D01*
X33774095Y47394858D01*
X33726476Y47347239D01*
X33631238Y47299620D01*
X33440761Y47299620D01*
X33345523Y47347239D01*
X33297904Y47394858D01*
X33250285Y47490096D01*
X33250285Y47680572D01*
X33297904Y47775810D01*
X33345523Y47823429D01*
X33440761Y47871048D01*
X23026666Y47299620D02*
X23360000Y47775810D01*
X23598095Y47299620D02*
X23598095Y48299620D01*
X23217142Y48299620D01*
X23121904Y48252000D01*
X23074285Y48204381D01*
X23026666Y48109143D01*
X23026666Y47966286D01*
X23074285Y47871048D01*
X23121904Y47823429D01*
X23217142Y47775810D01*
X23598095Y47775810D01*
X22550476Y47299620D02*
X22360000Y47299620D01*
X22264761Y47347239D01*
X22217142Y47394858D01*
X22121904Y47537715D01*
X22074285Y47728191D01*
X22074285Y48109143D01*
X22121904Y48204381D01*
X22169523Y48252000D01*
X22264761Y48299620D01*
X22455238Y48299620D01*
X22550476Y48252000D01*
X22598095Y48204381D01*
X22645714Y48109143D01*
X22645714Y47871048D01*
X22598095Y47775810D01*
X22550476Y47728191D01*
X22455238Y47680572D01*
X22264761Y47680572D01*
X22169523Y47728191D01*
X22121904Y47775810D01*
X22074285Y47871048D01*
X11818857Y47299620D02*
X12152190Y47775810D01*
X12390285Y47299620D02*
X12390285Y48299620D01*
X12009333Y48299620D01*
X11914095Y48252000D01*
X11866476Y48204381D01*
X11818857Y48109143D01*
X11818857Y47966286D01*
X11866476Y47871048D01*
X11914095Y47823429D01*
X12009333Y47775810D01*
X12390285Y47775810D01*
X10866476Y47299620D02*
X11437904Y47299620D01*
X11152190Y47299620D02*
X11152190Y48299620D01*
X11247428Y48156762D01*
X11342666Y48061524D01*
X11437904Y48013905D01*
X9914095Y47299620D02*
X10485523Y47299620D01*
X10199809Y47299620D02*
X10199809Y48299620D01*
X10295047Y48156762D01*
X10390285Y48061524D01*
X10485523Y48013905D01*
X24518857Y15803620D02*
X24852190Y16279810D01*
X25090285Y15803620D02*
X25090285Y16803620D01*
X24709333Y16803620D01*
X24614095Y16756000D01*
X24566476Y16708381D01*
X24518857Y16613143D01*
X24518857Y16470286D01*
X24566476Y16375048D01*
X24614095Y16327429D01*
X24709333Y16279810D01*
X25090285Y16279810D01*
X23566476Y15803620D02*
X24137904Y15803620D01*
X23852190Y15803620D02*
X23852190Y16803620D01*
X23947428Y16660762D01*
X24042666Y16565524D01*
X24137904Y16517905D01*
X23185523Y16708381D02*
X23137904Y16756000D01*
X23042666Y16803620D01*
X22804571Y16803620D01*
X22709333Y16756000D01*
X22661714Y16708381D01*
X22614095Y16613143D01*
X22614095Y16517905D01*
X22661714Y16375048D01*
X23233142Y15803620D01*
X22614095Y15803620D01*
X24518857Y18343620D02*
X24852190Y18819810D01*
X25090285Y18343620D02*
X25090285Y19343620D01*
X24709333Y19343620D01*
X24614095Y19296000D01*
X24566476Y19248381D01*
X24518857Y19153143D01*
X24518857Y19010286D01*
X24566476Y18915048D01*
X24614095Y18867429D01*
X24709333Y18819810D01*
X25090285Y18819810D01*
X23566476Y18343620D02*
X24137904Y18343620D01*
X23852190Y18343620D02*
X23852190Y19343620D01*
X23947428Y19200762D01*
X24042666Y19105524D01*
X24137904Y19057905D01*
X23233142Y19343620D02*
X22614095Y19343620D01*
X22947428Y18962667D01*
X22804571Y18962667D01*
X22709333Y18915048D01*
X22661714Y18867429D01*
X22614095Y18772191D01*
X22614095Y18534096D01*
X22661714Y18438858D01*
X22709333Y18391239D01*
X22804571Y18343620D01*
X23090285Y18343620D01*
X23185523Y18391239D01*
X23233142Y18438858D01*
X24518857Y20883620D02*
X24852190Y21359810D01*
X25090285Y20883620D02*
X25090285Y21883620D01*
X24709333Y21883620D01*
X24614095Y21836000D01*
X24566476Y21788381D01*
X24518857Y21693143D01*
X24518857Y21550286D01*
X24566476Y21455048D01*
X24614095Y21407429D01*
X24709333Y21359810D01*
X25090285Y21359810D01*
X23566476Y20883620D02*
X24137904Y20883620D01*
X23852190Y20883620D02*
X23852190Y21883620D01*
X23947428Y21740762D01*
X24042666Y21645524D01*
X24137904Y21597905D01*
X22709333Y21550286D02*
X22709333Y20883620D01*
X22947428Y21931239D02*
X23185523Y21216953D01*
X22566476Y21216953D01*
X24518857Y23423620D02*
X24852190Y23899810D01*
X25090285Y23423620D02*
X25090285Y24423620D01*
X24709333Y24423620D01*
X24614095Y24376000D01*
X24566476Y24328381D01*
X24518857Y24233143D01*
X24518857Y24090286D01*
X24566476Y23995048D01*
X24614095Y23947429D01*
X24709333Y23899810D01*
X25090285Y23899810D01*
X23566476Y23423620D02*
X24137904Y23423620D01*
X23852190Y23423620D02*
X23852190Y24423620D01*
X23947428Y24280762D01*
X24042666Y24185524D01*
X24137904Y24137905D01*
X22661714Y24423620D02*
X23137904Y24423620D01*
X23185523Y23947429D01*
X23137904Y23995048D01*
X23042666Y24042667D01*
X22804571Y24042667D01*
X22709333Y23995048D01*
X22661714Y23947429D01*
X22614095Y23852191D01*
X22614095Y23614096D01*
X22661714Y23518858D01*
X22709333Y23471239D01*
X22804571Y23423620D01*
X23042666Y23423620D01*
X23137904Y23471239D01*
X23185523Y23518858D01*
X24518857Y25963620D02*
X24852190Y26439810D01*
X25090285Y25963620D02*
X25090285Y26963620D01*
X24709333Y26963620D01*
X24614095Y26916000D01*
X24566476Y26868381D01*
X24518857Y26773143D01*
X24518857Y26630286D01*
X24566476Y26535048D01*
X24614095Y26487429D01*
X24709333Y26439810D01*
X25090285Y26439810D01*
X23566476Y25963620D02*
X24137904Y25963620D01*
X23852190Y25963620D02*
X23852190Y26963620D01*
X23947428Y26820762D01*
X24042666Y26725524D01*
X24137904Y26677905D01*
X22709333Y26963620D02*
X22899809Y26963620D01*
X22995047Y26916000D01*
X23042666Y26868381D01*
X23137904Y26725524D01*
X23185523Y26535048D01*
X23185523Y26154096D01*
X23137904Y26058858D01*
X23090285Y26011239D01*
X22995047Y25963620D01*
X22804571Y25963620D01*
X22709333Y26011239D01*
X22661714Y26058858D01*
X22614095Y26154096D01*
X22614095Y26392191D01*
X22661714Y26487429D01*
X22709333Y26535048D01*
X22804571Y26582667D01*
X22995047Y26582667D01*
X23090285Y26535048D01*
X23137904Y26487429D01*
X23185523Y26392191D01*
X74302857Y26471620D02*
X74636190Y26947810D01*
X74874285Y26471620D02*
X74874285Y27471620D01*
X74493333Y27471620D01*
X74398095Y27424000D01*
X74350476Y27376381D01*
X74302857Y27281143D01*
X74302857Y27138286D01*
X74350476Y27043048D01*
X74398095Y26995429D01*
X74493333Y26947810D01*
X74874285Y26947810D01*
X73921904Y27376381D02*
X73874285Y27424000D01*
X73779047Y27471620D01*
X73540952Y27471620D01*
X73445714Y27424000D01*
X73398095Y27376381D01*
X73350476Y27281143D01*
X73350476Y27185905D01*
X73398095Y27043048D01*
X73969523Y26471620D01*
X73350476Y26471620D01*
X73017142Y27471620D02*
X72398095Y27471620D01*
X72731428Y27090667D01*
X72588571Y27090667D01*
X72493333Y27043048D01*
X72445714Y26995429D01*
X72398095Y26900191D01*
X72398095Y26662096D01*
X72445714Y26566858D01*
X72493333Y26519239D01*
X72588571Y26471620D01*
X72874285Y26471620D01*
X72969523Y26519239D01*
X73017142Y26566858D01*
X74302857Y23931620D02*
X74636190Y24407810D01*
X74874285Y23931620D02*
X74874285Y24931620D01*
X74493333Y24931620D01*
X74398095Y24884000D01*
X74350476Y24836381D01*
X74302857Y24741143D01*
X74302857Y24598286D01*
X74350476Y24503048D01*
X74398095Y24455429D01*
X74493333Y24407810D01*
X74874285Y24407810D01*
X73921904Y24836381D02*
X73874285Y24884000D01*
X73779047Y24931620D01*
X73540952Y24931620D01*
X73445714Y24884000D01*
X73398095Y24836381D01*
X73350476Y24741143D01*
X73350476Y24645905D01*
X73398095Y24503048D01*
X73969523Y23931620D01*
X73350476Y23931620D01*
X72493333Y24598286D02*
X72493333Y23931620D01*
X72731428Y24979239D02*
X72969523Y24264953D01*
X72350476Y24264953D01*
X56014857Y23931620D02*
X56348190Y24407810D01*
X56586285Y23931620D02*
X56586285Y24931620D01*
X56205333Y24931620D01*
X56110095Y24884000D01*
X56062476Y24836381D01*
X56014857Y24741143D01*
X56014857Y24598286D01*
X56062476Y24503048D01*
X56110095Y24455429D01*
X56205333Y24407810D01*
X56586285Y24407810D01*
X55633904Y24836381D02*
X55586285Y24884000D01*
X55491047Y24931620D01*
X55252952Y24931620D01*
X55157714Y24884000D01*
X55110095Y24836381D01*
X55062476Y24741143D01*
X55062476Y24645905D01*
X55110095Y24503048D01*
X55681523Y23931620D01*
X55062476Y23931620D01*
X54157714Y24931620D02*
X54633904Y24931620D01*
X54681523Y24455429D01*
X54633904Y24503048D01*
X54538666Y24550667D01*
X54300571Y24550667D01*
X54205333Y24503048D01*
X54157714Y24455429D01*
X54110095Y24360191D01*
X54110095Y24122096D01*
X54157714Y24026858D01*
X54205333Y23979239D01*
X54300571Y23931620D01*
X54538666Y23931620D01*
X54633904Y23979239D01*
X54681523Y24026858D01*
X56014857Y21391620D02*
X56348190Y21867810D01*
X56586285Y21391620D02*
X56586285Y22391620D01*
X56205333Y22391620D01*
X56110095Y22344000D01*
X56062476Y22296381D01*
X56014857Y22201143D01*
X56014857Y22058286D01*
X56062476Y21963048D01*
X56110095Y21915429D01*
X56205333Y21867810D01*
X56586285Y21867810D01*
X55633904Y22296381D02*
X55586285Y22344000D01*
X55491047Y22391620D01*
X55252952Y22391620D01*
X55157714Y22344000D01*
X55110095Y22296381D01*
X55062476Y22201143D01*
X55062476Y22105905D01*
X55110095Y21963048D01*
X55681523Y21391620D01*
X55062476Y21391620D01*
X54205333Y22391620D02*
X54395809Y22391620D01*
X54491047Y22344000D01*
X54538666Y22296381D01*
X54633904Y22153524D01*
X54681523Y21963048D01*
X54681523Y21582096D01*
X54633904Y21486858D01*
X54586285Y21439239D01*
X54491047Y21391620D01*
X54300571Y21391620D01*
X54205333Y21439239D01*
X54157714Y21486858D01*
X54110095Y21582096D01*
X54110095Y21820191D01*
X54157714Y21915429D01*
X54205333Y21963048D01*
X54300571Y22010667D01*
X54491047Y22010667D01*
X54586285Y21963048D01*
X54633904Y21915429D01*
X54681523Y21820191D01*
X56014857Y18851620D02*
X56348190Y19327810D01*
X56586285Y18851620D02*
X56586285Y19851620D01*
X56205333Y19851620D01*
X56110095Y19804000D01*
X56062476Y19756381D01*
X56014857Y19661143D01*
X56014857Y19518286D01*
X56062476Y19423048D01*
X56110095Y19375429D01*
X56205333Y19327810D01*
X56586285Y19327810D01*
X55633904Y19756381D02*
X55586285Y19804000D01*
X55491047Y19851620D01*
X55252952Y19851620D01*
X55157714Y19804000D01*
X55110095Y19756381D01*
X55062476Y19661143D01*
X55062476Y19565905D01*
X55110095Y19423048D01*
X55681523Y18851620D01*
X55062476Y18851620D01*
X54729142Y19851620D02*
X54062476Y19851620D01*
X54491047Y18851620D01*
M02*
