M48
; DRILL file {KiCad (5.1.0)-1} date 04-04-2019 19:18:38
; FORMAT={-:-/ absolute / metric / decimal}
; #@! TF.CreationDate,2019-04-04T19:18:38+02:00
; #@! TF.GenerationSoftware,Kicad,Pcbnew,(5.1.0)-1
; #@! TF.FileFunction,Plated,1,2,PTH
FMAT,2
METRIC
T1C0.406
T2C0.800
T3C1.000
T4C1.016
T5C1.100
T6C1.520
T7C3.200
%
G90
G05
T1
X14.986Y28.194
X18.288Y11.684
X19.812Y12.263
X23.285Y25.654
X23.294Y22.438
X24.638Y21.336
X24.638Y13.716
X25.483Y19.941
X27.193Y12.021
X27.686Y17.018
X28.702Y30.988
X30.226Y10.922
X30.434Y15.886
X33.274Y28.194
X35.814Y23.876
X38.1Y23.876
X43.434Y25.908
X46.228Y18.796
X47.244Y36.068
X47.752Y17.526
X47.752Y15.929
X48.514Y25.4
X48.768Y21.844
X49.194Y19.812
X50.292Y23.622
X50.292Y16.002
X50.546Y9.652
X50.783Y4.661
X52.07Y5.76
X54.102Y5.76
X54.61Y2.794
X54.864Y27.251
X54.864Y25.654
X55.626Y22.428
X55.626Y20.828
X56.134Y48.514
X56.134Y46.736
X56.134Y44.958
X57.15Y5.76
X58.166Y16.764
X58.42Y35.306
X58.42Y32.766
X58.496Y27.61
X59.69Y4.826
X61.214Y38.862
X62.415Y16.701
X62.992Y38.862
X62.992Y32.077
X62.992Y30.48
X62.992Y26.416
X62.992Y24.13
X63.043Y28.884
X63.057Y8.069
X64.008Y22.098
X64.008Y20.501
X64.008Y18.288
X64.262Y50.292
X64.262Y48.26
X64.688Y24.343
X65.024Y10.414
X65.771Y36.337
X66.04Y13.462
X66.548Y28.194
X66.802Y32.512
X67.564Y34.036
X67.564Y19.304
X67.818Y38.354
X68.34Y20.798
X68.58Y42.672
X70.104Y38.354
X71.12Y48.768
X71.628Y53.848
X72.644Y25.476
X72.644Y23.876
X73.152Y28.702
X74.422Y44.196
X74.561Y19.419
X74.93Y28.956
X77.216Y57.404
X80.518Y44.196
T2
X22.86Y57.912
X22.86Y50.292
X25.4Y57.912
X25.4Y50.292
X27.94Y57.912
X27.94Y50.292
X30.48Y57.912
X30.48Y50.292
X34.036Y57.912
X34.036Y50.292
X36.576Y57.912
X36.576Y50.292
X39.116Y57.912
X39.116Y50.292
X41.656Y57.912
X41.656Y50.292
X29.972Y39.116
X32.472Y39.116
X11.684Y57.912
X11.684Y50.292
X14.224Y57.912
X14.224Y50.292
X16.764Y57.912
X16.764Y50.292
X19.304Y57.912
X19.304Y50.292
X51.308Y66.548
X53.808Y66.548
X51.308Y51.308
X53.808Y51.308
X15.748Y39.116
X15.748Y36.576
X15.748Y34.036
X15.748Y31.496
X23.368Y39.116
X23.368Y36.576
X23.368Y34.036
X23.368Y31.496
X51.308Y58.928
X53.808Y58.928
T3
X52.928Y13.208
X54.313Y10.368
X55.698Y13.208
X57.083Y10.368
X58.468Y13.208
X59.853Y10.368
X61.238Y13.208
X62.623Y10.368
X64.008Y13.208
X76.708Y13.589
X79.248Y13.589
X76.708Y17.272
X79.248Y17.272
X3.66Y44.772
X3.66Y42.002
X3.66Y39.232
X3.66Y36.462
X3.66Y33.692
X3.66Y30.922
X3.66Y28.152
X6.5Y46.157
X6.5Y43.387
X6.5Y40.617
X6.5Y37.847
X6.5Y35.077
X6.5Y32.307
X6.5Y29.537
X6.5Y26.767
X76.708Y21.082
X79.248Y21.082
X38.1Y18.288
X40.64Y18.288
X43.18Y18.288
T4
X76.2Y40.894
X76.2Y38.354
X76.2Y35.814
X76.2Y33.274
X76.2Y30.734
X78.74Y40.894
X78.74Y38.354
X78.74Y35.814
X78.74Y33.274
X78.74Y30.734
T5
X58.928Y44.704
X58.928Y42.164
X58.928Y39.624
X58.928Y56.896
X58.928Y54.356
X58.928Y51.816
X29.464Y33.528
X29.464Y23.368
T6
X24.384Y66.04
X29.464Y66.04
X35.56Y66.04
X40.64Y66.04
X12.7Y8.636
X17.78Y8.636
X23.876Y8.636
X28.956Y8.636
X34.036Y8.636
X39.116Y8.636
X13.208Y66.04
X18.288Y66.04
X59.436Y66.04
X64.516Y66.04
X69.596Y66.04
T7
X45.968Y11.788
X70.968Y11.788
X5.08Y53.112
X5.08Y19.812
T0
M30
